<svg width="64" height="78" viewBox="0 0 136 164" fill="none" xmlns="http://www.w3.org/2000/svg">
<mask id="path-1-outside-1_4346_6231" maskUnits="userSpaceOnUse" x="0" y="0" width="136" height="164" fill="black">
<rect fill="white" width="136" height="164"/>
<path fill-rule="evenodd" clip-rule="evenodd" d="M61.1449 2.0696C62.9093 2.06958 64.6873 2.34583 66.3573 2.77594C66.9085 2.91214 67.3852 2.99383 67.8636 2.99393C68.289 2.99343 68.7161 2.92834 69.1984 2.77963C70.8243 2.29944 72.7444 1.99969 74.6615 2C76.8239 1.99966 78.9827 2.38092 80.7113 3.31546C81.096 3.58615 81.096 3.58615 81.6866 4.09799L82.2378 4.42609C82.4778 4.57137 82.6023 4.64672 82.7185 4.73318C82.8438 4.82636 82.9595 4.93244 83.1999 5.15283C83.916 5.65959 84.4007 5.71152 85.2694 5.79099C86.7075 5.94464 88.0641 6.22855 89.456 6.61781L89.9974 6.75397C92.8873 7.52643 95.4953 9.30121 97.2411 11.7354C97.3353 11.9012 97.3839 11.9866 97.4089 12.0784C97.4355 12.1761 97.4355 12.281 97.4355 12.4974L97.8136 12.545C100.044 12.8988 101.79 14.0441 103.525 15.4372L104.168 15.9097C105.305 16.8736 106.084 18.2254 106.74 19.545C107.269 20.5291 107.998 21.1599 108.84 21.8795C111.777 24.415 114.313 27.4317 115.989 30.9425C116.731 32.4884 117.61 33.8116 118.644 35.1758C119.143 35.8695 119.63 36.5715 120.114 37.2757L120.355 37.6234C122.906 41.3109 124.704 45.1817 126.151 49.4286L126.41 50.1882C126.624 50.9253 126.734 51.6348 126.833 52.3946C127.039 53.2528 127.401 53.9381 127.873 54.5967C127.965 54.7195 128.063 54.8425 128.166 54.967C128.254 55.0766 128.339 55.1881 128.422 55.3013C128.485 55.3764 128.549 55.452 128.613 55.528C128.785 55.7622 128.905 55.9537 128.989 56.1621C130.855 59.3218 131.174 63.4915 131.105 67.0281C131.105 68.4968 131.345 69.3742 132.167 70.5924C133.117 72.0033 133.513 73.4684 133.731 75.1387L133.81 75.7459C134.103 78.3221 133.819 80.777 133.184 83.2805C132.76 84.9483 132.687 86.0871 133.153 87.7854C134.318 92.39 134.077 99.0063 131.646 103.169C131.307 103.684 131.194 103.855 131.061 104.008C130.995 104.083 130.924 104.155 130.817 104.261C130.792 104.66 130.78 105.059 130.773 105.459L130.756 106.221L130.739 107.043C130.667 109.651 130.445 112.193 129.977 114.76L129.885 115.289C129.561 117.049 128.943 118.595 128.153 120.194L127.934 120.64C127.49 121.516 127.015 122.213 126.342 122.937C125.401 124.03 125.241 125.286 125.068 126.639C125.048 126.797 125.028 126.956 125.006 127.117C124.492 130.531 123.059 133.432 120.738 135.969L120.286 136.473C118.826 138.019 117.128 139.351 115.068 139.959L115.115 140.476C115.054 141.441 114.726 142.149 114.32 143.017L114.089 143.521C113.859 144.015 113.625 144.507 113.389 144.998L113.195 145.402C111.645 148.594 109.284 151.337 106.249 153.188L105.889 153.43C104.811 154.143 103.734 154.597 102.509 154.999L101.996 155.181C98.8591 156.227 95.6197 156.436 92.3378 156.397C91.7763 156.39 91.215 156.388 90.6535 156.387C90.2923 156.385 89.9311 156.383 89.5699 156.38L89.0675 156.377C88.2584 156.367 87.5082 156.311 86.7203 156.128C85.5013 156.017 84.9577 156.232 83.9905 156.967C80.9549 158.84 77.6862 160.378 74.3312 161.587L73.6004 161.852C68.8994 163.288 63.3483 162.807 59.0023 160.537C58.6272 160.364 58.2511 160.193 57.8736 160.025C56.1859 159.262 54.5639 158.443 52.9832 157.476C52.5396 157.206 52.0921 156.947 51.6396 156.692C51.2063 156.443 51.0774 156.369 50.9662 156.274C50.9192 156.234 50.8753 156.19 50.8128 156.128C50.5072 156.107 50.2005 156.1 49.8941 156.101L49.3905 156.1C49.1668 156.104 49.0424 156.106 48.9213 156.128C48.7696 156.154 48.6231 156.211 48.293 156.337C47.7277 156.363 47.168 156.377 46.6024 156.38L46.092 156.385C39.0012 156.433 32.1317 156.072 26.6942 150.938C23.9467 148.219 21.409 144.245 20.9703 140.332C20.8963 140.133 20.8561 140.025 20.7807 139.954C20.6911 139.871 20.5515 139.84 20.246 139.773L19.525 139.539C18.935 139.17 18.389 138.748 17.8386 138.323L17.832 138.318L17.3903 137.986C16.5717 137.364 15.8023 136.736 15.1153 135.969V135.549H14.6953C12.6394 133.192 11.1956 129.598 10.763 126.55L10.6862 126.009C10.6389 125.657 10.5963 125.305 10.5589 124.952C10.4132 123.803 10.1488 123.302 9.23569 122.53C5.98364 118.439 5.18626 112.647 5.2558 107.574L5.26288 106.999C5.26901 106.623 5.27815 106.247 5.29056 105.87L5.3001 105.348L5.31414 104.881C5.23041 104.377 5.0327 104.205 4.6714 103.89C4.65335 103.874 4.63488 103.858 4.616 103.841C2.09752 99.6805 2.08692 94.8372 2.4899 90.1395L2.53973 89.552C2.64056 88.4769 2.79877 87.45 3.06639 86.4033C3.27778 85.3136 2.95359 84.126 2.65321 83.0257C2.58434 82.7734 2.51672 82.5257 2.45709 82.2848C1.4381 77.5442 2.108 73.1002 4.616 68.9835L4.82599 68.7735C4.8592 68.2635 4.88022 67.7577 4.89407 67.247C5.12773 60.6584 5.20309 58.5335 6.14095 56.9055C6.5874 56.1305 7.22929 55.4681 8.17674 54.4904C8.75853 53.6416 9.0029 52.7193 9.26105 51.7451C9.29158 51.6298 9.3223 51.5139 9.3538 51.3972C9.97439 49.1626 10.6774 46.9737 11.5644 44.8612L11.5514 44.8352C11.7789 44.2644 12.0196 43.7206 12.2863 43.1684L12.5196 42.68C13.0985 41.4897 13.7527 40.3743 14.4838 39.2778L14.6691 38.9556C15.3815 37.7727 16.211 36.6713 17.0598 35.5841C17.245 35.3381 17.4309 35.0926 17.6168 34.847C17.7154 34.7169 17.814 34.5867 17.9125 34.4565L18.2155 34.0532C18.4039 33.8067 18.6 33.5661 18.8 33.329C19.1392 32.7746 19.3416 32.2598 19.5614 31.6311C19.8523 30.8854 20.259 30.2077 20.6693 29.5239C20.6991 29.4743 20.7289 29.4247 20.7586 29.375L21.0269 28.914C21.5784 27.9829 22.1748 27.1726 22.8847 26.3565L23.3047 25.8241C24.2069 24.684 25.1555 23.6215 26.1789 22.5898L26.5189 22.244C27.0528 21.7142 27.5319 21.2996 28.1746 20.8968C28.8756 20.3976 29.0886 19.9797 29.4468 19.2038C30.6791 16.7721 32.5382 14.9937 34.9458 13.7311L35.3547 13.5104C36.4356 12.9376 37.3873 12.4974 38.6337 12.4974L38.7649 11.9593C39.7366 9.52998 42.2655 8.30064 44.5133 7.24777L44.898 7.02876C45.4863 6.76903 46.0786 6.66089 46.7034 6.5468C46.7649 6.53558 46.8266 6.5243 46.8887 6.51282C47.6969 6.36247 48.4775 6.20541 49.2658 5.97145C50.0964 5.74406 50.8502 5.72706 51.7061 5.72209C52.3679 5.54511 52.6777 5.20855 53.1155 4.73285C53.1437 4.70219 53.1725 4.67096 53.2019 4.63915C53.7736 4.08353 54.4438 3.75879 55.1569 3.41553L55.61 3.19693C57.3358 2.39276 59.2324 2.06896 61.1449 2.0696Z"/>
</mask>
<path fill-rule="evenodd" clip-rule="evenodd" d="M61.1449 2.0696C62.9093 2.06958 64.6873 2.34583 66.3573 2.77594C66.9085 2.91214 67.3852 2.99383 67.8636 2.99393C68.289 2.99343 68.7161 2.92834 69.1984 2.77963C70.8243 2.29944 72.7444 1.99969 74.6615 2C76.8239 1.99966 78.9827 2.38092 80.7113 3.31546C81.096 3.58615 81.096 3.58615 81.6866 4.09799L82.2378 4.42609C82.4778 4.57137 82.6023 4.64672 82.7185 4.73318C82.8438 4.82636 82.9595 4.93244 83.1999 5.15283C83.916 5.65959 84.4007 5.71152 85.2694 5.79099C86.7075 5.94464 88.0641 6.22855 89.456 6.61781L89.9974 6.75397C92.8873 7.52643 95.4953 9.30121 97.2411 11.7354C97.3353 11.9012 97.3839 11.9866 97.4089 12.0784C97.4355 12.1761 97.4355 12.281 97.4355 12.4974L97.8136 12.545C100.044 12.8988 101.79 14.0441 103.525 15.4372L104.168 15.9097C105.305 16.8736 106.084 18.2254 106.74 19.545C107.269 20.5291 107.998 21.1599 108.84 21.8795C111.777 24.415 114.313 27.4317 115.989 30.9425C116.731 32.4884 117.61 33.8116 118.644 35.1758C119.143 35.8695 119.63 36.5715 120.114 37.2757L120.355 37.6234C122.906 41.3109 124.704 45.1817 126.151 49.4286L126.41 50.1882C126.624 50.9253 126.734 51.6348 126.833 52.3946C127.039 53.2528 127.401 53.9381 127.873 54.5967C127.965 54.7195 128.063 54.8425 128.166 54.967C128.254 55.0766 128.339 55.1881 128.422 55.3013C128.485 55.3764 128.549 55.452 128.613 55.528C128.785 55.7622 128.905 55.9537 128.989 56.1621C130.855 59.3218 131.174 63.4915 131.105 67.0281C131.105 68.4968 131.345 69.3742 132.167 70.5924C133.117 72.0033 133.513 73.4684 133.731 75.1387L133.81 75.7459C134.103 78.3221 133.819 80.777 133.184 83.2805C132.76 84.9483 132.687 86.0871 133.153 87.7854C134.318 92.39 134.077 99.0063 131.646 103.169C131.307 103.684 131.194 103.855 131.061 104.008C130.995 104.083 130.924 104.155 130.817 104.261C130.792 104.66 130.78 105.059 130.773 105.459L130.756 106.221L130.739 107.043C130.667 109.651 130.445 112.193 129.977 114.76L129.885 115.289C129.561 117.049 128.943 118.595 128.153 120.194L127.934 120.64C127.49 121.516 127.015 122.213 126.342 122.937C125.401 124.03 125.241 125.286 125.068 126.639C125.048 126.797 125.028 126.956 125.006 127.117C124.492 130.531 123.059 133.432 120.738 135.969L120.286 136.473C118.826 138.019 117.128 139.351 115.068 139.959L115.115 140.476C115.054 141.441 114.726 142.149 114.32 143.017L114.089 143.521C113.859 144.015 113.625 144.507 113.389 144.998L113.195 145.402C111.645 148.594 109.284 151.337 106.249 153.188L105.889 153.43C104.811 154.143 103.734 154.597 102.509 154.999L101.996 155.181C98.8591 156.227 95.6197 156.436 92.3378 156.397C91.7763 156.39 91.215 156.388 90.6535 156.387C90.2923 156.385 89.9311 156.383 89.5699 156.38L89.0675 156.377C88.2584 156.367 87.5082 156.311 86.7203 156.128C85.5013 156.017 84.9577 156.232 83.9905 156.967C80.9549 158.84 77.6862 160.378 74.3312 161.587L73.6004 161.852C68.8994 163.288 63.3483 162.807 59.0023 160.537C58.6272 160.364 58.2511 160.193 57.8736 160.025C56.1859 159.262 54.5639 158.443 52.9832 157.476C52.5396 157.206 52.0921 156.947 51.6396 156.692C51.2063 156.443 51.0774 156.369 50.9662 156.274C50.9192 156.234 50.8753 156.19 50.8128 156.128C50.5072 156.107 50.2005 156.1 49.8941 156.101L49.3905 156.1C49.1668 156.104 49.0424 156.106 48.9213 156.128C48.7696 156.154 48.6231 156.211 48.293 156.337C47.7277 156.363 47.168 156.377 46.6024 156.38L46.092 156.385C39.0012 156.433 32.1317 156.072 26.6942 150.938C23.9467 148.219 21.409 144.245 20.9703 140.332C20.8963 140.133 20.8561 140.025 20.7807 139.954C20.6911 139.871 20.5515 139.84 20.246 139.773L19.525 139.539C18.935 139.17 18.389 138.748 17.8386 138.323L17.832 138.318L17.3903 137.986C16.5717 137.364 15.8023 136.736 15.1153 135.969V135.549H14.6953C12.6394 133.192 11.1956 129.598 10.763 126.55L10.6862 126.009C10.6389 125.657 10.5963 125.305 10.5589 124.952C10.4132 123.803 10.1488 123.302 9.23569 122.53C5.98364 118.439 5.18626 112.647 5.2558 107.574L5.26288 106.999C5.26901 106.623 5.27815 106.247 5.29056 105.87L5.3001 105.348L5.31414 104.881C5.23041 104.377 5.0327 104.205 4.6714 103.89C4.65335 103.874 4.63488 103.858 4.616 103.841C2.09752 99.6805 2.08692 94.8372 2.4899 90.1395L2.53973 89.552C2.64056 88.4769 2.79877 87.45 3.06639 86.4033C3.27778 85.3136 2.95359 84.126 2.65321 83.0257C2.58434 82.7734 2.51672 82.5257 2.45709 82.2848C1.4381 77.5442 2.108 73.1002 4.616 68.9835L4.82599 68.7735C4.8592 68.2635 4.88022 67.7577 4.89407 67.247C5.12773 60.6584 5.20309 58.5335 6.14095 56.9055C6.5874 56.1305 7.22929 55.4681 8.17674 54.4904C8.75853 53.6416 9.0029 52.7193 9.26105 51.7451C9.29158 51.6298 9.3223 51.5139 9.3538 51.3972C9.97439 49.1626 10.6774 46.9737 11.5644 44.8612L11.5514 44.8352C11.7789 44.2644 12.0196 43.7206 12.2863 43.1684L12.5196 42.68C13.0985 41.4897 13.7527 40.3743 14.4838 39.2778L14.6691 38.9556C15.3815 37.7727 16.211 36.6713 17.0598 35.5841C17.245 35.3381 17.4309 35.0926 17.6168 34.847C17.7154 34.7169 17.814 34.5867 17.9125 34.4565L18.2155 34.0532C18.4039 33.8067 18.6 33.5661 18.8 33.329C19.1392 32.7746 19.3416 32.2598 19.5614 31.6311C19.8523 30.8854 20.259 30.2077 20.6693 29.5239C20.6991 29.4743 20.7289 29.4247 20.7586 29.375L21.0269 28.914C21.5784 27.9829 22.1748 27.1726 22.8847 26.3565L23.3047 25.8241C24.2069 24.684 25.1555 23.6215 26.1789 22.5898L26.5189 22.244C27.0528 21.7142 27.5319 21.2996 28.1746 20.8968C28.8756 20.3976 29.0886 19.9797 29.4468 19.2038C30.6791 16.7721 32.5382 14.9937 34.9458 13.7311L35.3547 13.5104C36.4356 12.9376 37.3873 12.4974 38.6337 12.4974L38.7649 11.9593C39.7366 9.52998 42.2655 8.30064 44.5133 7.24777L44.898 7.02876C45.4863 6.76903 46.0786 6.66089 46.7034 6.5468C46.7649 6.53558 46.8266 6.5243 46.8887 6.51282C47.6969 6.36247 48.4775 6.20541 49.2658 5.97145C50.0964 5.74406 50.8502 5.72706 51.7061 5.72209C52.3679 5.54511 52.6777 5.20855 53.1155 4.73285C53.1437 4.70219 53.1725 4.67096 53.2019 4.63915C53.7736 4.08353 54.4438 3.75879 55.1569 3.41553L55.61 3.19693C57.3358 2.39276 59.2324 2.06896 61.1449 2.0696Z" fill="#F1F1F1"/>
<path d="M61.1449 2.0696L61.1445 3.29113L61.145 3.29113L61.1449 2.0696ZM66.3573 2.77594L66.0526 3.95893L66.0643 3.96181L66.3573 2.77594ZM67.8636 2.99393L67.8634 4.21547L67.8651 4.21547L67.8636 2.99393ZM69.1984 2.77963L68.8524 1.60812L68.8454 1.61018L68.8385 1.61232L69.1984 2.77963ZM74.6615 2L74.6613 3.22154L74.6617 3.22154L74.6615 2ZM80.7113 3.31546L81.4142 2.31645L81.3554 2.27509L81.2922 2.24091L80.7113 3.31546ZM81.6866 4.09799L80.8865 5.02109L80.9685 5.09215L81.0618 5.14764L81.6866 4.09799ZM82.2378 4.42609L82.8703 3.38104L82.8626 3.37643L82.2378 4.42609ZM82.7185 4.73318L81.9896 5.71335L81.9896 5.71335L82.7185 4.73318ZM83.1999 5.15283L82.3744 6.05323L82.4313 6.10537L82.4943 6.14994L83.1999 5.15283ZM85.2694 5.79099L85.3992 4.57637L85.39 4.57538L85.3807 4.57454L85.2694 5.79099ZM89.456 6.61781L89.127 7.79421L89.1425 7.79853L89.1581 7.80245L89.456 6.61781ZM89.9974 6.75397L90.3128 5.57387L90.3041 5.57154L90.2953 5.56933L89.9974 6.75397ZM97.2411 11.7354L98.3031 11.1318L98.2713 11.0758L98.2337 11.0235L97.2411 11.7354ZM97.4089 12.0784L96.2303 12.3995L96.2303 12.3995L97.4089 12.0784ZM97.4355 12.4974H96.2139V13.5749L97.283 13.7094L97.4355 12.4974ZM97.8136 12.545L98.005 11.3385L97.9856 11.3355L97.9661 11.333L97.8136 12.545ZM103.525 15.4372L102.76 16.3896L102.781 16.4061L102.802 16.4216L103.525 15.4372ZM104.168 15.9097L104.958 14.9779L104.926 14.9504L104.891 14.9253L104.168 15.9097ZM106.74 19.545L105.647 20.089L105.655 20.1061L105.664 20.1228L106.74 19.545ZM108.84 21.8795L109.639 20.9549L109.634 20.9507L108.84 21.8795ZM115.989 30.9425L114.886 31.4687L114.888 31.4711L115.989 30.9425ZM118.644 35.1758L119.635 34.4623L119.627 34.45L119.617 34.4378L118.644 35.1758ZM120.114 37.2757L119.107 37.9679L119.11 37.9721L120.114 37.2757ZM120.355 37.6234L121.36 36.9284L121.359 36.927L120.355 37.6234ZM126.151 49.4286L124.995 49.8226L124.995 49.8231L126.151 49.4286ZM126.41 50.1882L127.584 49.8484L127.576 49.8208L127.566 49.7937L126.41 50.1882ZM126.833 52.3946L125.622 52.5525L125.631 52.6167L125.646 52.6796L126.833 52.3946ZM127.873 54.5967L126.881 55.3089L126.888 55.3189L126.896 55.3287L127.873 54.5967ZM128.166 54.967L129.119 54.2031L129.113 54.1948L129.106 54.1866L128.166 54.967ZM128.422 55.3013L127.437 56.0234L127.459 56.0532L127.483 56.0817L128.422 55.3013ZM128.613 55.528L129.599 54.8058L129.572 54.7697L129.543 54.7355L128.613 55.528ZM128.989 56.1621L127.857 56.6209L127.891 56.7051L127.937 56.7833L128.989 56.1621ZM131.105 67.0281L129.884 67.0044L129.884 67.016L129.884 67.0277L131.105 67.0281ZM132.167 70.5924L133.18 69.9101L133.179 69.9093L132.167 70.5924ZM133.731 75.1387L132.52 75.2965L132.52 75.2975L133.731 75.1387ZM133.81 75.7459L135.024 75.6081L135.023 75.5976L135.022 75.5871L133.81 75.7459ZM133.184 83.2805L132 82.9799L132 82.98L133.184 83.2805ZM133.153 87.7854L134.338 87.486L134.335 87.4739L134.331 87.462L133.153 87.7854ZM131.646 103.169L132.666 103.842L132.685 103.814L132.701 103.785L131.646 103.169ZM131.061 104.008L131.981 104.811L131.981 104.811L131.061 104.008ZM130.817 104.261L129.954 103.397L129.628 103.723L129.598 104.182L130.817 104.261ZM130.773 105.459L131.994 105.486L131.994 105.479L130.773 105.459ZM130.756 106.221L129.535 106.194L129.535 106.195L130.756 106.221ZM130.739 107.043L131.96 107.077L131.96 107.07L130.739 107.043ZM129.977 114.76L128.776 114.541L128.774 114.551L129.977 114.76ZM129.885 115.289L131.087 115.51L131.089 115.498L129.885 115.289ZM128.153 120.194L127.058 119.652L127.056 119.656L128.153 120.194ZM127.934 120.64L129.024 121.193L129.028 121.185L129.031 121.178L127.934 120.64ZM126.342 122.937L125.447 122.105L125.431 122.122L125.416 122.14L126.342 122.937ZM125.068 126.639L123.856 126.484L123.856 126.484L125.068 126.639ZM125.006 127.117L126.214 127.298L126.215 127.29L126.216 127.281L125.006 127.117ZM120.738 135.969L119.837 135.144L119.829 135.153L120.738 135.969ZM120.286 136.473L121.174 137.311L121.185 137.3L121.195 137.288L120.286 136.473ZM115.068 139.959L114.723 138.787L113.762 139.07L113.852 140.069L115.068 139.959ZM115.115 140.476L116.334 140.553L116.34 140.46L116.332 140.366L115.115 140.476ZM114.32 143.017L113.214 142.499L113.21 142.507L114.32 143.017ZM114.089 143.521L115.196 144.036L115.199 144.031L114.089 143.521ZM113.389 144.998L112.288 144.468L112.287 144.471L113.389 144.998ZM113.195 145.402L114.294 145.936L114.297 145.93L113.195 145.402ZM106.249 153.188L105.613 152.145L105.589 152.159L105.566 152.175L106.249 153.188ZM105.889 153.43L106.563 154.449L106.572 154.443L105.889 153.43ZM102.509 154.999L102.128 153.838L102.114 153.843L102.1 153.848L102.509 154.999ZM101.996 155.181L102.382 156.34L102.393 156.336L102.404 156.332L101.996 155.181ZM92.3378 156.397L92.3524 155.175L92.3523 155.175L92.3378 156.397ZM90.6535 156.387L90.647 157.608L90.6508 157.608L90.6535 156.387ZM89.5699 156.38L89.5782 155.159L89.5765 155.159L89.5699 156.38ZM89.0675 156.377L89.0516 157.599L89.0609 157.599L89.0675 156.377ZM86.7203 156.128L86.997 154.938L86.9149 154.919L86.8309 154.911L86.7203 156.128ZM83.9905 156.967L84.6318 158.007L84.6826 157.976L84.7302 157.94L83.9905 156.967ZM74.3312 161.587L73.9171 160.438L73.9149 160.439L74.3312 161.587ZM73.6004 161.852L73.9572 163.02L73.9872 163.011L74.0167 163L73.6004 161.852ZM59.0023 160.537L59.5678 159.454L59.5412 159.441L59.514 159.428L59.0023 160.537ZM57.8736 160.025L57.3701 161.138L57.3773 161.142L57.8736 160.025ZM52.9832 157.476L53.6209 156.434L53.6183 156.433L52.9832 157.476ZM51.6396 156.692L51.0311 157.751L51.0401 157.756L51.6396 156.692ZM50.9662 156.274L50.1733 157.203L50.1734 157.203L50.9662 156.274ZM50.8128 156.128L51.6765 155.264L51.3525 154.94L50.8954 154.909L50.8128 156.128ZM49.8941 156.101L49.8901 157.323L49.8981 157.323L49.8941 156.101ZM49.3905 156.1L49.3945 154.878L49.3806 154.878L49.3668 154.878L49.3905 156.1ZM48.9213 156.128L48.7098 154.925L48.7097 154.925L48.9213 156.128ZM48.293 156.337L48.348 157.558L48.5461 157.549L48.7312 157.478L48.293 156.337ZM46.6024 156.38L46.5954 155.159L46.5916 155.159L46.6024 156.38ZM46.092 156.385L46.1004 157.606L46.1029 157.606L46.092 156.385ZM26.6942 150.938L25.835 151.806L25.8452 151.816L25.8556 151.826L26.6942 150.938ZM20.9703 140.332L22.1842 140.196L22.1675 140.047L22.1152 139.906L20.9703 140.332ZM20.7807 139.954L21.6148 139.062L21.6148 139.062L20.7807 139.954ZM20.246 139.773L19.868 140.935L19.9258 140.954L19.9851 140.967L20.246 139.773ZM19.525 139.539L18.8775 140.574L19.0045 140.654L19.147 140.7L19.525 139.539ZM17.8386 138.323L18.5852 137.356L18.5837 137.355L17.8386 138.323ZM17.832 138.318L18.5771 137.35L18.5714 137.346L18.5656 137.341L17.832 138.318ZM17.3903 137.986L16.6507 138.959L16.6566 138.963L17.3903 137.986ZM15.1153 135.969H13.8937V136.436L14.2052 136.784L15.1153 135.969ZM15.1153 135.549H16.3368V134.327H15.1153V135.549ZM14.6953 135.549L13.7747 136.352L14.1399 136.77H14.6953V135.549ZM10.763 126.55L11.9724 126.378L11.9724 126.378L10.763 126.55ZM10.6862 126.009L9.47545 126.172L9.47677 126.181L10.6862 126.009ZM10.5589 124.952L11.7737 124.823L11.7723 124.811L11.7707 124.798L10.5589 124.952ZM9.23569 122.53L8.27946 123.29L8.35459 123.384L8.44677 123.462L9.23569 122.53ZM5.2558 107.574L6.47723 107.591L6.47725 107.589L5.2558 107.574ZM5.26288 106.999L4.0415 106.979L4.04144 106.984L5.26288 106.999ZM5.29056 105.87L6.51143 105.911L6.51173 105.902L6.51189 105.893L5.29056 105.87ZM5.3001 105.348L4.07912 105.311L4.0789 105.318L4.07877 105.326L5.3001 105.348ZM5.31414 104.881L6.53513 104.918L6.53872 104.799L6.51916 104.681L5.31414 104.881ZM4.6714 103.89L3.86807 104.81L3.86813 104.81L4.6714 103.89ZM4.616 103.841L3.571 104.474L3.66895 104.635L3.81124 104.76L4.616 103.841ZM2.4899 90.1395L3.70697 90.244L3.70707 90.2428L2.4899 90.1395ZM2.53973 89.552L1.32349 89.4379L1.32257 89.4488L2.53973 89.552ZM3.06639 86.4033L4.24985 86.7059L4.25874 86.6711L4.26557 86.6359L3.06639 86.4033ZM2.65321 83.0257L1.4748 83.3474L1.4748 83.3474L2.65321 83.0257ZM2.45709 82.2848L1.26283 82.5415L1.2668 82.56L1.27134 82.5783L2.45709 82.2848ZM4.616 68.9835L3.75225 68.1198L3.64888 68.2231L3.57282 68.348L4.616 68.9835ZM4.82599 68.7735L5.68974 69.6373L6.01505 69.312L6.04494 68.8529L4.82599 68.7735ZM4.89407 67.247L3.67326 67.2037L3.67299 67.2139L4.89407 67.247ZM6.14095 56.9055L5.08249 56.2957L5.08249 56.2957L6.14095 56.9055ZM8.17674 54.4904L9.05396 55.3405L9.12587 55.2663L9.1843 55.181L8.17674 54.4904ZM9.26105 51.7451L8.08026 51.4322L8.08026 51.4322L9.26105 51.7451ZM9.3538 51.3972L8.17678 51.0704L8.1745 51.0788L9.3538 51.3972ZM11.5644 44.8612L12.6907 45.3341L12.9079 44.8167L12.657 44.3149L11.5644 44.8612ZM11.5514 44.8352L10.4167 44.3828L10.2139 44.8916L10.4588 45.3815L11.5514 44.8352ZM12.2863 43.1684L13.3863 43.6997L13.3886 43.6948L12.2863 43.1684ZM12.5196 42.68L11.4211 42.1457L11.4173 42.1536L12.5196 42.68ZM14.4838 39.2778L15.5001 39.9554L15.5226 39.9218L15.5427 39.8867L14.4838 39.2778ZM14.6691 38.9556L13.6226 38.3254L13.6163 38.336L13.6101 38.3467L14.6691 38.9556ZM17.0598 35.5841L18.0227 36.3358L18.0294 36.3272L18.0359 36.3185L17.0598 35.5841ZM17.6168 34.847L16.6431 34.1095L16.6431 34.1095L17.6168 34.847ZM17.9125 34.4565L18.8869 35.1931L18.8891 35.1902L17.9125 34.4565ZM18.2155 34.0532L17.2449 33.3114L17.2389 33.3195L18.2155 34.0532ZM18.8 33.329L19.7339 34.1163L19.7936 34.0455L19.8419 33.9665L18.8 33.329ZM19.5614 31.6311L18.4234 31.1872L18.4154 31.2075L18.4083 31.2281L19.5614 31.6311ZM20.6693 29.5239L21.7167 30.1525L21.7167 30.1525L20.6693 29.5239ZM20.7586 29.375L21.8066 30.0026L21.8106 29.996L21.8145 29.9893L20.7586 29.375ZM21.0269 28.914L19.9759 28.2914L19.971 28.2997L21.0269 28.914ZM22.8847 26.3565L23.8064 27.1582L23.8256 27.1361L23.8438 27.113L22.8847 26.3565ZM23.3047 25.8241L22.3468 25.0661L22.3457 25.0675L23.3047 25.8241ZM26.1789 22.5898L27.0462 23.4501L27.0499 23.4463L26.1789 22.5898ZM26.5189 22.244L25.6584 21.377L25.6531 21.3823L25.6479 21.3876L26.5189 22.244ZM28.1746 20.8968L28.8232 21.9319L28.8538 21.9128L28.8831 21.8919L28.1746 20.8968ZM29.4468 19.2038L28.3572 18.6517L28.3471 18.6715L28.3378 18.6918L29.4468 19.2038ZM34.9458 13.7311L35.5131 14.8129L35.5195 14.8095L35.5259 14.8061L34.9458 13.7311ZM35.3547 13.5104L34.7827 12.4311L34.7746 12.4354L35.3547 13.5104ZM38.6337 12.4974V13.7189H39.5931L39.8204 12.7869L38.6337 12.4974ZM38.7649 11.9593L37.6307 11.5057L37.5986 11.5859L37.5782 11.6699L38.7649 11.9593ZM44.5133 7.24777L45.0314 8.35396L45.0754 8.33336L45.1176 8.30933L44.5133 7.24777ZM44.898 7.02876L44.4046 5.91126L44.3477 5.9364L44.2936 5.9672L44.898 7.02876ZM46.7034 6.5468L46.9228 7.74846L46.9228 7.74846L46.7034 6.5468ZM46.8887 6.51282L47.1108 7.71399L47.1121 7.71375L46.8887 6.51282ZM49.2658 5.97145L48.9433 4.79327L48.9307 4.7967L48.9183 4.8004L49.2658 5.97145ZM51.7061 5.72209L51.7132 6.94361L51.8701 6.9427L52.0217 6.90216L51.7061 5.72209ZM53.1155 4.73285L54.0143 5.56009L54.0143 5.56009L53.1155 4.73285ZM53.2019 4.63915L52.3505 3.76316L52.3271 3.7859L52.305 3.80985L53.2019 4.63915ZM55.1569 3.41553L55.6867 4.51618L55.6877 4.51571L55.1569 3.41553ZM55.61 3.19693L55.0941 2.0897L55.0866 2.09318L55.0792 2.09675L55.61 3.19693ZM61.145 3.29113C62.7854 3.29111 64.4593 3.54852 66.0526 3.95887L66.662 1.593C64.9152 1.14314 63.0332 0.84804 61.1449 0.848063L61.145 3.29113ZM66.0643 3.96181C66.66 4.10902 67.2446 4.21534 67.8634 4.21547L67.8639 1.7724C67.5257 1.77233 67.157 1.71526 66.6503 1.59007L66.0643 3.96181ZM67.8651 4.21547C68.4235 4.21481 68.9714 4.12791 69.5583 3.94694L68.8385 1.61232C68.4608 1.72878 68.1546 1.77205 67.8622 1.7724L67.8651 4.21547ZM69.5444 3.95114C71.0605 3.50337 72.8642 3.22124 74.6613 3.22154L74.6617 0.778465C72.6247 0.778135 70.5881 1.09551 68.8524 1.60812L69.5444 3.95114ZM74.6617 3.22154C76.7013 3.22121 78.6395 3.584 80.1303 4.39001L81.2922 2.24091C79.3259 1.17785 76.9464 0.778106 74.6613 0.778465L74.6617 3.22154ZM80.0083 4.31447C80.206 4.45357 80.2704 4.49937 80.3573 4.56905C80.4564 4.64862 80.5822 4.7573 80.8865 5.02109L82.4866 3.17488C82.2004 2.92683 82.0308 2.77959 81.8862 2.66353C81.7292 2.53758 81.6012 2.44803 81.4142 2.31645L80.0083 4.31447ZM81.0618 5.14764L81.613 5.47575L82.8626 3.37643L82.3113 3.04833L81.0618 5.14764ZM81.6053 5.47111C81.8634 5.62739 81.9305 5.66941 81.9896 5.71335L83.4475 3.75301C83.2741 3.62404 83.0921 3.51534 82.8703 3.38107L81.6053 5.47111ZM81.9896 5.71335C82.0529 5.76048 82.116 5.81626 82.3744 6.05323L84.0254 4.25244C83.8031 4.04862 83.6347 3.89224 83.4475 3.75301L81.9896 5.71335ZM82.4943 6.14994C82.9539 6.47523 83.3834 6.68296 83.8588 6.8114C84.298 6.93006 84.7444 6.96959 85.1581 7.00745L85.3807 4.57454C84.9258 4.53292 84.6954 4.50675 84.496 4.45289C84.3329 4.40881 84.162 4.3372 83.9056 4.15573L82.4943 6.14994ZM85.1397 7.00562C86.4977 7.15071 87.7868 7.4194 89.127 7.79421L89.785 5.44141C88.3414 5.03769 86.9173 4.73856 85.3992 4.57637L85.1397 7.00562ZM89.1581 7.80245L89.6994 7.93861L90.2953 5.56933L89.754 5.43317L89.1581 7.80245ZM89.682 7.93408C92.3051 8.63524 94.6713 10.2481 96.2484 12.4473L98.2337 11.0235C96.3194 8.35428 93.4695 6.41763 90.3128 5.57387L89.682 7.93408ZM96.1791 12.339C96.2035 12.3819 96.221 12.4127 96.2356 12.4391C96.2502 12.4653 96.2572 12.4787 96.2605 12.4852C96.2635 12.4911 96.2597 12.4842 96.2535 12.4687C96.2466 12.4518 96.2381 12.4282 96.2303 12.3995L98.5875 11.7574C98.5126 11.4828 98.3674 11.2451 98.3031 11.1318L96.1791 12.339ZM96.2303 12.3995C96.2219 12.3688 96.217 12.3422 96.2143 12.3226C96.2119 12.305 96.2118 12.297 96.2122 12.3053C96.2126 12.3144 96.2132 12.3322 96.2136 12.3665C96.2139 12.401 96.2139 12.4415 96.2139 12.4974H98.657C98.657 12.3491 98.6671 12.0498 98.5874 11.7573L96.2303 12.3995ZM97.283 13.7094L97.6611 13.757L97.9661 11.333L97.588 11.2854L97.283 13.7094ZM97.6222 13.7514C99.5303 14.0541 101.072 15.0337 102.76 16.3896L104.29 14.4848C102.509 13.0545 100.557 11.7434 98.005 11.3385L97.6222 13.7514ZM102.802 16.4216L103.445 16.8941L104.891 14.9253L104.248 14.4528L102.802 16.4216ZM103.378 16.8414C104.313 17.6336 105.001 18.7903 105.647 20.089L107.834 19.0011C107.167 17.6604 106.298 16.1136 104.958 14.9779L103.378 16.8414ZM105.664 20.1228C106.315 21.3352 107.218 22.1002 108.047 22.8083L109.634 20.9507C108.778 20.2197 108.222 19.723 107.817 18.9673L105.664 20.1228ZM108.042 22.8041C110.883 25.2567 113.3 28.144 114.886 31.4687L117.091 30.4163C115.327 26.7194 112.671 23.5734 109.639 20.9549L108.042 22.8041ZM114.888 31.4711C115.677 33.1156 116.607 34.5103 117.671 35.9138L119.617 34.4378C118.613 33.1128 117.785 31.8613 117.09 30.4139L114.888 31.4711ZM117.653 35.8894C118.144 36.572 118.624 37.2652 119.107 37.9679L121.12 36.5835C120.635 35.8778 120.143 35.167 119.635 34.4623L117.653 35.8894ZM119.11 37.9721L119.352 38.3198L121.359 36.927L121.117 36.5793L119.11 37.9721ZM119.351 38.3184C121.824 41.8929 123.575 45.6566 124.995 49.8226L127.307 49.0346C125.833 44.7067 123.989 40.7288 121.36 36.9284L119.351 38.3184ZM124.995 49.8231L125.254 50.5827L127.566 49.7937L127.307 49.0341L124.995 49.8231ZM125.237 50.5279C125.424 51.1731 125.525 51.8079 125.622 52.5525L128.045 52.2368C127.944 51.4616 127.824 50.6775 127.584 49.8484L125.237 50.5279ZM125.646 52.6796C125.897 53.7263 126.34 54.5546 126.881 55.3089L128.866 53.8845C128.462 53.3215 128.182 52.7793 128.021 52.1097L125.646 52.6796ZM126.896 55.3287C127.001 55.4699 127.112 55.6091 127.226 55.7473L129.106 54.1866C129.014 54.0759 128.929 53.9691 128.851 53.8647L126.896 55.3287ZM127.213 55.7309C127.29 55.8266 127.364 55.9242 127.437 56.0234L129.408 54.5791C129.314 54.452 129.218 54.3267 129.119 54.2031L127.213 55.7309ZM127.483 56.0817C127.549 56.1615 127.616 56.2411 127.684 56.3205L129.543 54.7355C129.481 54.6628 129.421 54.5913 129.362 54.5209L127.483 56.0817ZM127.628 56.2502C127.775 56.4505 127.828 56.5481 127.857 56.6209L130.121 55.7034C129.982 55.3592 129.795 55.074 129.599 54.8058L127.628 56.2502ZM127.937 56.7833C129.62 59.6313 129.952 63.5034 129.884 67.0044L132.327 67.0517C132.396 63.4795 132.091 59.0122 130.041 55.5409L127.937 56.7833ZM129.884 67.0277C129.884 67.8273 129.948 68.5404 130.155 69.2475C130.364 69.9584 130.696 70.5971 131.154 71.2756L133.179 69.9093C132.815 69.3695 132.617 68.9605 132.5 68.5608C132.382 68.1575 132.327 67.6976 132.327 67.0284L129.884 67.0277ZM131.153 71.2748C131.959 72.4711 132.316 73.7307 132.52 75.2965L134.942 74.9809C134.711 73.2061 134.274 71.5354 133.18 69.9101L131.153 71.2748ZM132.52 75.2975L132.599 75.9047L135.022 75.5871L134.942 74.9799L132.52 75.2975ZM132.597 75.8837C132.869 78.2775 132.609 80.58 132 82.9799L134.368 83.581C135.029 80.974 135.337 78.3667 135.024 75.6081L132.597 75.8837ZM132 82.98C131.536 84.8046 131.441 86.1635 131.975 88.1089L134.331 87.462C133.933 86.0107 133.984 85.0919 134.368 83.581L132 82.98ZM131.969 88.0848C132.516 90.247 132.739 92.9176 132.53 95.5463C132.321 98.1842 131.684 100.682 130.592 102.553L132.701 103.785C134.04 101.493 134.738 98.6018 134.966 95.7397C135.194 92.8683 134.955 89.9285 134.338 87.486L131.969 88.0848ZM130.626 102.497C130.263 103.049 130.206 103.13 130.141 103.204L131.981 104.811C132.183 104.58 132.351 104.32 132.666 103.842L130.626 102.497ZM130.141 103.204C130.108 103.242 130.068 103.283 129.954 103.397L131.681 105.125C131.779 105.026 131.882 104.924 131.981 104.811L130.141 103.204ZM129.598 104.182C129.571 104.608 129.558 105.029 129.552 105.439L131.994 105.479C132.001 105.09 132.012 104.711 132.036 104.34L129.598 104.182ZM129.552 105.432L129.535 106.194L131.977 106.248L131.994 105.486L129.552 105.432ZM129.535 106.195L129.517 107.017L131.96 107.07L131.977 106.248L129.535 106.195ZM129.517 107.01C129.447 109.57 129.23 112.048 128.776 114.541L131.179 114.979C131.661 112.338 131.886 109.733 131.96 107.077L129.517 107.01ZM128.774 114.551L128.682 115.08L131.089 115.498L131.181 114.97L128.774 114.551ZM128.684 115.068C128.388 116.675 127.821 118.108 127.058 119.652L129.248 120.735C130.065 119.082 130.735 117.423 131.087 115.51L128.684 115.068ZM127.056 119.656L126.837 120.103L129.031 121.178L129.25 120.731L127.056 119.656ZM126.845 120.088C126.449 120.869 126.038 121.47 125.447 122.105L127.237 123.768C127.993 122.955 128.531 122.163 129.024 121.193L126.845 120.088ZM125.416 122.14C124.202 123.55 124.023 125.177 123.856 126.484L126.28 126.793C126.458 125.394 126.6 124.509 127.268 123.734L125.416 122.14ZM123.856 126.484C123.836 126.643 123.816 126.797 123.795 126.953L126.216 127.281C126.239 127.115 126.26 126.951 126.28 126.793L123.856 126.484ZM123.798 126.935C123.322 130.099 122.002 132.778 119.837 135.144L121.639 136.793C124.117 134.086 125.663 130.964 126.214 127.298L123.798 126.935ZM119.829 135.153L119.377 135.657L121.195 137.288L121.647 136.785L119.829 135.153ZM119.398 135.634C118.012 137.102 116.492 138.265 114.723 138.787L115.414 141.13C117.765 140.437 119.641 138.936 121.174 137.311L119.398 135.634ZM113.852 140.069L113.899 140.586L116.332 140.366L116.285 139.849L113.852 140.069ZM113.896 140.399C113.852 141.105 113.626 141.619 113.214 142.499L115.427 143.534C115.827 142.679 116.257 141.777 116.334 140.553L113.896 140.399ZM113.21 142.507L112.979 143.011L115.199 144.031L115.43 143.526L113.21 142.507ZM112.981 143.007C112.754 143.494 112.523 143.98 112.288 144.468L114.489 145.528C114.727 145.034 114.964 144.537 115.196 144.036L112.981 143.007ZM112.287 144.471L112.093 144.875L114.297 145.93L114.49 145.525L112.287 144.471ZM112.096 144.869C110.638 147.871 108.428 150.428 105.613 152.145L106.885 154.231C110.139 152.246 112.652 149.317 114.294 145.936L112.096 144.869ZM105.566 152.175L105.206 152.418L106.572 154.443L106.932 154.2L105.566 152.175ZM105.216 152.411C104.259 153.044 103.292 153.456 102.128 153.838L102.889 156.16C104.176 155.737 105.363 155.243 106.563 154.449L105.216 152.411ZM102.1 153.848L101.587 154.03L102.404 156.332L102.917 156.15L102.1 153.848ZM101.609 154.022C98.6629 155.005 95.5823 155.214 92.3524 155.175L92.3231 157.618C95.6572 157.658 99.0552 157.449 102.382 156.34L101.609 154.022ZM92.3523 155.175C91.7845 155.168 91.2181 155.166 90.6561 155.165L90.6508 157.608C91.2118 157.609 91.7681 157.611 92.3232 157.618L92.3523 155.175ZM90.66 155.165C90.2994 155.163 89.9388 155.161 89.5782 155.159L89.5616 157.602C89.9234 157.604 90.2852 157.606 90.647 157.608L90.66 155.165ZM89.5765 155.159L89.0741 155.156L89.0609 157.599L89.5633 157.602L89.5765 155.159ZM89.0834 155.156C88.322 155.146 87.6676 155.094 86.997 154.938L86.4436 157.317C87.3489 157.528 88.1949 157.588 89.0516 157.599L89.0834 155.156ZM86.8309 154.911C86.1364 154.848 85.5129 154.865 84.8863 155.067C84.275 155.264 83.7636 155.605 83.2509 155.995L84.7302 157.94C85.1846 157.594 85.4287 157.459 85.6356 157.393C85.8275 157.331 86.0852 157.296 86.6097 157.344L86.8309 154.911ZM83.3493 155.928C80.3918 157.752 77.2003 159.255 73.9171 160.438L74.7453 162.736C78.1722 161.502 81.5179 159.928 84.6318 158.007L83.3493 155.928ZM73.9149 160.439L73.184 160.704L74.0167 163L74.7475 162.736L73.9149 160.439ZM73.2435 160.684C68.8433 162.028 63.624 161.573 59.5678 159.454L58.4367 161.62C63.0726 164.041 68.9555 164.548 73.9572 163.02L73.2435 160.684ZM59.514 159.428C59.1347 159.253 58.7534 159.08 58.3699 158.909L57.3773 161.142C57.7487 161.307 58.1196 161.475 58.4905 161.646L59.514 159.428ZM58.3771 158.912C56.7199 158.163 55.1458 157.367 53.6209 156.434L52.3456 158.518C53.982 159.519 55.6519 160.361 57.3701 161.138L58.3771 158.912ZM53.6183 156.433C53.1599 156.154 52.6999 155.887 52.2391 155.628L51.0401 157.756C51.4842 158.006 51.9193 158.258 52.3481 158.519L53.6183 156.433ZM52.2481 155.633C52.0238 155.504 51.9022 155.434 51.8206 155.384C51.7485 155.34 51.7474 155.335 51.759 155.345L50.1734 157.203C50.3939 157.391 50.6543 157.535 51.0312 157.751L52.2481 155.633ZM51.7592 155.345C51.7604 155.346 51.7569 155.343 51.7435 155.33C51.7283 155.315 51.7099 155.297 51.6765 155.264L49.9491 156.991C50.0024 157.045 50.0823 157.126 50.1733 157.203L51.7592 155.345ZM50.8954 154.909C50.5527 154.886 50.2158 154.879 49.8902 154.88L49.8981 157.323C50.1852 157.322 50.4616 157.328 50.7303 157.346L50.8954 154.909ZM49.8981 154.88L49.3945 154.878L49.3865 157.321L49.8901 157.323L49.8981 154.88ZM49.3668 154.878C49.1761 154.882 48.9446 154.883 48.7098 154.925L49.1328 157.331C49.1282 157.332 49.1365 157.329 49.18 157.327C49.2305 157.325 49.2956 157.323 49.4142 157.321L49.3668 154.878ZM48.7097 154.925C48.4138 154.977 48.1373 155.089 47.8548 155.197L48.7312 157.478C48.9046 157.411 48.9997 157.375 49.0709 157.35C49.1322 157.329 49.1415 157.329 49.1329 157.331L48.7097 154.925ZM48.238 155.117C47.6891 155.142 47.1454 155.155 46.5954 155.159L46.6095 157.602C47.1905 157.598 47.7662 157.584 48.348 157.558L48.238 155.117ZM46.5916 155.159L46.0812 155.163L46.1029 157.606L46.6133 157.602L46.5916 155.159ZM46.0837 155.163C38.9785 155.212 32.5808 154.816 27.5328 150.05L25.8556 151.826C31.6826 157.328 39.0238 157.654 46.1004 157.606L46.0837 155.163ZM27.5535 150.07C24.9182 147.462 22.5806 143.731 22.1842 140.196L19.7563 140.468C20.2375 144.759 22.9753 148.976 25.835 151.806L27.5535 150.07ZM22.1152 139.906C22.0852 139.825 22.0366 139.692 21.9803 139.573C21.9169 139.439 21.8083 139.243 21.6148 139.062L19.9467 140.847C19.8285 140.736 19.7778 140.63 19.7718 140.617C19.7691 140.611 19.7719 140.617 19.7825 140.644C19.7933 140.672 19.8058 140.705 19.8253 140.757L22.1152 139.906ZM21.6148 139.062C21.3798 138.842 21.126 138.744 20.96 138.692C20.8115 138.645 20.6367 138.608 20.5068 138.58L19.9851 140.967C20.0645 140.984 20.1197 140.996 20.1652 141.007C20.1868 141.012 20.2024 141.016 20.2137 141.019C20.225 141.022 20.2293 141.023 20.2286 141.023C20.2279 141.023 20.2194 141.02 20.2055 141.015C20.1913 141.009 20.1697 141 20.1431 140.986C20.0864 140.957 20.0165 140.912 19.9467 140.847L21.6148 139.062ZM20.6239 138.612L19.9029 138.377L19.147 140.7L19.868 140.935L20.6239 138.612ZM20.1725 138.503C19.6422 138.171 19.1434 137.787 18.5852 137.356L17.092 139.29C17.6346 139.709 18.2278 140.168 18.8775 140.574L20.1725 138.503ZM18.5837 137.355L18.5771 137.35L17.0869 139.286L17.0935 139.291L18.5837 137.355ZM18.5656 137.341L18.1239 137.01L16.6566 138.963L17.0983 139.295L18.5656 137.341ZM18.1298 137.014C17.3274 136.404 16.633 135.833 16.0254 135.154L14.2052 136.784C14.9717 137.64 15.8159 138.323 16.6507 138.959L18.1298 137.014ZM16.3368 135.969V135.549H13.8937V135.969H16.3368ZM15.1153 134.327H14.6953V136.77H15.1153V134.327ZM15.6159 134.746C13.7427 132.598 12.3782 129.238 11.9724 126.378L9.55358 126.722C10.013 129.959 11.5362 133.785 13.7747 136.352L15.6159 134.746ZM11.9724 126.378L11.8955 125.837L9.47677 126.181L9.55362 126.722L11.9724 126.378ZM11.8968 125.847C11.851 125.505 11.8097 125.164 11.7737 124.823L9.34416 125.08C9.3828 125.445 9.42683 125.809 9.47548 126.172L11.8968 125.847ZM11.7707 124.798C11.6901 124.162 11.5625 123.576 11.2584 123.016C10.9549 122.458 10.5292 122.024 10.0246 121.597L8.44677 123.462C8.85532 123.808 9.01836 124.011 9.11169 124.183C9.20448 124.353 9.28196 124.592 9.34709 125.105L11.7707 124.798ZM10.1919 121.77C7.20962 118.018 6.40876 112.584 6.47722 107.591L4.03438 107.557C3.96375 112.709 4.75766 118.86 8.27946 123.29L10.1919 121.77ZM6.47725 107.589L6.48432 107.014L4.04144 106.984L4.03436 107.559L6.47725 107.589ZM6.48425 107.019C6.49028 106.649 6.49925 106.28 6.51143 105.911L4.06969 105.83C4.05704 106.213 4.04774 106.596 4.04151 106.979L6.48425 107.019ZM6.51189 105.893L6.52143 105.37L4.07877 105.326L4.06923 105.848L6.51189 105.893ZM6.52108 105.385L6.53513 104.918L4.09316 104.845L4.07912 105.311L6.52108 105.385ZM6.51916 104.681C6.45281 104.282 6.3234 103.927 6.08737 103.6C5.8844 103.319 5.62733 103.102 5.47468 102.969L3.86813 104.81C3.96452 104.894 4.01921 104.942 4.06281 104.984C4.10185 105.022 4.10955 105.034 4.10635 105.03C4.1002 105.021 4.09399 105.009 4.0915 105.003C4.09048 105 4.09903 105.021 4.10913 105.082L6.51916 104.681ZM5.47473 102.969C5.45641 102.953 5.43877 102.938 5.42077 102.922L3.81124 104.76C3.831 104.777 3.85028 104.794 3.86807 104.81L5.47473 102.969ZM5.661 103.209C3.36005 99.4073 3.30639 94.9136 3.70697 90.244L1.27284 90.0351C0.867452 94.7608 0.834993 99.9537 3.571 104.474L5.661 103.209ZM3.70707 90.2428L3.7569 89.6552L1.32257 89.4488L1.27274 90.0363L3.70707 90.2428ZM3.75593 89.6661C3.85231 88.6385 4.00162 87.6767 4.24985 86.7059L1.88292 86.1007C1.59593 87.2232 1.42882 88.3154 1.32353 89.4379L3.75593 89.6661ZM4.26557 86.6359C4.54135 85.2143 4.11324 83.7356 3.83163 82.704L1.4748 83.3474C1.79394 84.5164 2.01421 85.4128 1.86721 86.1707L4.26557 86.6359ZM3.83163 82.704C3.762 82.4489 3.69835 82.2155 3.64284 81.9913L1.27134 82.5783C1.33508 82.8358 1.40668 83.0978 1.4748 83.3474L3.83163 82.704ZM3.65135 82.0281C2.69449 77.5766 3.3226 73.4544 5.65919 69.619L3.57282 68.348C0.893393 72.7461 0.181705 77.5119 1.26283 82.5415L3.65135 82.0281ZM5.47976 69.8473L5.68974 69.6373L3.96224 67.9098L3.75225 68.1198L5.47976 69.8473ZM6.04494 68.8529C6.07938 68.324 6.10099 67.8024 6.11516 67.2802L3.67299 67.2139C3.65944 67.713 3.63902 68.203 3.60704 68.6942L6.04494 68.8529ZM6.11484 67.2903C6.23244 63.9744 6.30857 61.8496 6.46816 60.3449C6.62568 58.8597 6.85333 58.116 7.19942 57.5152L5.08249 56.2957C4.49072 57.323 4.21176 58.4557 4.03872 60.0872C3.86775 61.6991 3.78937 63.9311 3.6733 67.2037L6.11484 67.2903ZM7.19941 57.5152C7.55449 56.8989 8.0744 56.3513 9.05396 55.3405L7.29951 53.6403C6.38418 54.5849 5.62031 55.3621 5.08249 56.2957L7.19941 57.5152ZM9.1843 55.181C9.90352 54.1318 10.1911 53.0042 10.4418 52.0579L8.08026 51.4322C7.8147 52.4344 7.61353 53.1515 7.16918 53.7998L9.1843 55.181ZM10.4418 52.0579C10.4725 51.9423 10.5025 51.8291 10.5331 51.7157L8.1745 51.0788C8.14213 51.1987 8.11067 51.3174 8.08026 51.4322L10.4418 52.0579ZM10.5308 51.7241C11.1433 49.5187 11.8305 47.3828 12.6907 45.3341L10.4381 44.3883C9.52436 46.5646 8.80552 48.8065 8.17681 51.0704L10.5308 51.7241ZM12.657 44.3149L12.644 44.2889L10.4588 45.3815L10.4718 45.4075L12.657 44.3149ZM12.6861 45.2875C12.9024 44.7449 13.1314 44.2275 13.3863 43.6997L11.1864 42.6371C10.9078 43.2138 10.6555 43.7839 10.4167 44.3828L12.6861 45.2875ZM13.3886 43.6948L13.6219 43.2063L11.4173 42.1536L11.184 42.642L13.3886 43.6948ZM13.6181 43.2142C14.1695 42.0805 14.795 41.013 15.5001 39.9554L13.4674 38.6002C12.7104 39.7356 12.0275 40.8989 11.4211 42.1457L13.6181 43.2142ZM15.5427 39.8867L15.728 39.5645L13.6101 38.3467L13.4248 38.6689L15.5427 39.8867ZM15.7155 39.5858C16.3876 38.4698 17.1787 37.4168 18.0227 36.3358L16.097 34.8324C15.2434 35.9257 14.3753 37.0756 13.6226 38.3254L15.7155 39.5858ZM18.0359 36.3185C18.2197 36.0743 18.4045 35.8303 18.5906 35.5846L16.6431 34.1095C16.4573 34.3548 16.2702 34.6018 16.0837 34.8497L18.0359 36.3185ZM18.5906 35.5846C18.6891 35.4545 18.788 35.3239 18.8869 35.1931L16.9381 33.7198C16.84 33.8496 16.7417 33.9793 16.6431 34.1095L18.5906 35.5846ZM18.8891 35.1902L19.1921 34.787L17.2389 33.3195L16.9359 33.7227L18.8891 35.1902ZM19.1859 34.7951C19.3592 34.5684 19.5423 34.3436 19.7339 34.1163L17.8661 32.5416C17.6577 32.7887 17.4486 33.0451 17.245 33.3114L19.1859 34.7951ZM19.8419 33.9665C20.2495 33.3003 20.4859 32.6882 20.7145 32.0342L18.4083 31.2281C18.1974 31.8314 18.0288 32.2489 17.758 32.6914L19.8419 33.9665ZM20.6994 32.075C20.9466 31.4413 21.2977 30.8507 21.7167 30.1525L19.6219 28.8953C19.2202 29.5647 18.7579 30.3295 18.4234 31.1872L20.6994 32.075ZM21.7167 30.1525C21.7465 30.103 21.7765 30.0529 21.8066 30.0026L19.7107 28.7474C19.6812 28.7965 19.6517 28.8457 19.6219 28.8953L21.7167 30.1525ZM21.8145 29.9893L22.0827 29.5283L19.971 28.2997L19.7028 28.7607L21.8145 29.9893ZM22.0778 29.5366C22.5882 28.675 23.14 27.9242 23.8064 27.1582L21.9631 25.5547C21.2095 26.421 20.5686 27.2909 19.9759 28.2914L22.0778 29.5366ZM23.8438 27.113L24.2637 26.5807L22.3457 25.0675L21.9257 25.5999L23.8438 27.113ZM24.2626 26.5821C25.1348 25.4799 26.0529 24.4514 27.0461 23.4501L25.3116 21.7296C24.2582 22.7917 23.279 23.8881 22.3468 25.0661L24.2626 26.5821ZM27.0499 23.4463L27.3899 23.1005L25.6479 21.3876L25.3079 21.7334L27.0499 23.4463ZM27.3794 23.1111C27.8734 22.6208 28.2816 22.2713 28.8232 21.9319L27.5259 19.8618C26.7822 20.3278 26.2321 20.8077 25.6584 21.377L27.3794 23.1111ZM28.8831 21.8919C29.3273 21.5756 29.6606 21.2516 29.9383 20.857C30.1969 20.4893 30.382 20.0923 30.5558 19.7159L28.3378 18.6918C28.1534 19.0911 28.0528 19.2911 27.9402 19.4512C27.8465 19.5843 27.7229 19.7189 27.466 19.9018L28.8831 21.8919ZM30.5364 19.756C31.6431 17.5721 33.3083 15.9691 35.5131 14.8129L34.3785 12.6493C31.7681 14.0182 29.7151 15.9721 28.3572 18.6517L30.5364 19.756ZM35.5259 14.8061L35.9348 14.5854L34.7746 12.4354L34.3657 12.6561L35.5259 14.8061ZM35.9267 14.5898C36.9832 14.0298 37.7072 13.7189 38.6337 13.7189V11.2759C37.0674 11.2759 35.888 11.8453 34.7827 12.4311L35.9267 14.5898ZM39.8204 12.7869L39.9516 12.2488L37.5782 11.6699L37.4469 12.208L39.8204 12.7869ZM39.8991 12.413C40.662 10.5057 42.6888 9.45128 45.0314 8.35396L43.9951 6.14158C41.8423 7.15001 38.8113 8.55421 37.6307 11.5057L39.8991 12.413ZM45.1176 8.30933L45.5023 8.09032L44.2936 5.9672L43.9089 6.1862L45.1176 8.30933ZM45.3913 8.14625C45.8272 7.9538 46.2785 7.86611 46.9228 7.74846L46.484 5.34513C45.8786 5.45567 45.1454 5.58426 44.4046 5.91126L45.3913 8.14625ZM46.9228 7.74846C46.9841 7.73729 47.0472 7.72576 47.1108 7.71399L46.6666 5.31165C46.6061 5.32284 46.5457 5.33387 46.484 5.34513L46.9228 7.74846ZM47.1121 7.71375C47.9271 7.56212 48.7603 7.39566 49.6134 7.1425L48.9183 4.8004C48.1946 5.01516 47.4666 5.16282 46.6653 5.31189L47.1121 7.71375ZM49.5884 7.14963C50.2488 6.96882 50.8586 6.94857 51.7132 6.94361L51.699 4.50058C50.8419 4.50555 49.9439 4.51931 48.9433 4.79327L49.5884 7.14963ZM52.0217 6.90216C53.0561 6.62554 53.574 6.03849 54.0143 5.56009L52.2167 3.90561C51.982 4.16059 51.8662 4.28168 51.7488 4.37218C51.6608 4.44003 51.564 4.49563 51.3905 4.54203L52.0217 6.90216ZM54.0143 5.56009C54.0426 5.52931 54.0704 5.49907 54.0988 5.46845L52.305 3.80985C52.2745 3.84284 52.2448 3.87507 52.2167 3.90561L54.0143 5.56009ZM54.0532 5.51514C54.4611 5.11876 54.9508 4.87047 55.6867 4.51618L54.6271 2.31489C53.9369 2.64711 53.0861 3.0483 52.3505 3.76316L54.0532 5.51514ZM55.6877 4.51571L56.1408 4.29712L55.0792 2.09675L54.6261 2.31535L55.6877 4.51571ZM56.1259 4.30417C57.6544 3.59197 59.3663 3.29054 61.1445 3.29113L61.1454 0.848063C59.0985 0.847377 57.0173 1.19355 55.0941 2.0897L56.1259 4.30417Z" fill="white" mask="url(#path-1-outside-1_4346_6231)"/>
<path fill-rule="evenodd" clip-rule="evenodd" d="M52.0125 21.9115C51.8556 21.9817 51.7085 22.0474 51.5717 22.1082C50.6219 23.6009 47.7451 26.5862 43.8371 26.5862C43.1586 27.6718 41.476 30.0871 40.1733 31.0641C38.8706 32.0412 39.0877 32.5568 39.3591 32.6925C39.7731 32.8995 40.9812 32.1254 42.5719 31.106C45.677 29.1163 50.2399 26.1924 53.2009 27.8075C52.3868 35.5421 43.4309 37.9846 36.9175 39.613C34.4749 40.9699 29.6713 44.3352 29.997 46.9405C32.3039 45.4479 37.7318 42.8697 40.9885 44.498C39.7671 47.2119 35.8589 52.6397 29.997 52.6397C29.5433 53.5546 28.517 54.5266 27.453 55.5343C25.6764 57.217 23.7945 58.9992 24.2979 60.7815C24.4367 61.1885 24.9586 61.5956 25.9356 59.9673C27.1568 57.9319 32.449 54.2681 33.6703 54.6752C34.7384 60.7912 30.8832 63.1924 27.0852 65.5581C23.552 67.7587 20.0683 69.9286 20.6435 75.0295C20.9237 75.1652 21.5655 74.9481 21.8912 72.9941C22.0947 71.7728 29.2187 64.0382 30.8471 66.0736C31.4117 72.01 28.9325 74.0576 26.2174 76.3001C22.9745 78.9784 19.395 81.9348 20.2628 92.1271C20.5401 92.2628 21.2579 92.1189 21.0947 90.4988C20.6435 86.0208 25.9797 76.2508 30.8647 77.472C32.4933 84.258 28.4751 88.7272 25.5198 92.0142C24.0429 93.6569 22.8315 95.0043 22.723 96.198C22.2419 101.49 22.8858 104.095 23.5372 101.49C23.6728 99.319 24.5956 94.7325 27.2009 93.7555C29.8063 92.7785 30.1862 95.7909 30.0505 97.4193C29.7324 99.434 29.1105 101.532 28.4725 103.683C26.6612 109.792 24.7207 116.337 29.2364 122.659C27.7437 118.045 25.8983 108.248 30.4576 105.968C34.3677 108.728 34.2492 114.737 34.1405 120.25C34.0568 124.495 33.9789 128.445 35.7497 130.393C36.1568 130.665 36.7268 130.393 35.7497 127.137C34.7727 123.88 35.8854 121.709 36.5639 121.03C41.7054 123.147 43.0271 129.983 44.0346 135.194C44.3832 136.997 44.6942 138.605 45.1127 139.756C46.0626 141.52 48.5323 144.804 50.812 143.827C48.7765 141.792 45.1942 136.418 47.1482 131.207C56.8131 132.639 57.7906 139.737 58.3286 143.643C58.4024 144.179 58.468 144.655 58.5466 145.048C59.6517 147.013 63.0904 150.556 68.5609 150.488V150.34C68.8648 150.386 69.1633 150.421 69.4565 150.445C69.7497 150.421 70.0482 150.386 70.3521 150.34V150.488C75.8226 150.556 79.2613 147.013 80.3664 145.048C80.445 144.655 80.5106 144.179 80.5844 143.643C81.1224 139.737 82.1 132.639 91.7648 131.207C93.7189 136.418 90.1365 141.792 88.1011 143.827C90.3807 144.804 92.8504 141.52 93.8003 139.756C94.2189 138.605 94.5298 136.997 94.8784 135.194C95.8859 129.983 97.2076 123.147 102.349 121.03C103.028 121.709 104.14 123.88 103.163 127.137C102.186 130.393 102.756 130.665 103.163 130.393C104.934 128.445 104.856 124.495 104.772 120.25C104.664 114.737 104.545 108.728 108.455 105.968C113.015 108.248 111.169 118.045 109.677 122.659C114.192 116.337 112.252 109.792 110.441 103.683C109.803 101.532 109.181 99.434 108.862 97.4193C108.727 95.7909 109.107 92.7785 111.712 93.7555C114.317 94.7325 115.24 99.319 115.376 101.49C116.027 104.095 116.671 101.49 116.19 96.198C116.082 95.0043 114.87 93.6569 113.393 92.0142C110.438 88.7272 106.42 84.258 108.048 77.472C112.933 76.2508 118.27 86.0208 117.818 90.4988C117.655 92.1189 118.373 92.2628 118.65 92.1271C119.518 81.9348 115.939 78.9784 112.696 76.3001C109.981 74.0576 107.501 72.01 108.066 66.0736C109.694 64.0382 116.818 71.7728 117.022 72.9941C117.348 74.9481 117.989 75.1652 118.27 75.0295C118.845 69.9286 115.361 67.7587 111.828 65.5581C108.03 63.1924 104.175 60.7912 105.243 54.6752C106.464 54.2681 111.756 57.9319 112.977 59.9673C113.954 61.5956 114.476 61.1885 114.615 60.7815C115.118 58.9992 113.237 57.217 111.46 55.5343C110.396 54.5266 109.37 53.5546 108.916 52.6397C103.054 52.6397 99.1459 47.2119 97.9245 44.498C101.181 42.8697 106.609 45.4479 108.916 46.9405C109.242 44.3352 104.438 40.9699 101.996 39.613C95.4822 37.9846 86.5263 35.5421 85.7121 27.8075C88.6731 26.1924 93.2361 29.1163 96.3411 31.106C97.9318 32.1254 99.1399 32.8995 99.5539 32.6925C99.8253 32.5568 100.042 32.0412 98.7397 31.0641C97.437 30.0871 95.7544 27.6718 95.0759 26.5862C91.1679 26.5862 88.2912 23.6009 87.3413 22.1082C87.2045 22.0474 87.0574 21.9817 86.9005 21.9115C83.7006 20.4808 76.4338 17.2316 69.4565 17.2232C62.4792 17.2316 55.2124 20.4808 52.0125 21.9115ZM69.4565 15.1856C65.1588 14.8702 53.6424 16.8296 45.1115 23.3293C44.4602 22.0267 45.6543 20.8868 46.3328 20.4797C49.2638 19.5027 49.7252 15.4591 49.5895 13.5594C47.6355 10.6284 42.2619 16.0018 40.9885 18.4445C40.4948 19.3915 40.2613 21.1339 39.9976 23.1024C39.5812 26.2114 39.0891 29.8842 37.3769 31.8783C36.5925 31.8783 36.8885 30.9599 37.3957 29.3863C38.1519 27.0401 39.3776 23.2375 38.1911 18.8515C33.3501 21.4921 32.91 27.1062 32.4988 32.3506C32.1493 36.8084 31.8208 40.9992 28.8281 42.8697C28.5006 42.4135 28.9016 40.9293 29.4037 39.0706C30.3356 35.6207 31.6161 30.8806 29.2352 29.0287C22.5276 31.7906 24.1843 38.7592 25.7837 45.4866C25.8345 45.7001 25.8852 45.9134 25.9356 46.1263C27.2457 51.6627 24.6103 55.7607 23.1289 57.1177C22.956 57.0312 23.0726 56.1016 23.2467 54.714C23.7285 50.8738 24.6503 43.5255 21.0934 40.8342C16.2084 43.4396 17.0226 52.1163 19.058 55.8964C21.3377 60.1301 21.0934 67.2949 19.8722 66.8878C19.3584 66.9914 19.3758 66.2464 19.403 65.0774C19.4615 62.5715 19.5655 58.1171 14.58 55.8964C9.6958 61.5956 13.3588 70.1445 17.4297 75.0295C18.6509 77.8791 19.4659 81.5429 17.8367 88.0563C16.5723 87.5821 16.5353 85.8194 16.4867 83.5065C16.4101 79.8622 16.3049 74.8522 11.3241 71.3657C8.39312 72.0171 9.01732 78.1505 9.6958 81.1358C10.0535 84.3551 11.9828 86.3172 14.0336 88.403C16.6507 91.0646 19.4659 93.9277 19.4659 99.8618C18.0562 99.3919 17.6108 98.1385 17.1094 96.7278C16.3077 94.472 15.363 91.8139 10.1044 91.313C8.15037 97.8263 13.9039 102.983 17.0249 104.747C23.1311 108.004 24.3524 111.26 23.5372 115.331C22.2336 112.074 16.4806 109.089 13.767 108.004C11.1617 114.191 15.6667 118.995 18.245 120.623C18.9827 121.36 21.0548 122.014 23.102 122.66C25.5768 123.441 28.015 124.21 28.015 125.101C28.992 127.381 31.9502 130.122 33.3072 131.207C35.9125 133.161 34.3249 133.65 33.7142 133.243C33.1619 132.875 32.5262 132.256 31.7836 131.534C29.243 129.064 25.4516 125.377 19.4663 126.322C19.1406 133.813 31.2718 136.771 37.3781 137.314C38.5129 139.583 41.9256 141.473 44.6527 142.984C46.817 144.183 48.5496 145.142 48.3694 145.863C45.766 146.42 44.097 145.279 42.043 143.875C39.6007 142.205 36.614 140.163 30.8647 140.163C29.271 141.359 31.1311 143.724 32.4104 145.35L32.4931 145.455C36.0754 150.015 46.4697 149.255 51.219 148.305C54.614 148.662 57.2246 149.804 59.7395 150.904C62.7285 152.211 65.5822 153.459 69.4565 153.26C73.3308 153.459 76.1845 152.211 79.1736 150.904C81.6884 149.804 84.2991 148.662 87.694 148.305C92.4433 149.255 102.838 150.015 106.42 145.455L106.503 145.35C107.782 143.724 109.642 141.359 108.048 140.163C102.299 140.163 99.3124 142.205 96.87 143.875C94.8161 145.279 93.147 146.42 90.5436 145.863C90.3635 145.142 92.096 144.183 94.2603 142.984C96.9875 141.473 100.4 139.583 101.535 137.314C107.641 136.771 119.772 133.813 119.447 126.322C113.461 125.377 109.67 129.064 107.129 131.534C106.387 132.256 105.751 132.875 105.199 133.243C104.588 133.65 103.001 133.161 105.606 131.207C106.963 130.122 109.921 127.381 110.898 125.101C110.898 124.21 113.336 123.441 115.811 122.66C117.858 122.014 119.93 121.36 120.668 120.623C123.246 118.995 127.751 114.191 125.146 108.004C122.432 109.089 116.679 112.074 115.376 115.331C114.561 111.26 115.782 108.004 121.888 104.747C125.009 102.983 130.763 97.8263 128.809 91.313C123.55 91.8139 122.605 94.472 121.804 96.7278C121.302 98.1385 120.857 99.3919 119.447 99.8618C119.447 93.9277 122.262 91.0646 124.879 88.403C126.93 86.3172 128.86 84.3551 129.217 81.1358C129.896 78.1505 130.52 72.0171 127.589 71.3657C122.608 74.8522 122.503 79.8622 122.426 83.5065C122.378 85.8194 122.341 87.5821 121.076 88.0563C119.447 81.5429 120.262 77.8791 121.483 75.0295C125.554 70.1445 129.217 61.5956 124.333 55.8964C119.348 58.1171 119.452 62.5715 119.51 65.0774C119.537 66.2464 119.555 66.9914 119.041 66.8878C117.82 67.2949 117.575 60.1301 119.855 55.8964C121.89 52.1163 122.705 43.4396 117.82 40.8342C114.263 43.5255 115.185 50.8737 115.666 54.714C115.84 56.1016 115.957 57.0312 115.784 57.1177C114.303 55.7607 111.667 51.6627 112.977 46.1263C113.028 45.9134 113.079 45.7001 113.129 45.4866C114.729 38.7592 116.385 31.7906 109.678 29.0287C107.297 30.8806 108.577 35.6207 109.509 39.0706C110.011 40.9293 110.412 42.4135 110.085 42.8697C107.092 40.9992 106.764 36.8084 106.414 32.3506C106.003 27.1062 105.563 21.4921 100.722 18.8515C99.5355 23.2375 100.761 27.0401 101.517 29.3863C102.025 30.9599 102.321 31.8783 101.536 31.8783C99.8239 29.8842 99.3319 26.2114 98.9154 23.1025C98.6517 21.1339 98.4183 19.3915 97.9245 18.4445C96.6511 16.0018 91.2775 10.6284 89.3235 13.5594C89.1878 15.4591 89.6492 19.5027 92.5802 20.4797C93.2587 20.8868 94.4528 22.0267 93.8015 23.3293C85.2706 16.8296 73.7542 14.8702 69.4565 15.1856Z" fill="white"/>
<path d="M94.0738 58.2148L89.3438 71.2226L92.8913 73.1934L97.2272 60.1857L94.0738 58.2148Z" fill="white"/>
<path d="M45.1917 72.3028L41.25 58.9009L47.1626 56.1417C50.316 54.8803 51.6299 57.9812 51.8927 59.6893C52.5234 62.8426 49.0021 65.2077 47.1626 65.996L48.7393 70.7261L45.1917 72.3028Z" fill="white"/>
<path d="M61.7393 61.757L58.5859 62.5454C58.9801 63.8615 60.2415 66.5726 62.1335 66.8879C64.4985 67.2821 68.8344 67.282 69.2286 62.5454C69.544 58.756 65.9438 57.2919 64.1044 57.0335C60.1626 56.6393 63.316 53.4859 64.8927 56.2452L68.0461 55.8444C68.0461 50.7267 58.5859 50.3289 58.5859 56.2386C58.5859 59.7073 61.6079 60.7059 63.7102 60.9687C67.6519 62.1512 63.7102 66.4871 61.7393 61.757Z" fill="white"/>
<path d="M77.7848 62.2033L74.5358 62.2998C74.6397 63.6697 75.2928 66.5877 77.0738 67.2999C79.3001 68.1902 83.5359 69.1164 84.9328 64.5733C86.0504 60.9388 82.8461 58.7394 81.1043 58.094C77.3378 56.8669 81.092 54.4599 82.0429 57.4923L85.2091 57.7744C86.3023 52.7749 77.1455 50.3653 75.8831 56.1386C75.1421 59.5272 77.881 61.1483 79.8786 61.8541C83.4767 63.8514 78.6997 67.2452 77.7848 62.2033Z" fill="white"/>
<path d="M48.8313 60.1166C48.3649 58.2508 45.9161 58.9505 44.75 59.5335L45.9161 63.6162C47.0822 63.227 49.2978 61.9823 48.8313 60.1166Z" fill="white"/>
<path d="M63.4951 119.075C63.7668 119.07 64.0386 119.07 64.3104 119.073C64.459 119.072 64.6077 119.07 64.7609 119.068C65.2521 119.065 65.743 119.067 66.2341 119.07C66.5754 119.07 66.9166 119.069 67.2578 119.068C67.9727 119.066 68.6875 119.068 69.4024 119.072C70.3197 119.077 71.2367 119.074 72.1539 119.069C72.8583 119.066 73.5628 119.067 74.2672 119.069C74.6055 119.07 74.9437 119.069 75.2819 119.067C75.7542 119.065 76.2262 119.068 76.6985 119.073C76.8388 119.071 76.979 119.07 77.1236 119.068C77.5133 119.075 77.5133 119.075 78.153 119.186C78.4554 119.621 78.4554 119.621 78.6753 120.056C79.0464 120.188 79.0464 120.188 79.4697 120.171C79.7101 120.176 79.7101 120.176 79.9554 120.181C80.1279 120.181 80.3003 120.18 80.478 120.179C80.6551 120.182 80.8321 120.185 81.0144 120.187C81.5803 120.195 82.146 120.196 82.7119 120.198C83.0954 120.202 83.4788 120.206 83.8622 120.211C84.8026 120.222 85.7429 120.228 86.6833 120.23C86.4501 120.858 86.2167 121.434 85.8129 121.971C85.3703 122.08 85.3703 122.08 84.835 122.081C84.6346 122.083 84.4341 122.085 84.2276 122.088C84.0111 122.085 83.7946 122.083 83.5715 122.081C83.3494 122.081 83.1272 122.081 82.8984 122.082C82.4282 122.082 81.9584 122.08 81.4882 122.075C80.8858 122.069 80.2836 122.07 79.6811 122.073C79.1065 122.076 78.5318 122.073 77.9572 122.07C77.7406 122.071 77.5241 122.071 77.301 122.072C77.0004 122.068 77.0004 122.068 76.6937 122.064C76.517 122.063 76.3404 122.062 76.1584 122.061C75.5896 121.946 75.5289 121.727 75.1935 121.275C74.76 121.169 74.76 121.169 74.2636 121.185C73.9786 121.181 73.9786 121.181 73.6879 121.178C73.3803 121.18 73.3803 121.18 73.0664 121.182C72.8558 121.182 72.6453 121.181 72.4284 121.18C71.9829 121.18 71.5375 121.181 71.092 121.184C70.4088 121.188 69.7259 121.184 69.0427 121.18C68.6104 121.18 68.1781 121.181 67.7458 121.182C67.5407 121.181 67.3356 121.179 67.1243 121.178C66.9343 121.18 66.7444 121.182 66.5486 121.185C66.3813 121.185 66.2139 121.186 66.0415 121.186C65.591 121.232 65.591 121.232 65.359 121.622C65.0964 121.971 65.0964 121.971 64.6639 122.064C64.406 122.068 64.406 122.068 64.1428 122.072C63.8499 122.079 63.8499 122.079 63.5511 122.086C63.3401 122.087 63.129 122.087 62.9115 122.088C62.6945 122.09 62.4774 122.093 62.2538 122.095C61.7941 122.099 61.3346 122.101 60.8749 122.1C60.4041 122.1 59.9338 122.105 59.4631 122.114C58.7845 122.127 58.1064 122.131 57.4277 122.132C57.1127 122.139 57.1127 122.139 56.7913 122.147C55.3662 122.131 55.3662 122.131 54.8019 121.663C54.1289 120.795 54.1289 120.795 54.1289 120.23C54.2277 120.23 54.3265 120.23 54.4282 120.23C55.4563 120.226 56.4841 120.217 57.5121 120.204C57.8957 120.2 58.2794 120.197 58.663 120.196C59.2145 120.195 59.7657 120.187 60.3172 120.179C60.5745 120.18 60.5745 120.18 60.8371 120.181C61.0775 120.176 61.0775 120.176 61.3228 120.171C61.5339 120.169 61.5339 120.169 61.7492 120.167C62.1835 120.087 62.1835 120.087 62.4437 119.621C62.8333 119.186 62.8333 119.186 63.4951 119.075Z" fill="white"/>
<path d="M63.7162 124.925C65.455 124.905 67.1937 124.889 68.9325 124.88C69.7399 124.875 70.5471 124.869 71.3545 124.859C72.1333 124.85 72.9121 124.844 73.691 124.842C73.9884 124.841 74.2859 124.837 74.5833 124.833C74.9993 124.826 75.4151 124.825 75.8312 124.826C75.9547 124.823 76.0781 124.82 76.2053 124.816C76.5493 124.82 76.5493 124.82 77.121 124.925C77.4181 125.359 77.4181 125.359 77.6433 125.795C77.9786 125.926 77.9786 125.926 78.3578 125.91C78.5006 125.913 78.6435 125.917 78.7907 125.92C79.0208 125.919 79.0208 125.919 79.2556 125.918C79.4133 125.921 79.571 125.923 79.7335 125.926C80.2373 125.934 80.7409 125.935 81.2447 125.937C81.5862 125.941 81.9277 125.945 82.2692 125.95C83.1064 125.961 83.9436 125.966 84.7809 125.969C84.6729 126.195 84.5639 126.419 84.4545 126.644C84.3636 126.832 84.3636 126.832 84.2708 127.023C84.0845 127.362 84.0845 127.362 83.7363 127.71C83.364 127.752 83.364 127.752 82.8978 127.75C82.7235 127.75 82.5493 127.75 82.3698 127.75C82.0869 127.747 82.0869 127.747 81.7983 127.744C81.6055 127.744 81.4128 127.743 81.2143 127.743C80.597 127.741 79.9797 127.736 79.3624 127.732C78.9446 127.73 78.5269 127.729 78.1091 127.727C77.0834 127.723 76.0577 127.717 75.032 127.71C74.8596 127.279 74.8596 127.279 74.6838 126.84C71.8688 126.84 69.0538 126.84 66.1535 126.84C66.0386 127.127 65.9237 127.414 65.8053 127.71C64.6097 127.745 63.4142 127.77 62.2181 127.787C61.8115 127.794 61.4049 127.803 60.9983 127.815C60.4131 127.832 59.8284 127.84 59.243 127.846C59.0618 127.853 58.8806 127.86 58.6939 127.868C57.4578 127.869 57.4578 127.869 56.921 127.403C56.2305 126.512 56.2305 126.512 56.2305 125.969C58.5859 125.912 60.9413 125.854 63.3681 125.795C63.483 125.508 63.5979 125.221 63.7162 124.925Z" fill="white"/>
<path d="M70.5838 76.8789C71.1814 77.1261 71.6579 77.4843 72.156 77.8881C72.2621 77.9733 72.3683 78.0585 72.4776 78.1463C77.8956 82.5803 80.9925 88.8948 81.7724 95.813C81.811 96.2976 81.8281 96.7697 81.8179 97.2553C85.1151 96.675 87.6217 95.4758 90.1741 93.2513C90.3171 93.1297 90.46 93.0081 90.6073 92.8827C92.0828 91.5979 93.4827 90.1688 94.6351 88.5836C94.8398 88.3089 94.8398 88.3089 95.0486 88.0287C95.1635 88.0287 95.2784 88.0287 95.3968 88.0287C95.8297 89.7369 96.004 91.3023 95.9843 93.0664C95.9825 93.296 95.9808 93.5255 95.979 93.7621C95.9538 95.3356 95.8714 96.79 95.3968 98.2999C95.3449 98.4656 95.3449 98.4656 95.292 98.6347C94.1645 102.139 92.1608 105.029 89.3037 107.352C90.9583 108.18 93.6326 107.322 95.2819 106.816C96.5362 106.383 97.7343 105.805 98.9228 105.219C99.2267 105.089 99.2267 105.089 99.5749 105.089C99.6166 106.08 99.5217 106.878 99.1614 107.809C99.1153 107.929 99.0692 108.048 99.0218 108.172C97.7353 111.312 95.311 113.36 92.2504 114.698C87.8235 116.547 83.2249 116.11 78.8285 114.543C78.0763 114.27 78.0763 114.27 77.2916 114.142C76.9581 114.35 76.9581 114.35 76.6714 114.675C74.8939 116.349 72.5469 117.015 70.1514 116.988C67.7652 116.907 65.7009 116.083 64.0351 114.355C63.7233 114.103 63.7233 114.103 63.3272 114.164C62.8173 114.324 62.3139 114.496 61.811 114.676C57.2622 116.294 52.3134 116.47 47.8586 114.418C46.7842 113.858 45.8263 113.193 44.9113 112.401C44.7805 112.289 44.6496 112.177 44.5148 112.061C42.9818 110.646 41.9876 108.833 41.4295 106.83C41.3721 106.658 41.3146 106.485 41.2555 106.308C41.2486 105.902 41.2478 105.495 41.2555 105.089C41.9467 105.305 42.6005 105.565 43.2586 105.866C45.3926 106.843 47.5342 107.553 49.9054 107.548C50.1323 107.549 50.3592 107.549 50.593 107.55C51.1775 107.554 51.1775 107.554 51.7007 107.352C51.489 107.169 51.489 107.169 51.273 106.981C47.7541 103.869 45.5862 100.216 44.9113 95.5145C44.7714 92.9908 44.8018 90.4844 45.4336 88.0287C46.0891 88.2906 46.3985 88.6613 46.8263 89.2147C48.2894 91.0447 49.822 92.7065 51.7007 94.1218C51.903 94.279 51.903 94.279 52.1094 94.4393C52.9815 95.0872 53.9 95.6019 54.8669 96.0911C54.9828 96.1499 55.0986 96.2087 55.218 96.2693C56.2413 96.7719 57.2494 97.0961 58.3922 97.1901C58.5428 97.2031 58.6934 97.2161 58.8485 97.2295C58.9601 97.238 59.0716 97.2466 59.1865 97.2553C59.1784 97.1595 59.1703 97.0637 59.162 96.965C58.9215 91.4238 61.7436 85.3691 65.2796 81.2393C65.3972 81.0983 65.5148 80.9574 65.6359 80.8122C68.9991 76.909 68.9991 76.909 70.5838 76.8789Z" fill="white"/>
<path d="M62.3386 76.8789L59.756 79.4611L61.4777 84.1971L62.3386 82.9041V76.8789Z" fill="white"/>
<path d="M58.4647 80.7522L56.3125 82.4756L58.8951 88.9311L60.1864 85.9167L58.4647 80.7522Z" fill="white"/>
<path d="M77.3997 76.8789L79.9823 79.4611L78.2605 84.1971L77.3997 82.9041V76.8789Z" fill="white"/>
<path d="M81.2736 80.7522L83.4258 82.4756L80.8432 88.9311L79.5518 85.9167L81.2736 80.7522Z" fill="white"/>
<circle cx="70.0662" cy="34.3904" r="10.9998" fill="white"/>
<path d="M66.5409 26.0391L69.6208 28.679V31.3189L67.8608 32.6389L64.7809 31.7589L63.4609 28.679L66.5409 26.0391Z" fill="#F1F1F1"/>
<path d="M68.3108 36.1581L67.4308 33.5181L64.3509 33.0781L61.7109 35.2781L63.4709 39.238H66.5508L68.3108 36.1581Z" fill="#F1F1F1"/>
<path d="M71.8282 37.043H68.7482L66.9883 39.6829L68.3083 42.3229H72.2682L73.1481 39.2429L71.8282 37.043Z" fill="#F1F1F1"/>
<path d="M73.1612 33.9645L72.2812 36.1645L74.4812 38.8044H77.5611L78.8811 34.8445L75.8012 32.6445L73.1612 33.9645Z" fill="#F1F1F1"/>
<path d="M70.5117 28.239V30.879L73.1517 33.0789L76.2316 32.1989L76.6716 28.239L73.5917 26.0391L70.5117 28.239Z" fill="#F1F1F1"/>
</svg>
