<svg width="64" height="78" viewBox="0 0 64 78" fill="none" xmlns="http://www.w3.org/2000/svg">
<mask id="path-1-outside-1_4346_6193" maskUnits="userSpaceOnUse" x="0" y="0" width="64" height="78" fill="black">
<rect fill="white" width="64" height="78"/>
<path fill-rule="evenodd" clip-rule="evenodd" d="M28.68 1.03257C29.5049 1.03281 30.3361 1.16204 31.1169 1.36312C31.3741 1.42668 31.5967 1.46488 31.8199 1.46514C32.02 1.46522 32.2207 1.4348 32.4476 1.36485C33.1994 1.14282 34.0856 1.00322 34.9721 1.00006C34.9822 1.00002 34.9924 1 35.0026 1C36.0147 0.999775 37.0252 1.17818 37.8343 1.61561C38.0143 1.74229 38.0143 1.74229 38.2907 1.98182L38.5487 2.13536C38.661 2.20335 38.7193 2.23862 38.7737 2.27908C38.8323 2.32269 38.8864 2.37233 38.9989 2.47547C39.3341 2.71262 39.5609 2.73692 39.9674 2.77412C40.6404 2.84602 41.2753 2.97888 41.9267 3.16105L42.18 3.22477C43.5325 3.58627 44.753 4.41683 45.5699 5.55598C45.614 5.63357 45.6368 5.67355 45.6485 5.71653C45.6609 5.76222 45.6609 5.81131 45.6609 5.91259L45.8379 5.93486C46.8815 6.10042 47.6989 6.6364 48.5107 7.28836L48.8117 7.50947C49.3437 7.96056 49.7083 8.59318 50.0155 9.21076C50.2627 9.67127 50.6039 9.9665 50.9982 10.3032C52.3725 11.4898 53.5593 12.9016 54.3436 14.5446C54.6909 15.268 55.1021 15.8872 55.5861 16.5257C55.8197 16.8503 56.0474 17.1788 56.274 17.5084L56.3869 17.6711C57.5808 19.3968 58.422 21.2082 59.0993 23.1957L59.2206 23.5512C59.3204 23.8961 59.3723 24.2282 59.4186 24.5838C59.511 24.9687 59.6702 25.2794 59.8781 25.5759C59.9293 25.6461 59.9843 25.7163 60.0435 25.7876C60.0875 25.8425 60.1301 25.8983 60.1715 25.9551C60.1977 25.9866 60.2245 26.0183 60.2516 26.0501C60.3303 26.1574 60.3856 26.2455 60.425 26.3407C61.3016 27.8201 61.4511 29.7746 61.419 31.4319C61.4187 32.1193 61.531 32.5299 61.9156 33.1C62.3602 33.7602 62.5458 34.4459 62.6476 35.2276L62.6849 35.5117C62.8218 36.7173 62.6889 37.8662 62.3915 39.0378C62.1934 39.8183 62.1591 40.3512 62.3774 41.146C62.9222 43.3009 62.8097 46.3972 61.6721 48.3454C61.5133 48.5864 61.4606 48.6663 61.3982 48.7377C61.3673 48.7731 61.334 48.8064 61.2841 48.8563C61.2721 49.0429 61.2664 49.2298 61.2634 49.4167L61.2555 49.7736L61.2473 50.1584C61.2136 51.3789 61.1101 52.5682 60.891 53.7698L60.848 54.0172C60.6964 54.8407 60.4072 55.5644 60.0373 56.3125L59.935 56.5215C59.727 56.9313 59.5047 57.2573 59.1898 57.5961C58.7494 58.1078 58.6744 58.6954 58.5936 59.3286C58.5841 59.4026 58.5746 59.4772 58.5644 59.5523C58.3242 61.1503 57.6534 62.5077 56.5672 63.695L56.3557 63.9307C55.6726 64.6545 54.8779 65.2779 53.9139 65.5621L53.9358 65.8043C53.9074 66.2558 53.7539 66.5872 53.5638 66.9931L53.4554 67.2292C53.3479 67.4606 53.2384 67.6908 53.1278 67.9206L53.0373 68.1097C52.3117 69.6032 51.2068 70.8868 49.7866 71.7531L49.6183 71.8666C49.1135 72.2003 48.6097 72.4125 48.0362 72.6006L47.7961 72.6859C46.3283 73.1755 44.8123 73.2732 43.2764 73.2547C43.0137 73.2516 42.751 73.2507 42.4882 73.2501C42.3192 73.2492 42.1501 73.2482 41.9811 73.2471L41.746 73.2458C41.3674 73.2409 41.0163 73.2146 40.6476 73.1288C40.0771 73.077 39.8227 73.1775 39.3701 73.5219C37.9494 74.3981 36.4198 75.1181 34.8497 75.6838L34.5076 75.8078C32.3077 76.4798 29.7099 76.2548 27.676 75.1925C27.5005 75.1115 27.3245 75.0315 27.1478 74.953C26.358 74.5956 25.5989 74.2126 24.8592 73.7599C24.6516 73.6336 24.4422 73.5122 24.2304 73.3929C24.0276 73.2764 23.9673 73.2418 23.9153 73.1974C23.8933 73.1786 23.8727 73.1581 23.8435 73.1288C23.7005 73.1191 23.5569 73.1161 23.4136 73.1165L23.1779 73.1158C23.0732 73.1178 23.015 73.1189 22.9583 73.1289C22.8873 73.1414 22.8187 73.1677 22.6643 73.2271C22.3997 73.239 22.1378 73.2455 21.8731 73.2471L21.6343 73.2492C18.3159 73.2718 15.1011 73.103 12.5564 70.7003C11.2707 69.4279 10.0831 67.5682 9.87774 65.7367C9.84313 65.6436 9.82432 65.593 9.78904 65.5601C9.74707 65.5209 9.68177 65.5066 9.53878 65.4753L9.20137 65.3656C8.92526 65.1929 8.66972 64.9956 8.41216 64.7967L8.40907 64.7944L8.20236 64.6391C7.81927 64.3477 7.45923 64.0541 7.13771 63.695V63.4984H6.94117C5.97906 62.3954 5.30336 60.7137 5.10092 59.2871L5.06496 59.034C5.04285 58.8694 5.0229 58.7044 5.00541 58.5392C4.93721 58.0014 4.81348 57.7672 4.38617 57.4057C2.86427 55.4912 2.49111 52.7805 2.52366 50.4067L2.52697 50.1377C2.52984 49.9616 2.53411 49.7855 2.53992 49.6094L2.54438 49.3649L2.55096 49.1466C2.51177 48.9108 2.41925 48.83 2.25017 48.6824C2.24172 48.675 2.23308 48.6675 2.22424 48.6598C1.04564 46.7127 1.04068 44.4461 1.22926 42.2477L1.25258 41.9727C1.29977 41.4696 1.37381 40.989 1.49905 40.4992C1.59798 39.9892 1.44626 39.4335 1.30569 38.9185C1.27346 38.8005 1.24181 38.6845 1.21391 38.5718C0.73704 36.3533 1.05054 34.2736 2.22424 32.347L2.32251 32.2488C2.33805 32.0101 2.34789 31.7734 2.35437 31.5344C2.46372 28.451 2.49899 27.4566 2.93789 26.6948C3.14682 26.3321 3.44721 26.0221 3.8906 25.5645C4.16287 25.1673 4.27723 24.7357 4.39804 24.2798C4.41233 24.2258 4.4267 24.1716 4.44144 24.117C4.73175 23.0716 5.0606 22.0477 5.47545 21.0595L5.46875 21.0461C5.57523 20.779 5.68786 20.5245 5.81269 20.2661L5.92185 20.0375C6.1949 19.4761 6.50377 18.9502 6.84919 18.4331L6.92889 18.2945C7.25355 17.7554 7.63024 17.2525 8.01658 16.7567C8.11312 16.6281 8.2102 16.5 8.30728 16.3718C8.35341 16.3109 8.39954 16.25 8.44562 16.189L8.58741 16.0003C8.67686 15.8833 8.77002 15.7691 8.86502 15.6565C9.00017 15.4347 9.08881 15.2262 9.17607 14.9858C9.18152 14.9705 9.18698 14.9551 9.19246 14.9396C9.2003 14.9175 9.20817 14.8952 9.21613 14.8729C9.21656 14.8718 9.21698 14.8707 9.2174 14.8697C9.21774 14.8687 9.21807 14.8678 9.2184 14.8668C9.35453 14.5178 9.54485 14.2007 9.7369 13.8807C9.75083 13.8575 9.76477 13.8342 9.7787 13.811L9.90422 13.5953C10.1623 13.1595 10.4414 12.7803 10.7737 12.3984L10.9702 12.1492C11.3924 11.6157 11.8364 11.1185 12.3153 10.6357L12.4744 10.4738C12.7242 10.2259 12.9485 10.0318 13.2492 9.84337C13.5773 9.60975 13.6769 9.41415 13.8446 9.05107C14.4213 7.91307 15.2913 7.0808 16.418 6.48993L16.6094 6.38667C17.1152 6.11859 17.5606 5.91259 18.1439 5.91259L18.2053 5.66078C18.66 4.52389 19.8435 3.94858 20.8954 3.45586L21.0755 3.35337C21.3508 3.23182 21.628 3.18121 21.9204 3.12782C21.9491 3.12257 21.978 3.11729 22.0071 3.11192C22.3853 3.04155 22.7506 2.96805 23.1195 2.85857C23.5082 2.75215 23.861 2.7442 24.2615 2.74187C24.5712 2.65904 24.7162 2.50154 24.9211 2.27892C24.9343 2.26457 24.9478 2.24996 24.9615 2.23507C25.2291 1.97505 25.5427 1.82308 25.8764 1.66244L26.0885 1.56014C26.8965 1.18363 27.7846 1.03213 28.68 1.03257Z"/>
</mask>
<path fill-rule="evenodd" clip-rule="evenodd" d="M28.68 1.03257C29.5049 1.03281 30.3361 1.16204 31.1169 1.36312C31.3741 1.42668 31.5967 1.46488 31.8199 1.46514C32.02 1.46522 32.2207 1.4348 32.4476 1.36485C33.1994 1.14282 34.0856 1.00322 34.9721 1.00006C34.9822 1.00002 34.9924 1 35.0026 1C36.0147 0.999775 37.0252 1.17818 37.8343 1.61561C38.0143 1.74229 38.0143 1.74229 38.2907 1.98182L38.5487 2.13536C38.661 2.20335 38.7193 2.23862 38.7737 2.27908C38.8323 2.32269 38.8864 2.37233 38.9989 2.47547C39.3341 2.71262 39.5609 2.73692 39.9674 2.77412C40.6404 2.84602 41.2753 2.97888 41.9267 3.16105L42.18 3.22477C43.5325 3.58627 44.753 4.41683 45.5699 5.55598C45.614 5.63357 45.6368 5.67355 45.6485 5.71653C45.6609 5.76222 45.6609 5.81131 45.6609 5.91259L45.8379 5.93486C46.8815 6.10042 47.6989 6.6364 48.5107 7.28836L48.8117 7.50947C49.3437 7.96056 49.7083 8.59318 50.0155 9.21076C50.2627 9.67127 50.6039 9.9665 50.9982 10.3032C52.3725 11.4898 53.5593 12.9016 54.3436 14.5446C54.6909 15.268 55.1021 15.8872 55.5861 16.5257C55.8197 16.8503 56.0474 17.1788 56.274 17.5084L56.3869 17.6711C57.5808 19.3968 58.422 21.2082 59.0993 23.1957L59.2206 23.5512C59.3204 23.8961 59.3723 24.2282 59.4186 24.5838C59.511 24.9687 59.6702 25.2794 59.8781 25.5759C59.9293 25.6461 59.9843 25.7163 60.0435 25.7876C60.0875 25.8425 60.1301 25.8983 60.1715 25.9551C60.1977 25.9866 60.2245 26.0183 60.2516 26.0501C60.3303 26.1574 60.3856 26.2455 60.425 26.3407C61.3016 27.8201 61.4511 29.7746 61.419 31.4319C61.4187 32.1193 61.531 32.5299 61.9156 33.1C62.3602 33.7602 62.5458 34.4459 62.6476 35.2276L62.6849 35.5117C62.8218 36.7173 62.6889 37.8662 62.3915 39.0378C62.1934 39.8183 62.1591 40.3512 62.3774 41.146C62.9222 43.3009 62.8097 46.3972 61.6721 48.3454C61.5133 48.5864 61.4606 48.6663 61.3982 48.7377C61.3673 48.7731 61.334 48.8064 61.2841 48.8563C61.2721 49.0429 61.2664 49.2298 61.2634 49.4167L61.2555 49.7736L61.2473 50.1584C61.2136 51.3789 61.1101 52.5682 60.891 53.7698L60.848 54.0172C60.6964 54.8407 60.4072 55.5644 60.0373 56.3125L59.935 56.5215C59.727 56.9313 59.5047 57.2573 59.1898 57.5961C58.7494 58.1078 58.6744 58.6954 58.5936 59.3286C58.5841 59.4026 58.5746 59.4772 58.5644 59.5523C58.3242 61.1503 57.6534 62.5077 56.5672 63.695L56.3557 63.9307C55.6726 64.6545 54.8779 65.2779 53.9139 65.5621L53.9358 65.8043C53.9074 66.2558 53.7539 66.5872 53.5638 66.9931L53.4554 67.2292C53.3479 67.4606 53.2384 67.6908 53.1278 67.9206L53.0373 68.1097C52.3117 69.6032 51.2068 70.8868 49.7866 71.7531L49.6183 71.8666C49.1135 72.2003 48.6097 72.4125 48.0362 72.6006L47.7961 72.6859C46.3283 73.1755 44.8123 73.2732 43.2764 73.2547C43.0137 73.2516 42.751 73.2507 42.4882 73.2501C42.3192 73.2492 42.1501 73.2482 41.9811 73.2471L41.746 73.2458C41.3674 73.2409 41.0163 73.2146 40.6476 73.1288C40.0771 73.077 39.8227 73.1775 39.3701 73.5219C37.9494 74.3981 36.4198 75.1181 34.8497 75.6838L34.5076 75.8078C32.3077 76.4798 29.7099 76.2548 27.676 75.1925C27.5005 75.1115 27.3245 75.0315 27.1478 74.953C26.358 74.5956 25.5989 74.2126 24.8592 73.7599C24.6516 73.6336 24.4422 73.5122 24.2304 73.3929C24.0276 73.2764 23.9673 73.2418 23.9153 73.1974C23.8933 73.1786 23.8727 73.1581 23.8435 73.1288C23.7005 73.1191 23.5569 73.1161 23.4136 73.1165L23.1779 73.1158C23.0732 73.1178 23.015 73.1189 22.9583 73.1289C22.8873 73.1414 22.8187 73.1677 22.6643 73.2271C22.3997 73.239 22.1378 73.2455 21.8731 73.2471L21.6343 73.2492C18.3159 73.2718 15.1011 73.103 12.5564 70.7003C11.2707 69.4279 10.0831 67.5682 9.87774 65.7367C9.84313 65.6436 9.82432 65.593 9.78904 65.5601C9.74707 65.5209 9.68177 65.5066 9.53878 65.4753L9.20137 65.3656C8.92526 65.1929 8.66972 64.9956 8.41216 64.7967L8.40907 64.7944L8.20236 64.6391C7.81927 64.3477 7.45923 64.0541 7.13771 63.695V63.4984H6.94117C5.97906 62.3954 5.30336 60.7137 5.10092 59.2871L5.06496 59.034C5.04285 58.8694 5.0229 58.7044 5.00541 58.5392C4.93721 58.0014 4.81348 57.7672 4.38617 57.4057C2.86427 55.4912 2.49111 52.7805 2.52366 50.4067L2.52697 50.1377C2.52984 49.9616 2.53411 49.7855 2.53992 49.6094L2.54438 49.3649L2.55096 49.1466C2.51177 48.9108 2.41925 48.83 2.25017 48.6824C2.24172 48.675 2.23308 48.6675 2.22424 48.6598C1.04564 46.7127 1.04068 44.4461 1.22926 42.2477L1.25258 41.9727C1.29977 41.4696 1.37381 40.989 1.49905 40.4992C1.59798 39.9892 1.44626 39.4335 1.30569 38.9185C1.27346 38.8005 1.24181 38.6845 1.21391 38.5718C0.73704 36.3533 1.05054 34.2736 2.22424 32.347L2.32251 32.2488C2.33805 32.0101 2.34789 31.7734 2.35437 31.5344C2.46372 28.451 2.49899 27.4566 2.93789 26.6948C3.14682 26.3321 3.44721 26.0221 3.8906 25.5645C4.16287 25.1673 4.27723 24.7357 4.39804 24.2798C4.41233 24.2258 4.4267 24.1716 4.44144 24.117C4.73175 23.0716 5.0606 22.0477 5.47545 21.0595L5.46875 21.0461C5.57523 20.779 5.68786 20.5245 5.81269 20.2661L5.92185 20.0375C6.1949 19.4761 6.50377 18.9502 6.84919 18.4331L6.92889 18.2945C7.25355 17.7554 7.63024 17.2525 8.01658 16.7567C8.11312 16.6281 8.2102 16.5 8.30728 16.3718C8.35341 16.3109 8.39954 16.25 8.44562 16.189L8.58741 16.0003C8.67686 15.8833 8.77002 15.7691 8.86502 15.6565C9.00017 15.4347 9.08881 15.2262 9.17607 14.9858C9.18152 14.9705 9.18698 14.9551 9.19246 14.9396C9.2003 14.9175 9.20817 14.8952 9.21613 14.8729C9.21656 14.8718 9.21698 14.8707 9.2174 14.8697C9.21774 14.8687 9.21807 14.8678 9.2184 14.8668C9.35453 14.5178 9.54485 14.2007 9.7369 13.8807C9.75083 13.8575 9.76477 13.8342 9.7787 13.811L9.90422 13.5953C10.1623 13.1595 10.4414 12.7803 10.7737 12.3984L10.9702 12.1492C11.3924 11.6157 11.8364 11.1185 12.3153 10.6357L12.4744 10.4738C12.7242 10.2259 12.9485 10.0318 13.2492 9.84337C13.5773 9.60975 13.6769 9.41415 13.8446 9.05107C14.4213 7.91307 15.2913 7.0808 16.418 6.48993L16.6094 6.38667C17.1152 6.11859 17.5606 5.91259 18.1439 5.91259L18.2053 5.66078C18.66 4.52389 19.8435 3.94858 20.8954 3.45586L21.0755 3.35337C21.3508 3.23182 21.628 3.18121 21.9204 3.12782C21.9491 3.12257 21.978 3.11729 22.0071 3.11192C22.3853 3.04155 22.7506 2.96805 23.1195 2.85857C23.5082 2.75215 23.861 2.7442 24.2615 2.74187C24.5712 2.65904 24.7162 2.50154 24.9211 2.27892C24.9343 2.26457 24.9478 2.24996 24.9615 2.23507C25.2291 1.97505 25.5427 1.82308 25.8764 1.66244L26.0885 1.56014C26.8965 1.18363 27.7846 1.03213 28.68 1.03257Z" fill="#923232"/>
<path d="M28.68 1.03257L28.6795 2.03257L28.6797 2.03257L28.68 1.03257ZM31.1169 1.36312L30.8675 2.33157L30.877 2.33393L31.1169 1.36312ZM31.8199 1.46514L31.8187 2.46514L31.8196 2.46514L31.8199 1.46514ZM32.4476 1.36485L32.1643 0.405735L32.153 0.409245L32.4476 1.36485ZM34.9721 1.00006L34.9757 2.00005L34.9757 2.00005L34.9721 1.00006ZM35.0026 1L35.0026 2L35.0028 2L35.0026 1ZM37.8343 1.61561L38.4098 0.797777L38.3616 0.763919L38.3099 0.735938L37.8343 1.61561ZM38.2907 1.98182L37.6358 2.73751L37.7029 2.79568L37.7792 2.84111L38.2907 1.98182ZM38.5487 2.13536L39.0665 1.27984L39.0602 1.27607L38.5487 2.13536ZM38.7737 2.27908L39.3705 1.47667L39.3704 1.47666L38.7737 2.27908ZM38.9989 2.47547L38.3232 3.21257L38.3697 3.25525L38.4213 3.29174L38.9989 2.47547ZM39.9674 2.77412L40.0737 1.77977L40.0661 1.77897L40.0585 1.77827L39.9674 2.77412ZM41.9267 3.16105L41.6574 4.1241L41.67 4.12764L41.6828 4.13085L41.9267 3.16105ZM42.18 3.22477L42.4383 2.25869L42.4311 2.25678L42.424 2.25498L42.18 3.22477ZM45.5699 5.55598L46.4393 5.06187L46.4133 5.01603L46.3826 4.97319L45.5699 5.55598ZM45.6485 5.71653L46.6133 5.45371L46.6133 5.45364L45.6485 5.71653ZM45.6609 5.91259H44.6609V6.79466L45.5361 6.90477L45.6609 5.91259ZM45.8379 5.93486L45.9946 4.94721L45.9787 4.94469L45.9627 4.94268L45.8379 5.93486ZM48.5107 7.28836L47.8846 8.06805L47.9013 8.08151L47.9187 8.09424L48.5107 7.28836ZM48.8117 7.50947L49.4584 6.74671L49.4318 6.7242L49.4038 6.70359L48.8117 7.50947ZM50.0155 9.21076L49.1201 9.65609L49.127 9.67003L49.1344 9.68375L50.0155 9.21076ZM50.9982 10.3032L51.6517 9.5463L51.6477 9.54286L50.9982 10.3032ZM54.3436 14.5446L53.4411 14.9753L53.442 14.9773L54.3436 14.5446ZM55.5861 16.5257L56.3978 15.9416L56.3905 15.9314L56.383 15.9215L55.5861 16.5257ZM56.274 17.5084L55.4501 18.0751L55.4524 18.0785L56.274 17.5084ZM56.3869 17.6711L57.2093 17.1021L57.2085 17.101L56.3869 17.6711ZM59.0993 23.1957L58.1527 23.5183L58.1528 23.5187L59.0993 23.1957ZM59.2206 23.5512L60.1811 23.2731L60.1746 23.2505L60.167 23.2282L59.2206 23.5512ZM59.4186 24.5838L58.427 24.713L58.4339 24.7655L58.4462 24.817L59.4186 24.5838ZM59.8781 25.5759L59.0592 26.1499L59.0645 26.1574L59.0698 26.1647L59.8781 25.5759ZM60.0435 25.7876L60.8238 25.1622L60.8184 25.1554L60.8128 25.1488L60.0435 25.7876ZM60.1715 25.9551L59.3632 26.5439L59.3824 26.5702L59.4032 26.5952L60.1715 25.9551ZM60.2516 26.0501L61.0581 25.4589L61.0364 25.4293L61.0126 25.4014L60.2516 26.0501ZM60.425 26.3407L59.5009 26.723L59.5282 26.789L59.5647 26.8505L60.425 26.3407ZM61.419 31.4319L60.4191 31.4126L60.419 31.4221L60.419 31.4316L61.419 31.4319ZM61.9156 33.1L62.745 32.5414L62.7446 32.5408L61.9156 33.1ZM62.6476 35.2276L61.656 35.3567L61.6561 35.3576L62.6476 35.2276ZM62.6849 35.5117L63.6785 35.3989L63.6775 35.3903L63.6764 35.3817L62.6849 35.5117ZM62.3915 39.0378L61.4222 38.7917L61.4222 38.7918L62.3915 39.0378ZM62.3774 41.146L63.3469 40.9009L63.3444 40.891L63.3417 40.8812L62.3774 41.146ZM61.6721 48.3454L62.5071 48.8958L62.522 48.8731L62.5357 48.8497L61.6721 48.3454ZM61.3982 48.7377L62.1514 49.3956L62.1514 49.3956L61.3982 48.7377ZM61.2841 48.8563L60.577 48.1492L60.3105 48.4157L60.2862 48.7919L61.2841 48.8563ZM61.2634 49.4167L62.2632 49.4387L62.2633 49.433L61.2634 49.4167ZM61.2555 49.7736L60.2558 49.7516L60.2558 49.7521L61.2555 49.7736ZM61.2473 50.1584L62.2469 50.186L62.247 50.1799L61.2473 50.1584ZM60.891 53.7698L59.9072 53.5904L59.9058 53.5984L60.891 53.7698ZM60.848 54.0172L61.8315 54.1983L61.8332 54.1886L60.848 54.0172ZM60.0373 56.3125L59.1409 55.8693L59.1392 55.8727L60.0373 56.3125ZM59.935 56.5215L60.8267 56.9741L60.8299 56.9678L60.833 56.9613L59.935 56.5215ZM59.1898 57.5961L58.4574 56.9153L58.4443 56.9293L58.4318 56.9438L59.1898 57.5961ZM58.5936 59.3286L57.6016 59.202L57.6016 59.202L58.5936 59.3286ZM58.5644 59.5523L59.5533 59.701L59.5544 59.6938L59.5554 59.6867L58.5644 59.5523ZM56.5672 63.695L55.8293 63.0199L55.8229 63.0271L56.5672 63.695ZM56.3557 63.9307L57.083 64.617L57.0916 64.6079L57.0999 64.5986L56.3557 63.9307ZM53.9139 65.5621L53.6311 64.6029L52.8442 64.8349L52.918 65.6521L53.9139 65.5621ZM53.9358 65.8043L54.9338 65.8672L54.9386 65.7907L54.9317 65.7143L53.9358 65.8043ZM53.5638 66.9931L52.6581 66.5692L52.6551 66.5757L53.5638 66.9931ZM53.4554 67.2292L54.3623 67.6504L54.3641 67.6467L53.4554 67.2292ZM53.1278 67.9206L52.2268 67.4868L52.2257 67.489L53.1278 67.9206ZM53.0373 68.1097L53.9368 68.5467L53.9393 68.5413L53.0373 68.1097ZM49.7866 71.7531L49.2659 70.8993L49.2463 70.9113L49.2273 70.9241L49.7866 71.7531ZM49.6183 71.8666L50.1697 72.7009L50.1775 72.6956L49.6183 71.8666ZM48.0362 72.6006L47.7245 71.6504L47.7131 71.6542L47.7017 71.6582L48.0362 72.6006ZM47.7961 72.6859L48.1125 73.6345L48.1216 73.6314L48.1306 73.6283L47.7961 72.6859ZM43.2764 73.2547L43.2884 72.2548L43.2883 72.2548L43.2764 73.2547ZM42.4882 73.2501L42.4829 74.2501L42.486 74.2501L42.4882 73.2501ZM41.9811 73.2471L41.9879 72.2471L41.9865 72.2471L41.9811 73.2471ZM41.746 73.2458L41.733 74.2457L41.7406 74.2458L41.746 73.2458ZM40.6476 73.1288L40.8741 72.1548L40.8068 72.1392L40.7381 72.1329L40.6476 73.1288ZM39.3701 73.5219L39.895 74.373L39.9366 74.3474L39.9756 74.3177L39.3701 73.5219ZM34.8497 75.6838L34.5107 74.743L34.5089 74.7437L34.8497 75.6838ZM34.5076 75.8078L34.7998 76.7642L34.8243 76.7567L34.8484 76.748L34.5076 75.8078ZM27.676 75.1925L28.139 74.3061L28.1172 74.2948L28.095 74.2845L27.676 75.1925ZM27.1478 74.953L26.7356 75.8641L26.7415 75.8667L27.1478 74.953ZM24.8592 73.7599L25.3812 72.907L25.3792 72.9057L24.8592 73.7599ZM24.2304 73.3929L23.7323 74.2601L23.7397 74.2642L24.2304 73.3929ZM23.9153 73.1974L24.5644 72.4367L24.5644 72.4367L23.9153 73.1974ZM23.8435 73.1288L24.5506 72.4217L24.2853 72.1564L23.911 72.1311L23.8435 73.1288ZM23.4136 73.1165L23.4103 74.1166L23.4168 74.1165L23.4136 73.1165ZM23.1779 73.1158L23.1811 72.1158L23.1698 72.1158L23.1585 72.116L23.1779 73.1158ZM22.9583 73.1289L23.1315 74.1138L23.1315 74.1138L22.9583 73.1289ZM22.6643 73.2271L22.7093 74.2261L22.8715 74.2188L23.023 74.1606L22.6643 73.2271ZM21.8731 73.2471L21.8674 72.2471L21.8642 72.2471L21.8731 73.2471ZM21.6343 73.2492L21.6411 74.2492L21.6431 74.2491L21.6343 73.2492ZM12.5564 70.7003L11.853 71.4111L11.8614 71.4193L11.8699 71.4274L12.5564 70.7003ZM9.87774 65.7367L10.8715 65.6253L10.8578 65.5034L10.8151 65.3883L9.87774 65.7367ZM9.78904 65.5601L10.4718 64.8295L10.4718 64.8294L9.78904 65.5601ZM9.53878 65.4753L9.22938 66.4263L9.27668 66.4417L9.32528 66.4523L9.53878 65.4753ZM9.20137 65.3656L8.67128 66.2135L8.7753 66.2785L8.89196 66.3165L9.20137 65.3656ZM8.41216 64.7967L9.02334 64.0053L9.02244 64.0046L8.41216 64.7967ZM8.40907 64.7944L9.01939 64.0021L9.00966 63.9948L8.40907 64.7944ZM8.20236 64.6391L7.59692 65.435L7.60176 65.4386L8.20236 64.6391ZM7.13771 63.695H6.13771V64.0772L6.39267 64.362L7.13771 63.695ZM7.13771 63.4984H8.13771V62.4984H7.13771V63.4984ZM6.94117 63.4984L6.18756 64.1558L6.48645 64.4984H6.94117V63.4984ZM5.10092 59.2871L6.09101 59.1466L6.09097 59.1463L5.10092 59.2871ZM5.06496 59.034L4.07382 59.1671L4.07491 59.1747L5.06496 59.034ZM5.00541 58.5392L5.99986 58.4339L5.99877 58.4236L5.99747 58.4133L5.00541 58.5392ZM4.38617 57.4057L3.60336 58.028L3.66487 58.1054L3.74033 58.1692L4.38617 57.4057ZM2.52366 50.4067L3.52356 50.4204L3.52358 50.419L2.52366 50.4067ZM2.52697 50.1377L1.52709 50.1214L1.52704 50.1254L2.52697 50.1377ZM2.53992 49.6094L3.53938 49.6424L3.53962 49.635L3.53976 49.6276L2.53992 49.6094ZM2.54438 49.3649L1.54477 49.3348L1.54455 49.3467L2.54438 49.3649ZM2.55096 49.1466L3.55051 49.1767L3.55345 49.0791L3.53744 48.9827L2.55096 49.1466ZM2.25017 48.6824L1.59252 49.4358L1.59258 49.4358L2.25017 48.6824ZM2.22424 48.6598L1.36876 49.1776L1.44891 49.31L1.56534 49.412L2.22424 48.6598ZM1.22926 42.2477L2.22561 42.3332L2.22569 42.3322L1.22926 42.2477ZM1.25258 41.9727L0.256914 41.8793L0.256161 41.8882L1.25258 41.9727ZM1.49905 40.4992L2.46788 40.7469L2.47516 40.7184L2.48075 40.6896L1.49905 40.4992ZM1.30569 38.9185L2.27039 38.6552L2.27039 38.6552L1.30569 38.9185ZM1.21391 38.5718L0.236241 38.782L0.239491 38.7971L0.243205 38.8121L1.21391 38.5718ZM2.22424 32.347L1.51713 31.6399L1.43251 31.7246L1.37024 31.8268L2.22424 32.347ZM2.32251 32.2488L3.02962 32.9559L3.29593 32.6896L3.3204 32.3138L2.32251 32.2488ZM2.35437 31.5344L1.35497 31.499L1.35474 31.5073L2.35437 31.5344ZM2.93789 26.6948L3.80439 27.1939L3.80439 27.1939L2.93789 26.6948ZM3.8906 25.5645L4.60873 26.2605L4.6676 26.1997L4.71543 26.1299L3.8906 25.5645ZM4.39804 24.2798L5.36468 24.5359L5.36468 24.5359L4.39804 24.2798ZM4.44144 24.117L3.47788 23.8494L3.47602 23.8563L4.44144 24.117ZM5.47545 21.0595L6.3975 21.4465L6.57527 21.023L6.36988 20.6123L5.47545 21.0595ZM5.46875 21.0461L4.53985 20.6757L4.3738 21.0922L4.57432 21.4933L5.46875 21.0461ZM5.81269 20.2661L6.71315 20.701L6.71508 20.697L5.81269 20.2661ZM5.92185 20.0375L5.02255 19.6001L5.01947 19.6065L5.92185 20.0375ZM6.84919 18.4331L7.68071 18.9886L7.69936 18.9607L7.71609 18.9316L6.84919 18.4331ZM6.92889 18.2945L6.07224 17.7786L6.06702 17.7873L6.06198 17.7961L6.92889 18.2945ZM8.01658 16.7567L8.80539 17.3713L8.81083 17.3643L8.81613 17.3573L8.01658 16.7567ZM8.30728 16.3718L7.51012 15.768L7.51012 15.768L8.30728 16.3718ZM8.44562 16.189L9.24332 16.7921L9.24511 16.7897L8.44562 16.189ZM8.58741 16.0003L7.79291 15.393L7.78792 15.3996L8.58741 16.0003ZM8.86502 15.6565L9.62924 16.3015L9.67891 16.2426L9.71899 16.1769L8.86502 15.6565ZM9.17607 14.9858L10.116 15.3271L10.1184 15.3205L9.17607 14.9858ZM9.19246 14.9396L8.24979 14.6059L8.24978 14.6059L9.19246 14.9396ZM9.21613 14.8729L8.28686 14.5035L8.28017 14.5203L8.2741 14.5373L9.21613 14.8729ZM9.2174 14.8697L10.1464 15.2398L10.1543 15.2199L10.1613 15.1998L9.2174 14.8697ZM9.2184 14.8668L8.28677 14.5034L8.28027 14.5201L8.27436 14.537L9.2184 14.8668ZM9.7369 13.8807L10.5943 14.3953L10.5943 14.3953L9.7369 13.8807ZM9.7787 13.811L10.6367 14.3249L10.643 14.3139L9.7787 13.811ZM9.90422 13.5953L9.04383 13.0856L9.03988 13.0923L9.90422 13.5953ZM10.7737 12.3984L11.5281 13.0547L11.5439 13.0366L11.5588 13.0177L10.7737 12.3984ZM10.9702 12.1492L10.186 11.5287L10.1851 11.5299L10.9702 12.1492ZM12.3153 10.6357L13.0253 11.3399L13.0283 11.3368L12.3153 10.6357ZM12.4744 10.4738L11.7699 9.764L11.7613 9.77273L12.4744 10.4738ZM13.2492 9.84337L13.7802 10.6907L13.8052 10.6751L13.8293 10.6579L13.2492 9.84337ZM13.8446 9.05107L12.9526 8.59904L12.9443 8.61531L12.9367 8.63187L13.8446 9.05107ZM16.418 6.48993L16.8825 7.37559L16.8929 7.36997L16.418 6.48993ZM16.6094 6.38667L16.1411 5.50305L16.1345 5.50662L16.6094 6.38667ZM18.1439 5.91259V6.91259H18.9293L19.1154 6.14955L18.1439 5.91259ZM18.2053 5.66078L17.2768 5.28939L17.2505 5.35508L17.2338 5.42382L18.2053 5.66078ZM20.8954 3.45586L21.3196 4.36143L21.3556 4.34457L21.3902 4.3249L20.8954 3.45586ZM21.0755 3.35337L20.6716 2.43854L20.625 2.45912L20.5807 2.48433L21.0755 3.35337ZM21.9204 3.12782L21.7407 2.14408L21.7407 2.14408L21.9204 3.12782ZM22.0071 3.11192L22.1889 4.09524L22.19 4.09505L22.0071 3.11192ZM23.1195 2.85857L22.8555 1.89406L22.8452 1.89687L22.835 1.89989L23.1195 2.85857ZM24.2615 2.74187L24.2673 3.74185L24.3958 3.74111L24.5199 3.70792L24.2615 2.74187ZM24.9211 2.27892L25.6569 2.95613L25.6569 2.95612L24.9211 2.27892ZM24.9615 2.23507L24.2646 1.51795L24.2454 1.53657L24.2273 1.55618L24.9615 2.23507ZM25.8764 1.66244L26.3102 2.56348L26.311 2.5631L25.8764 1.66244ZM26.0885 1.56014L25.6661 0.653632L25.654 0.659486L26.0885 1.56014ZM28.6797 2.03257C29.4033 2.03278 30.1495 2.1466 30.8675 2.33152L31.3663 0.394726C30.5228 0.177478 29.6065 0.0328406 28.6803 0.0325712L28.6797 2.03257ZM30.877 2.33393C31.1706 2.40647 31.4811 2.46474 31.8187 2.46514L31.8211 0.465145C31.7122 0.465016 31.5777 0.446897 31.3568 0.392323L30.877 2.33393ZM31.8196 2.46514C32.129 2.46526 32.4292 2.41697 32.7423 2.32046L32.153 0.409245C32.0123 0.452629 31.911 0.465177 31.8203 0.465144L31.8196 2.46514ZM32.7308 2.3239C33.3937 2.12813 34.1859 2.00287 34.9757 2.00005L34.9685 6.15038e-05C33.9854 0.00356983 33.0051 0.157505 32.1644 0.405803L32.7308 2.3239ZM34.9757 2.00005C34.9846 2.00002 34.9936 2 35.0026 2L35.0025 2.13975e-07C34.9912 5.99537e-07 34.9799 2.10648e-05 34.9685 6.1505e-05L34.9757 2.00005ZM35.0028 2C35.9144 1.9998 36.7443 2.16309 37.3587 2.49529L38.3099 0.735938C37.3061 0.193278 36.115 -0.000247611 35.0023 2.38207e-07L35.0028 2ZM37.2588 2.43345C37.3532 2.49986 37.3722 2.51362 37.4006 2.53636C37.439 2.5672 37.4902 2.6113 37.6358 2.73751L38.9456 1.22613C38.8149 1.1128 38.7279 1.03714 38.6522 0.976423C38.5664 0.907618 38.4954 0.858041 38.4098 0.797777L37.2588 2.43345ZM37.7792 2.84111L38.0372 2.99466L39.0602 1.27607L38.8022 1.12253L37.7792 2.84111ZM38.0309 2.99086C38.1581 3.06785 38.1693 3.07584 38.1769 3.0815L39.3704 1.47666C39.2692 1.4014 39.1639 1.33885 39.0665 1.27986L38.0309 2.99086ZM38.1769 3.08148C38.1848 3.0874 38.1959 3.09586 38.3232 3.21257L39.6747 1.73837C39.577 1.64879 39.4798 1.55798 39.3705 1.47667L38.1769 3.08148ZM38.4213 3.29174C38.672 3.46918 38.9183 3.59026 39.1956 3.66516C39.4432 3.73206 39.6899 3.7529 39.8763 3.76996L40.0585 1.77827C39.8384 1.75814 39.7685 1.74823 39.7172 1.73439C39.6956 1.72855 39.661 1.71891 39.5766 1.6592L38.4213 3.29174ZM39.8612 3.76846C40.4687 3.83336 41.0483 3.95377 41.6574 4.1241L42.196 2.198C41.5023 2.004 40.8122 1.85868 40.0737 1.77977L39.8612 3.76846ZM41.6828 4.13085L41.9361 4.19457L42.424 2.25498L42.1706 2.19126L41.6828 4.13085ZM41.9218 4.19086C43.0559 4.49398 44.0783 5.19203 44.7573 6.13877L46.3826 4.97319C45.4276 3.64163 44.0091 2.67855 42.4383 2.25869L41.9218 4.19086ZM44.7005 6.05009C44.7123 6.0707 44.7193 6.08313 44.7249 6.09328C44.7305 6.10323 44.7308 6.10405 44.7287 6.09997C44.7234 6.08949 44.7015 6.04479 44.6836 5.97942L46.6133 5.45364C46.5608 5.26104 46.459 5.09643 46.4393 5.06187L44.7005 6.05009ZM44.6836 5.97934C44.6744 5.94563 44.6687 5.9151 44.6652 5.88968C44.6618 5.86576 44.6609 5.84911 44.6606 5.84442C44.6604 5.84035 44.6606 5.84219 44.6608 5.8556C44.6609 5.86917 44.6609 5.88583 44.6609 5.91259H46.6609C46.6609 5.86703 46.6692 5.65889 46.6133 5.45371L44.6836 5.97934ZM45.5361 6.90477L45.713 6.92703L45.9627 4.94268L45.7857 4.92041L45.5361 6.90477ZM45.6812 6.92251C46.4612 7.04624 47.1107 7.44654 47.8846 8.06805L49.1369 6.50867C48.2872 5.82627 47.3019 5.15459 45.9946 4.94721L45.6812 6.92251ZM47.9187 8.09424L48.2196 8.31535L49.4038 6.70359L49.1028 6.48248L47.9187 8.09424ZM48.165 8.27223C48.5313 8.58275 48.8215 9.05565 49.1201 9.65609L50.9108 8.76542C50.5951 8.1307 50.1562 7.33838 49.4584 6.74671L48.165 8.27223ZM49.1344 9.68375C49.482 10.3312 49.9654 10.7362 50.3487 11.0636L51.6477 9.54286C51.2425 9.19676 51.0434 9.01137 50.8965 8.73777L49.1344 9.68375ZM50.3447 11.0602C51.6404 12.1788 52.7296 13.4847 53.4411 14.9753L55.246 14.1138C54.3891 12.3184 53.1047 10.8008 51.6517 9.54631L50.3447 11.0602ZM53.442 14.9773C53.8281 15.7814 54.2809 16.4593 54.7893 17.1298L56.383 15.9215C55.9233 15.3152 55.5537 14.7546 55.2451 14.1118L53.442 14.9773ZM54.7745 17.1098C55.0016 17.4254 55.2243 17.7467 55.4501 18.0751L57.0979 16.9417C56.8705 16.611 56.6379 16.2752 56.3978 15.9416L54.7745 17.1098ZM55.4524 18.0785L55.5653 18.2412L57.2085 17.101L57.0956 16.9383L55.4524 18.0785ZM55.5645 18.24C56.6945 19.8733 57.4981 21.5971 58.1527 23.5183L60.0458 22.8732C59.346 20.8194 58.4671 18.9203 57.2093 17.1021L55.5645 18.24ZM58.1528 23.5187L58.2741 23.8741L60.167 23.2282L60.0457 22.8727L58.1528 23.5187ZM58.26 23.8293C58.3381 24.099 58.3823 24.3699 58.427 24.713L60.4102 24.4545C60.3623 24.0864 60.3028 23.6933 60.1811 23.2731L58.26 23.8293ZM58.4462 24.817C58.5739 25.3492 58.7957 25.7738 59.0592 26.1499L60.697 25.0019C60.5448 24.7849 60.4481 24.5882 60.391 24.3505L58.4462 24.817ZM59.0698 26.1647C59.1353 26.2545 59.2036 26.3414 59.2741 26.4264L60.8128 25.1488C60.7651 25.0912 60.7233 25.0378 60.6864 24.9871L59.0698 26.1647ZM59.2631 26.4129C59.2974 26.4556 59.3307 26.4993 59.3632 26.5439L60.9798 25.3663C60.9295 25.2973 60.8776 25.2293 60.8238 25.1622L59.2631 26.4129ZM59.4032 26.5952C59.4322 26.63 59.4614 26.6646 59.4906 26.6989L61.0126 25.4014C60.9875 25.3719 60.9633 25.3432 60.9398 25.315L59.4032 26.5952ZM59.4451 26.6414C59.5039 26.7216 59.506 26.7353 59.5009 26.723L61.349 25.9584C61.2652 25.7558 61.1566 25.5932 61.0581 25.4589L59.4451 26.6414ZM59.5647 26.8505C60.2897 28.0742 60.4507 29.7842 60.4191 31.4126L62.4188 31.4513C62.4515 29.7649 62.3134 27.566 61.2853 25.831L59.5647 26.8505ZM60.419 31.4316C60.4188 31.8287 60.4507 32.2068 60.5633 32.591C60.6767 32.9782 60.856 33.3174 61.0866 33.6592L62.7446 32.5408C62.5905 32.3124 62.5214 32.1613 62.4826 32.0289C62.443 31.8934 62.4189 31.7225 62.419 31.4322L60.419 31.4316ZM61.0861 33.6586C61.4125 34.1432 61.5653 34.6606 61.656 35.3567L63.6392 35.0984C63.5263 34.2312 63.3079 33.3773 62.745 32.5414L61.0861 33.6586ZM61.6561 35.3576L61.6934 35.6417L63.6764 35.3817L63.6391 35.0976L61.6561 35.3576ZM61.6913 35.6246C61.8112 36.6808 61.6981 37.7049 61.4222 38.7917L63.3607 39.2838C63.6796 38.0275 63.8324 36.7539 63.6785 35.3989L61.6913 35.6246ZM61.4222 38.7918C61.1916 39.7006 61.1393 40.4137 61.4131 41.4108L63.3417 40.8812C63.179 40.2887 63.1952 39.9359 63.3607 39.2837L61.4222 38.7918ZM61.4079 41.3911C61.6513 42.3538 61.7531 43.5564 61.6588 44.744C61.5638 45.9392 61.2768 47.0393 60.8085 47.8412L62.5357 48.8497C63.2051 47.7033 63.543 46.2811 63.6525 44.9024C63.7626 43.516 63.6483 42.0931 63.3469 40.9009L61.4079 41.3911ZM60.8372 47.7951C60.7548 47.92 60.7094 47.9888 60.6765 48.0364C60.6614 48.0582 60.6532 48.0694 60.6489 48.075C60.647 48.0776 60.646 48.0788 60.6457 48.0792C60.6454 48.0795 60.6453 48.0796 60.6451 48.0798L62.1514 49.3956C62.2699 49.2599 62.3679 49.1069 62.5071 48.8958L60.8372 47.7951ZM60.6451 48.0798C60.6408 48.0847 60.6336 48.0926 60.577 48.1492L61.9912 49.5634C62.0343 49.5203 62.0938 49.4615 62.1514 49.3956L60.6451 48.0798ZM60.2862 48.7919C60.2727 49.0006 60.2667 49.2051 60.2635 49.4004L62.2633 49.433C62.2662 49.2546 62.2714 49.0851 62.282 48.9207L60.2862 48.7919ZM60.2636 49.3948L60.2558 49.7516L62.2553 49.7956L62.2632 49.4387L60.2636 49.3948ZM60.2558 49.7521L60.2475 50.1369L62.247 50.1799L62.2553 49.7951L60.2558 49.7521ZM60.2476 50.1308C60.215 51.3123 60.1153 52.4495 59.9073 53.5904L61.8748 53.9491C62.1049 52.6869 62.2121 51.4454 62.2469 50.186L60.2476 50.1308ZM59.9058 53.5984L59.8628 53.8459L61.8332 54.1886L61.8763 53.9411L59.9058 53.5984ZM59.8645 53.8361C59.7359 54.5345 59.4887 55.1659 59.1409 55.8693L60.9337 56.7557C61.3257 55.9629 61.6568 55.1468 61.8315 54.1983L59.8645 53.8361ZM59.1392 55.8727L59.0369 56.0817L60.833 56.9613L60.9354 56.7523L59.1392 55.8727ZM59.0432 56.0689C58.8745 56.4015 58.7045 56.6494 58.4574 56.9153L59.9221 58.277C60.305 57.8652 60.5795 57.4611 60.8267 56.9741L59.0432 56.0689ZM58.4318 56.9438C57.7678 57.7153 57.6776 58.6065 57.6016 59.202L59.5855 59.4552C59.6711 58.7843 59.731 58.5003 59.9477 58.2485L58.4318 56.9438ZM57.6016 59.202C57.5921 59.2766 57.5831 59.3473 57.5735 59.418L59.5554 59.6867C59.5662 59.607 59.5762 59.5285 59.5855 59.4552L57.6016 59.202ZM57.5756 59.4036C57.3662 60.7962 56.7877 61.9725 55.8294 63.02L57.305 64.37C58.5191 63.0429 59.2822 61.5044 59.5533 59.701L57.5756 59.4036ZM55.8229 63.0271L55.6114 63.2628L57.0999 64.5986L57.3115 64.3629L55.8229 63.0271ZM55.6284 63.2443C55.0059 63.904 54.3569 64.389 53.6311 64.6029L54.1967 66.5213C55.3989 66.1669 56.3393 65.4051 57.083 64.617L55.6284 63.2443ZM52.918 65.6521L52.9399 65.8943L54.9317 65.7143L54.9099 65.4721L52.918 65.6521ZM52.9378 65.7415C52.9227 65.9806 52.8527 66.1535 52.6582 66.5692L54.4695 67.4171C54.655 67.0208 54.892 66.531 54.9338 65.8672L52.9378 65.7415ZM52.6551 66.5757L52.5467 66.8118L54.3641 67.6467L54.4725 67.4106L52.6551 66.5757ZM52.5484 66.808C52.4435 67.0338 52.3361 67.2596 52.2268 67.4868L54.0288 68.3544C54.1407 68.1219 54.2523 67.8873 54.3623 67.6504L52.5484 66.808ZM52.2257 67.489L52.1352 67.6781L53.9393 68.5413L54.0298 68.3521L52.2257 67.489ZM52.1378 67.6727C51.4874 69.0115 50.5066 70.1426 49.2659 70.8993L50.3073 72.6068C51.907 71.6311 53.136 70.1949 53.9367 68.5467L52.1378 67.6727ZM49.2273 70.9241L49.059 71.0377L50.1775 72.6956L50.3459 72.582L49.2273 70.9241ZM49.0668 71.0324C48.6616 71.3003 48.2477 71.4788 47.7245 71.6504L48.3479 73.5508C48.9718 73.3462 49.5655 73.1003 50.1697 72.7009L49.0668 71.0324ZM47.7017 71.6582L47.4616 71.7435L48.1306 73.6283L48.3707 73.543L47.7017 71.6582ZM47.4796 71.7372C46.1677 72.1749 44.7817 72.2727 43.2884 72.2548L43.2644 74.2547C44.8429 74.2736 46.4889 74.1761 48.1125 73.6345L47.4796 71.7372ZM43.2883 72.2548C43.0204 72.2516 42.7535 72.2507 42.4904 72.2501L42.486 74.2501C42.7484 74.2507 43.007 74.2516 43.2645 74.2547L43.2883 72.2548ZM42.4935 72.2502C42.325 72.2493 42.1564 72.2482 41.9879 72.2471L41.9743 74.247C42.1438 74.2482 42.3133 74.2492 42.4829 74.2501L42.4935 72.2502ZM41.9865 72.2471L41.7514 72.2458L41.7406 74.2458L41.9757 74.247L41.9865 72.2471ZM41.759 72.2459C41.4194 72.2415 41.1467 72.2182 40.8741 72.1548L40.421 74.1028C40.8859 74.211 41.3154 74.2403 41.733 74.2457L41.759 72.2459ZM40.7381 72.1329C40.3833 72.1007 40.0273 72.1059 39.6579 72.225C39.3009 72.34 39.0147 72.5357 38.7645 72.7261L39.9756 74.3177C40.178 74.1637 40.2454 74.1369 40.2713 74.1286C40.2849 74.1242 40.3414 74.1051 40.557 74.1247L40.7381 72.1329ZM38.8451 72.6708C37.4884 73.5075 36.0219 74.1985 34.5107 74.7431L35.1887 76.6246C36.8176 76.0377 38.4104 75.2887 39.895 74.373L38.8451 72.6708ZM34.5089 74.7437L34.1668 74.8677L34.8484 76.748L35.1905 76.624L34.5089 74.7437ZM34.2155 74.8514C32.2618 75.4482 29.9356 75.2445 28.139 74.3061L27.213 76.0789C29.4842 77.2651 32.3536 77.5114 34.7998 76.7642L34.2155 74.8514ZM28.095 74.2845C27.916 74.2019 27.7357 74.12 27.5541 74.0392L26.7415 75.8667C26.9132 75.9431 27.0849 76.0211 27.257 76.1005L28.095 74.2845ZM27.56 74.0419C26.7952 73.6958 26.0753 73.3318 25.3812 72.907L24.3372 74.6129C25.1226 75.0935 25.9209 75.4954 26.7356 75.8641L27.56 74.0419ZM25.3792 72.9057C25.1594 72.772 24.9398 72.6448 24.7212 72.5216L23.7397 74.2642C23.9445 74.3796 24.1438 74.4951 24.3393 74.6141L25.3792 72.9057ZM24.7285 72.5258C24.6771 72.4963 24.6377 72.4736 24.6053 72.4548C24.5726 72.4358 24.5524 72.4238 24.539 72.4156C24.5152 72.401 24.5354 72.4119 24.5644 72.4367L23.2662 73.9581C23.4078 74.0789 23.5758 74.1701 23.7323 74.26L24.7285 72.5258ZM24.5644 72.4367C24.5737 72.4446 24.5787 72.4496 24.5765 72.4474C24.5752 72.4462 24.5728 72.4438 24.5682 72.4393C24.5635 72.4346 24.5582 72.4293 24.5506 72.4217L23.1364 73.836C23.1581 73.8577 23.2082 73.9086 23.2662 73.9581L24.5644 72.4367ZM23.911 72.1311C23.7378 72.1194 23.5695 72.116 23.4104 72.1166L23.4168 74.1165C23.5444 74.1161 23.6632 74.1189 23.776 74.1265L23.911 72.1311ZM23.4168 72.1166L23.1811 72.1158L23.1746 74.1158L23.4103 74.1165L23.4168 72.1166ZM23.1585 72.116C23.0808 72.1175 22.9349 72.1177 22.7851 72.144L23.1315 74.1138C23.1065 74.1182 23.0917 74.1185 23.1013 74.1181C23.1069 74.1178 23.1165 74.1174 23.1333 74.117C23.1505 74.1165 23.1702 74.1161 23.1973 74.1156L23.1585 72.116ZM22.7852 72.144C22.596 72.1773 22.421 72.2493 22.3056 72.2937L23.023 74.1606C23.0626 74.1453 23.0923 74.1339 23.1177 74.1244C23.143 74.1148 23.158 74.1094 23.1674 74.1062C23.1837 74.1006 23.1651 74.1079 23.1315 74.1138L22.7852 72.144ZM22.6192 72.2281C22.3681 72.2394 22.1193 72.2456 21.8674 72.2471L21.8789 74.247C22.1562 74.2455 22.4313 74.2386 22.7093 74.2261L22.6192 72.2281ZM21.8642 72.2471L21.6254 72.2492L21.6431 74.2491L21.882 74.247L21.8642 72.2471ZM21.6274 72.2492C18.2973 72.2719 15.4687 72.0748 13.243 69.9732L11.8699 71.4274C14.7334 74.1312 18.3344 74.2717 21.6411 74.2492L21.6274 72.2492ZM13.2598 69.9895C12.0659 68.808 11.0422 67.1475 10.8715 65.6253L8.88396 65.8482C9.12397 67.9889 10.4754 70.0478 11.853 71.4111L13.2598 69.9895ZM10.8151 65.3883C10.8034 65.357 10.7736 65.2744 10.7376 65.1983C10.6958 65.1098 10.617 64.9652 10.4718 64.8295L9.10626 66.2907C8.99633 66.188 8.94465 66.0851 8.92967 66.0535C8.92241 66.0381 8.91965 66.0304 8.923 66.0389C8.92643 66.0477 8.93091 66.0597 8.9404 66.0852L10.8151 65.3883ZM10.4718 64.8294C10.2951 64.6644 10.1075 64.594 10.0012 64.5606C9.9091 64.5317 9.80508 64.5099 9.75229 64.4984L9.32528 66.4523C9.36348 66.4606 9.38549 66.4655 9.40262 66.4695C9.42004 66.4736 9.41622 66.4732 9.40243 66.4689C9.37497 66.4602 9.24097 66.4166 9.1063 66.2907L10.4718 64.8294ZM9.84819 64.5244L9.51077 64.4146L8.89196 66.3165L9.22938 66.4263L9.84819 64.5244ZM9.73145 64.5176C9.50421 64.3756 9.28728 64.2091 9.02334 64.0053L7.80097 65.5882C8.05216 65.7822 8.3463 66.0103 8.67128 66.2135L9.73145 64.5176ZM9.02244 64.0046L9.01935 64.0022L7.79879 65.5866L7.80188 65.5889L9.02244 64.0046ZM9.00966 63.9948L8.80295 63.8395L7.60176 65.4386L7.80848 65.5939L9.00966 63.9948ZM8.80779 63.8432C8.43798 63.5619 8.13924 63.3144 7.88275 63.028L6.39267 64.362C6.77922 64.7938 7.20056 65.1335 7.59693 65.435L8.80779 63.8432ZM8.13771 63.695V63.4984H6.13771V63.695H8.13771ZM7.13771 62.4984H6.94117V64.4984H7.13771V62.4984ZM7.69478 62.8411C6.88221 61.9095 6.27148 60.4185 6.09101 59.1466L4.11084 59.4275C4.33523 61.009 5.07591 62.8813 6.18756 64.1558L7.69478 62.8411ZM6.09097 59.1463L6.05501 58.8933L4.07491 59.1747L4.11087 59.4278L6.09097 59.1463ZM6.05607 58.901C6.03512 58.7449 6.0163 58.5892 5.99986 58.4339L4.01097 58.6444C4.0295 58.8195 4.05059 58.9938 4.07385 59.1671L6.05607 58.901ZM5.99747 58.4133C5.95702 58.0945 5.88853 57.7592 5.70917 57.429C5.53023 57.0996 5.28496 56.8562 5.03201 56.6423L3.74033 58.1692C3.91469 58.3167 3.94494 58.3712 3.95175 58.3837C3.95813 58.3955 3.9856 58.4461 4.01336 58.665L5.99747 58.4133ZM5.16897 56.7835C3.86791 55.1468 3.4919 52.7295 3.52356 50.4204L1.52375 50.393C1.49032 52.8316 1.86063 55.8357 3.60336 58.028L5.16897 56.7835ZM3.52358 50.419L3.52689 50.15L1.52704 50.1254L1.52373 50.3944L3.52358 50.419ZM3.52683 50.154C3.52962 49.9832 3.53376 49.8126 3.53938 49.6424L1.54047 49.5764C1.53447 49.7583 1.53006 49.94 1.5271 50.1214L3.52683 50.154ZM3.53976 49.6276L3.54422 49.3832L1.54455 49.3467L1.54009 49.5911L3.53976 49.6276ZM3.54393 49.395L3.55051 49.1767L1.55141 49.1165L1.54484 49.3348L3.54393 49.395ZM3.53744 48.9827C3.4978 48.7442 3.41653 48.5129 3.26014 48.2962C3.13082 48.117 2.96938 47.9828 2.90776 47.9291L1.59258 49.4358C1.61468 49.4551 1.63002 49.4685 1.64362 49.4807C1.65675 49.4924 1.66378 49.499 1.66741 49.5025C1.6746 49.5095 1.65944 49.4958 1.63841 49.4666C1.61495 49.4342 1.59449 49.3969 1.57984 49.3594C1.56639 49.325 1.56356 49.305 1.56448 49.3105L3.53744 48.9827ZM2.90782 47.9291C2.89932 47.9217 2.89127 47.9147 2.88314 47.9075L1.56534 49.412C1.57489 49.4204 1.58412 49.4284 1.59252 49.4358L2.90782 47.9291ZM3.07972 48.1419C2.0792 46.489 2.03899 44.5086 2.22561 42.3332L0.232924 42.1622C0.0423689 44.3836 0.0120797 46.9363 1.36876 49.1776L3.07972 48.1419ZM2.22569 42.3322L2.24901 42.0572L0.256161 41.8882L0.232842 42.1632L2.22569 42.3322ZM2.24821 42.0661C2.29176 41.6019 2.35851 41.1747 2.46788 40.7469L0.530216 40.2515C0.38911 40.8034 0.307787 41.3374 0.256954 41.8793L2.24821 42.0661ZM2.48075 40.6896C2.63239 39.9079 2.3956 39.1138 2.27039 38.6552L0.340993 39.1819C0.496924 39.7531 0.563569 40.0705 0.51735 40.3087L2.48075 40.6896ZM2.27039 38.6552C2.23754 38.5348 2.20915 38.4306 2.18461 38.3315L0.243205 38.8121C0.27448 38.9384 0.309378 39.0661 0.340994 39.1819L2.27039 38.6552ZM2.19158 38.3616C1.76557 36.3798 2.04487 34.5635 3.07824 32.8673L1.37024 31.8268C0.0562148 33.9837 -0.291495 36.3268 0.236241 38.782L2.19158 38.3616ZM2.93135 33.0542L3.02962 32.9559L1.6154 31.5417L1.51713 31.6399L2.93135 33.0542ZM3.3204 32.3138C3.33694 32.0596 3.34726 31.8099 3.354 31.5615L1.35474 31.5073C1.34851 31.7368 1.33916 31.9605 1.32462 32.1838L3.3204 32.3138ZM3.35374 31.5699C3.40905 30.0105 3.44428 29.0349 3.51697 28.3495C3.58797 27.6801 3.6855 27.4003 3.80439 27.1939L2.07138 26.1956C1.75137 26.7511 1.61183 27.3494 1.52813 28.1386C1.44612 28.9117 1.40905 29.975 1.355 31.499L3.35374 31.5699ZM3.80439 27.1939C3.93852 26.9611 4.13905 26.7451 4.60873 26.2605L3.17247 24.8686C2.75537 25.2991 2.35512 25.7031 2.07138 26.1956L3.80439 27.1939ZM4.71543 26.1299C5.10021 25.5686 5.24994 24.9689 5.36468 24.5359L3.43139 24.0236C3.30452 24.5025 3.22553 24.7661 3.06577 24.9992L4.71543 26.1299ZM5.36468 24.5359C5.37907 24.4816 5.39284 24.4296 5.40687 24.3777L3.47602 23.8563C3.46056 23.9136 3.44558 23.9701 3.43139 24.0237L5.36468 24.5359ZM5.40498 24.3846C5.68864 23.3631 6.00456 22.3826 6.3975 21.4465L4.55339 20.6724C4.11665 21.7128 3.77486 22.7801 3.47791 23.8494L5.40498 24.3846ZM6.36988 20.6123L6.36318 20.5989L4.57432 21.4933L4.58102 21.5067L6.36988 20.6123ZM6.39765 21.4164C6.49495 21.1723 6.59799 20.9394 6.71314 20.701L4.91224 19.8311C4.77773 20.1096 4.65552 20.3856 4.53985 20.6757L6.39765 21.4164ZM6.71508 20.697L6.82424 20.4684L5.01947 19.6065L4.91031 19.8351L6.71508 20.697ZM6.82114 20.4748C7.07148 19.9601 7.35667 19.4737 7.68071 18.9886L6.01766 17.8777C5.65086 18.4267 5.31832 18.992 5.02257 19.6001L6.82114 20.4748ZM7.71609 18.9316L7.79579 18.793L6.06198 17.7961L5.98228 17.9347L7.71609 18.9316ZM7.78553 18.8104C8.07791 18.325 8.424 17.8608 8.80539 17.3713L7.22776 16.142C6.83648 16.6442 6.4292 17.1859 6.07224 17.7786L7.78553 18.8104ZM8.81613 17.3573C8.91129 17.2306 9.00715 17.104 9.10444 16.9756L7.51012 15.768C7.41324 15.8959 7.31496 16.0257 7.21702 16.1561L8.81613 17.3573ZM9.10444 16.9756C9.15053 16.9147 9.19693 16.8535 9.24332 16.7921L7.64792 15.586C7.60216 15.6465 7.55629 15.7071 7.51012 15.768L9.10444 16.9756ZM9.24511 16.7897L9.3869 16.601L7.78792 15.3996L7.64613 15.5884L9.24511 16.7897ZM9.38189 16.6076C9.45873 16.5071 9.54113 16.4059 9.62924 16.3015L8.1008 15.0116C7.99892 15.1323 7.89498 15.2595 7.79293 15.393L9.38189 16.6076ZM9.71899 16.1769C9.90184 15.8768 10.0168 15.6004 10.116 15.3271L8.23611 14.6446C8.16082 14.8519 8.0985 14.9927 8.01106 15.1362L9.71899 16.1769ZM10.1184 15.3205C10.1241 15.3046 10.1297 15.2887 10.1351 15.2733L8.24978 14.6059C8.24428 14.6214 8.23899 14.6364 8.23372 14.6512L10.1184 15.3205ZM10.1351 15.2733C10.143 15.251 10.1506 15.2297 10.1582 15.2084L8.2741 14.5373C8.26577 14.5607 8.25758 14.5839 8.24979 14.6059L10.1351 15.2733ZM10.1454 15.2422C10.146 15.2408 10.1462 15.2403 10.1464 15.2398L8.28841 14.4996C8.2878 14.5011 8.28713 14.5028 8.28686 14.5035L10.1454 15.2422ZM10.1613 15.1998C10.1615 15.1993 10.162 15.1978 10.1624 15.1967L8.27436 14.537C8.27409 14.5377 8.27395 14.5382 8.27347 14.5395L10.1613 15.1998ZM10.15 15.2302C10.2504 14.9729 10.3952 14.7271 10.5943 14.3953L8.87945 13.3661C8.69448 13.6743 8.45866 14.0628 8.28677 14.5034L10.15 15.2302ZM10.5943 14.3953C10.6082 14.3721 10.6224 14.3485 10.6366 14.3248L8.9208 13.2972C8.90713 13.32 8.89342 13.3428 8.87945 13.3661L10.5943 14.3953ZM10.643 14.3139L10.7686 14.0982L9.03988 13.0923L8.91436 13.3081L10.643 14.3139ZM10.7646 14.1049C10.989 13.7261 11.2316 13.3956 11.5281 13.0547L10.0192 11.742C9.6512 12.1651 9.33567 12.593 9.04385 13.0856L10.7646 14.1049ZM11.5588 13.0177L11.7553 12.7686L10.1851 11.5299L9.98858 11.779L11.5588 13.0177ZM11.7544 12.7698C12.1521 12.2673 12.571 11.7979 13.0252 11.3399L11.6053 9.93143C11.1017 10.4391 10.6328 10.9642 10.186 11.5287L11.7544 12.7698ZM13.0283 11.3368L13.1874 11.1749L11.7613 9.77273L11.6022 9.93456L13.0283 11.3368ZM13.1788 11.1836C13.396 10.968 13.5622 10.8274 13.7802 10.6907L12.7182 8.99601C12.3347 9.23633 12.0524 9.48376 11.77 9.76405L13.1788 11.1836ZM13.8293 10.6579C14.07 10.4865 14.2627 10.3017 14.4249 10.0712C14.5716 9.86275 14.673 9.64243 14.7525 9.47027L12.9367 8.63187C12.8485 8.82279 12.8163 8.88182 12.7892 8.92036C12.7776 8.93681 12.7565 8.96659 12.6692 9.02879L13.8293 10.6579ZM14.7366 9.5031C15.2105 8.56802 15.9218 7.87935 16.8825 7.37553L15.9536 5.60432C14.6609 6.28226 13.6321 7.25813 12.9526 8.59904L14.7366 9.5031ZM16.8929 7.36997L17.0843 7.26671L16.1345 5.50662L15.9431 5.60988L16.8929 7.36997ZM17.0776 7.27026C17.5635 7.01276 17.8225 6.91259 18.1439 6.91259V4.91259C17.2987 4.91259 16.6669 5.22443 16.1411 5.50307L17.0776 7.27026ZM19.1154 6.14955L19.1768 5.89773L17.2338 5.42382L17.1724 5.67564L19.1154 6.14955ZM19.1338 6.03217C19.4176 5.32269 20.19 4.89054 21.3196 4.36143L20.4712 2.55029C19.497 3.00662 17.9025 3.72509 17.2768 5.28939L19.1338 6.03217ZM21.3902 4.3249L21.5702 4.22241L20.5807 2.48433L20.4007 2.58682L21.3902 4.3249ZM21.4793 4.2682C21.6299 4.20172 21.7917 4.16785 22.1 4.11155L21.7407 2.14408C21.4642 2.19457 21.0717 2.26192 20.6716 2.43854L21.4793 4.2682ZM22.1 4.11155C22.1286 4.10634 22.1586 4.10086 22.1889 4.09524L21.8252 2.12859C21.7975 2.13372 21.7697 2.1388 21.7407 2.14408L22.1 4.11155ZM22.19 4.09505C22.5738 4.02364 22.9822 3.94244 23.404 3.81724L22.835 1.89989C22.519 1.99367 22.1968 2.05947 21.8242 2.12879L22.19 4.09505ZM23.3836 3.82307C23.633 3.75479 23.8679 3.74417 24.2673 3.74185L24.2557 1.74189C23.8542 1.74422 23.3834 1.74952 22.8555 1.89406L23.3836 3.82307ZM24.5199 3.70792C25.1346 3.54353 25.45 3.18097 25.6569 2.95613L24.1853 1.6017C24.1311 1.66062 24.0976 1.69679 24.0671 1.72733C24.039 1.75551 24.0252 1.7669 24.0199 1.77094C24.0165 1.77359 24.0184 1.77186 24.0226 1.76981C24.0263 1.76796 24.0219 1.77082 24.0032 1.77582L24.5199 3.70792ZM25.6569 2.95612C25.6702 2.94167 25.6829 2.92788 25.6958 2.91397L24.2273 1.55618C24.2126 1.57204 24.1984 1.58747 24.1853 1.60172L25.6569 2.95612ZM25.6585 2.95219C25.7919 2.82253 25.9577 2.73315 26.3102 2.56348L25.4427 0.761407C25.1278 0.913015 24.6663 1.12757 24.2646 1.51795L25.6585 2.95219ZM26.311 2.5631L26.523 2.4608L25.654 0.659486L25.4419 0.761786L26.311 2.5631ZM26.5108 2.46657C27.1572 2.16539 27.894 2.03218 28.6795 2.03257L28.6805 0.0325713C27.6751 0.0320728 26.6358 0.20187 25.6661 0.653714L26.5108 2.46657Z" fill="#9B4E4E" mask="url(#path-1-outside-1_4346_6193)"/>
<path fill-rule="evenodd" clip-rule="evenodd" d="M24.4047 10.3192C24.3313 10.3521 24.2624 10.3829 24.1984 10.4113C23.7539 11.1098 22.4076 12.5069 20.5787 12.5069C20.2612 13.0149 19.4738 14.1453 18.8641 14.6025C18.2545 15.0597 18.3561 15.301 18.4831 15.3645C18.6769 15.4614 19.2422 15.0991 19.9867 14.6221C21.4398 13.691 23.5751 12.3226 24.9608 13.0784C24.5798 16.6981 20.3886 17.8412 17.3405 18.6032C16.1974 19.2382 13.9494 20.8131 14.1018 22.0324C15.1814 21.3338 17.7216 20.1273 19.2456 20.8893C18.6741 22.1594 16.8451 24.6995 14.1018 24.6995C13.8895 25.1276 13.4092 25.5825 12.9113 26.0541C12.0798 26.8415 11.1992 27.6756 11.4348 28.5097C11.4997 28.7002 11.7439 28.8907 12.2011 28.1286C12.7727 27.1761 15.2493 25.4615 15.8208 25.652C16.3207 28.5142 14.5166 29.6379 12.7391 30.745C11.0857 31.7749 9.45537 32.7903 9.72456 35.1775C9.85568 35.241 10.156 35.1394 10.3084 34.2249C10.4037 33.6534 13.7376 30.0337 14.4996 30.9863C14.7639 33.7644 13.6037 34.7226 12.333 35.7721C10.8154 37.0255 9.14028 38.409 9.54641 43.1789C9.67617 43.2424 10.0121 43.175 9.93569 42.4168C9.72456 40.3212 12.2218 35.749 14.5079 36.3205C15.2701 39.4962 13.3896 41.5878 12.0066 43.126C11.3154 43.8948 10.7485 44.5253 10.6977 45.084C10.4726 47.5606 10.7739 48.7798 11.0787 47.5606C11.1422 46.5445 11.5741 44.3981 12.7933 43.9409C14.0126 43.4837 14.1904 44.8934 14.1269 45.6555C13.978 46.5983 13.6869 47.58 13.3884 48.587C12.5407 51.4457 11.6326 54.5085 13.7459 57.467C13.0473 55.3079 12.1837 50.723 14.3174 49.6562C16.1472 50.9478 16.0918 53.7599 16.0409 56.3399C16.0017 58.3263 15.9653 60.1751 16.794 61.0867C16.9845 61.2137 17.2512 61.0867 16.794 59.5626C16.3368 58.0386 16.8575 57.0225 17.175 56.705C19.5811 57.6958 20.1997 60.8947 20.6712 63.3333C20.8343 64.177 20.9798 64.9297 21.1757 65.4684C21.6202 66.2939 22.776 67.8307 23.8428 67.3735C22.8903 66.4209 21.2138 63.9062 22.1283 61.4677C26.6512 62.1378 27.1087 65.4593 27.3605 67.2874C27.395 67.5383 27.4257 67.7611 27.4625 67.945C27.9797 68.8644 29.5887 70.5222 32.1486 70.4905V70.4216C32.2909 70.443 32.4307 70.4591 32.5679 70.4705C32.7052 70.4591 32.845 70.443 32.9873 70.4216V70.4905C35.5471 70.5222 37.1562 68.8644 37.6733 67.945C37.7101 67.7611 37.7408 67.5383 37.7754 67.2874C38.0271 65.4593 38.4846 62.1378 43.0076 61.4677C43.922 63.9062 42.2456 66.4209 41.293 67.3735C42.3599 67.8307 43.5156 66.2939 43.9601 65.4684C44.156 64.9297 44.3016 64.177 44.4647 63.3333C44.9362 60.8947 45.5547 57.6958 47.9608 56.705C48.2783 57.0225 48.7991 58.0386 48.3419 59.5626C47.8846 61.0867 48.1513 61.2137 48.3419 61.0867C49.1706 60.1751 49.1341 58.3263 49.0949 56.3399C49.0441 53.7599 48.9886 50.9478 50.8185 49.6562C52.9522 50.723 52.0885 55.3079 51.39 57.467C53.5033 54.5085 52.5951 51.4457 51.7475 48.587C51.4489 47.58 51.1578 46.5983 51.009 45.6555C50.9455 44.8934 51.1233 43.4837 52.3425 43.9409C53.5618 44.3981 53.9936 46.5445 54.0571 47.5606C54.3619 48.7798 54.6633 47.5606 54.4381 45.084C54.3874 44.5253 53.8204 43.8948 53.1293 43.126C51.7463 41.5878 49.8658 39.4962 50.628 36.3205C52.9141 35.749 55.4113 40.3212 55.2002 42.4168C55.1238 43.175 55.4597 43.2424 55.5894 43.1789C55.9956 38.409 54.3204 37.0255 52.8028 35.7721C51.5322 34.7226 50.372 33.7644 50.6362 30.9863C51.3982 30.0337 54.7322 33.6534 54.8274 34.2249C54.9798 35.1394 55.2802 35.241 55.4113 35.1775C55.6805 32.7903 54.0502 31.7749 52.3967 30.745C50.6193 29.6379 48.8151 28.5142 49.315 25.652C49.8865 25.4615 52.3632 27.1761 52.9347 28.1286C53.3919 28.8907 53.6361 28.7002 53.7011 28.5097C53.9367 27.6756 53.056 26.8415 52.2246 26.0541C51.7266 25.5825 51.2463 25.1276 51.034 24.6995C48.2908 24.6995 46.4618 22.1594 45.8902 20.8893C47.4143 20.1273 49.9545 21.3338 51.034 22.0324C51.1864 20.8131 48.9384 19.2382 47.7954 18.6032C44.7472 17.8412 40.556 16.6981 40.175 13.0784C41.5607 12.3226 43.6961 13.691 45.1492 14.6221C45.8936 15.0991 46.459 15.4614 46.6527 15.3645C46.7797 15.301 46.8813 15.0597 46.2717 14.6025C45.6621 14.1453 44.8746 13.0149 44.5571 12.5069C42.7282 12.5069 41.382 11.1098 40.9375 10.4113C40.8734 10.3829 40.8046 10.3521 40.7312 10.3193C39.2337 9.64971 35.8331 8.1292 32.5679 8.12521C29.3028 8.1292 25.9021 9.64971 24.4047 10.3192ZM32.5679 7.17162C30.5565 7.02409 25.1673 7.94113 21.1751 10.9828C20.8703 10.3731 21.4292 9.83971 21.7467 9.6492C23.1183 9.19198 23.3342 7.29964 23.2707 6.41062C22.3563 5.03896 19.8416 7.5536 19.2456 8.69673C19.0146 9.13992 18.9053 9.95535 18.7819 10.8766C18.587 12.3315 18.3568 14.0503 17.5555 14.9835C17.1884 14.9835 17.3269 14.5537 17.5643 13.8173C17.9182 12.7193 18.4917 10.9398 17.9365 8.88724C15.671 10.123 15.465 12.7502 15.2726 15.2045C15.1091 17.2907 14.9553 19.2519 13.5548 20.1273C13.4016 19.9138 13.5892 19.2192 13.8242 18.3494C14.2603 16.7349 14.8595 14.5166 13.7453 13.65C10.6063 14.9425 11.3816 18.2037 12.1301 21.3519C12.1538 21.4519 12.1776 21.5517 12.2011 21.6513C12.8142 24.2423 11.5809 26.1601 10.8877 26.7951C10.8068 26.7546 10.8613 26.3196 10.9428 25.6702C11.1683 23.873 11.5997 20.4342 9.93512 19.1747C7.64901 20.394 8.03003 24.4545 8.98257 26.2236C10.0494 28.2048 9.93512 31.5578 9.36359 31.3673C9.12314 31.4158 9.13127 31.0671 9.14404 30.5201C9.17141 29.3474 9.22006 27.2628 6.88697 26.2236C4.60123 28.8907 6.31544 32.8914 8.22053 35.1775C8.79206 36.511 9.17345 38.2256 8.41104 41.2738C7.81933 41.0519 7.802 40.2269 7.77926 39.1446C7.74342 37.4391 7.69416 35.0945 5.36327 33.4629C3.99161 33.7677 4.28372 36.638 4.60123 38.0351C4.76863 39.5417 5.67149 40.4599 6.63125 41.436C7.85602 42.6816 9.17345 44.0215 9.17345 46.7985C8.51374 46.5786 8.30529 45.9921 8.07066 45.3319C7.69549 44.2762 7.25339 43.0323 4.79244 42.7978C3.878 45.846 6.57053 48.2591 8.03109 49.0846C10.8887 50.6087 11.4603 52.1328 11.0787 54.0379C10.4687 52.5138 7.77639 51.1167 6.50648 50.6087C5.28723 53.5044 7.39553 55.7524 8.60208 56.5145C8.94732 56.8595 9.91706 57.1654 10.8751 57.4677C12.0333 57.833 13.1743 58.193 13.1743 58.6101C13.6315 59.6769 15.0159 60.9597 15.6509 61.4677C16.8702 62.3822 16.1272 62.6108 15.8414 62.4203C15.5829 62.2479 15.2854 61.9586 14.9379 61.6208C13.749 60.4646 11.9747 58.7393 9.17364 59.1816C9.02123 62.687 14.6984 64.0713 17.556 64.3253C18.0871 65.3875 19.6842 66.272 20.9604 66.9789C21.9733 67.5398 22.7841 67.9889 22.6998 68.326C21.4814 68.5871 20.7003 68.0531 19.7391 67.3959C18.5962 66.6145 17.1985 65.6589 14.5079 65.6589C13.7621 66.2183 14.6326 67.3251 15.2313 68.0863L15.2699 68.1355C16.9464 70.2692 21.8107 69.9136 24.0333 69.4691C25.6221 69.6363 26.8438 70.1706 28.0207 70.6852C29.4195 71.2969 30.7549 71.8809 32.5679 71.7881C34.3809 71.8809 35.7163 71.2969 37.1151 70.6852C38.292 70.1706 39.5137 69.6363 41.1025 69.4691C43.3251 69.9136 48.1894 70.2692 49.8659 68.1355L49.9046 68.0863C50.5033 67.3251 51.3738 66.2183 50.628 65.6589C47.9374 65.6589 46.5397 66.6145 45.3967 67.3959C44.4355 68.0531 43.6544 68.5871 42.4361 68.326C42.3518 67.9889 43.1626 67.5398 44.1754 66.9789C45.4517 66.272 47.0487 65.3875 47.5798 64.3253C50.4374 64.0713 56.1146 62.687 55.9622 59.1816C53.1612 58.7393 51.3869 60.4646 50.1979 61.6208C49.8504 61.9586 49.5529 62.2479 49.2944 62.4203C49.0087 62.6108 48.2657 62.3822 49.4849 61.4677C50.12 60.9597 51.5043 59.6769 51.9615 58.6101C51.9615 58.193 53.1026 57.833 54.2607 57.4677C55.2188 57.1654 56.1885 56.8595 56.5338 56.5145C57.7403 55.7524 59.8486 53.5044 58.6294 50.6087C57.3595 51.1167 54.6672 52.5138 54.0571 54.0379C53.6756 52.1328 54.2471 50.6087 57.1048 49.0846C58.5653 48.2591 61.2579 45.846 60.3434 42.7978C57.8825 43.0323 57.4404 44.2762 57.0652 45.3319C56.8306 45.9921 56.6221 46.5786 55.9624 46.7985C55.9624 44.0215 57.2798 42.6816 58.5046 41.436C59.4644 40.4599 60.3672 39.5417 60.5346 38.0351C60.8521 36.638 61.1442 33.7677 59.7726 33.4629C57.4417 35.0945 57.3924 37.4391 57.3566 39.1446C57.3339 40.2269 57.3165 41.0519 56.7248 41.2738C55.9624 38.2256 56.3438 36.511 56.9153 35.1775C58.8204 32.8914 60.5346 28.8907 58.2489 26.2236C55.9158 27.2628 55.9644 29.3474 55.9918 30.5201C56.0046 31.0671 56.0127 31.4158 55.7723 31.3673C55.2007 31.5578 55.0864 28.2048 56.1533 26.2236C57.1058 24.4545 57.4868 20.394 55.2007 19.1747C53.5362 20.4342 53.9676 23.873 54.1931 25.6702C54.2745 26.3196 54.3291 26.7546 54.2482 26.7951C53.5549 26.1601 52.3216 24.2423 52.9347 21.6513C52.9583 21.5517 52.982 21.4519 53.0058 21.3519C53.7543 18.2037 54.5296 14.9425 51.3906 13.65C50.2763 14.5166 50.8755 16.7349 51.3117 18.3494C51.5467 19.2192 51.7343 19.9138 51.5811 20.1273C50.1805 19.2519 50.0268 17.2907 49.8632 15.2045C49.6708 12.7502 49.4648 10.123 47.1994 8.88724C46.6441 10.9398 47.2177 12.7193 47.5716 13.8173C47.8089 14.5537 47.9475 14.9835 47.5804 14.9835C46.7791 14.0503 46.5488 12.3315 46.3539 10.8766C46.2305 9.95535 46.1213 9.13992 45.8902 8.69673C45.2943 7.5536 42.7795 5.03896 41.8651 6.41062C41.8016 7.29964 42.0175 9.19198 43.3892 9.6492C43.7067 9.83971 44.2655 10.3731 43.9607 10.9828C39.9686 7.94113 34.5793 7.02409 32.5679 7.17162Z" fill="#7E0000"/>
<path d="M44.0847 27.3086L41.8711 33.396L43.5313 34.3183L45.5604 28.2309L44.0847 27.3086Z" fill="#7E0000"/>
<path d="M21.2079 33.8999L19.3633 27.6281L22.1303 26.3368C23.606 25.7465 24.2209 27.1977 24.3439 27.997C24.639 29.4727 22.9911 30.5795 22.1303 30.9485L22.8681 33.1621L21.2079 33.8999Z" fill="#7E0000"/>
<path d="M28.9523 28.9654L27.4766 29.3344C27.661 29.9503 28.2513 31.219 29.1368 31.3666C30.2435 31.5511 32.2727 31.551 32.4571 29.3344C32.6047 27.561 30.9199 26.8759 30.0591 26.7549C28.2144 26.5705 29.6902 25.0947 30.428 26.386L31.9037 26.1985C31.9037 23.8035 27.4766 23.6173 27.4766 26.3829C27.4766 28.0062 28.8908 28.4735 29.8746 28.5965C31.7193 29.1499 29.8746 31.179 28.9523 28.9654Z" fill="#7E0000"/>
<path d="M36.4608 29.1743L34.9403 29.2194C34.9889 29.8606 35.2946 31.2261 36.128 31.5594C37.1699 31.9761 39.1522 32.4095 39.8059 30.2834C40.3289 28.5825 38.8294 27.5533 38.0142 27.2512C36.2516 26.677 38.0085 25.5505 38.4535 26.9696L39.9352 27.1017C40.4468 24.762 36.1616 23.6344 35.5708 26.3361C35.224 27.9219 36.5058 28.6806 37.4406 29.0109C39.1245 29.9456 36.8889 31.5338 36.4608 29.1743Z" fill="#7E0000"/>
<path d="M22.9139 28.1992C22.6956 27.3261 21.5496 27.6535 21.0039 27.9264L21.5496 29.837C22.0953 29.6549 23.1322 29.0724 22.9139 28.1992Z" fill="#923232"/>
<path d="M29.7738 55.7854C29.901 55.7829 30.0282 55.7828 30.1554 55.7844C30.2249 55.7837 30.2945 55.783 30.3662 55.7822C30.5961 55.7804 30.8258 55.7816 31.0556 55.783C31.2153 55.7827 31.375 55.7823 31.5347 55.7818C31.8693 55.7812 32.2038 55.7821 32.5384 55.784C32.9676 55.7863 33.3967 55.785 33.826 55.7825C34.1557 55.7811 34.4853 55.7815 34.815 55.7826C34.9733 55.7829 35.1316 55.7825 35.2899 55.7816C35.5109 55.7805 35.7317 55.7821 35.9528 55.7844C36.0184 55.7836 36.0841 55.7827 36.1517 55.7819C36.3341 55.7854 36.3341 55.7854 36.6335 55.8371C36.775 56.0407 36.775 56.0407 36.8779 56.2444C37.0516 56.306 37.0516 56.306 37.2496 56.2982C37.3622 56.3006 37.3622 56.3006 37.477 56.303C37.5577 56.3027 37.6384 56.3024 37.7215 56.302C37.8044 56.3033 37.8872 56.3045 37.9726 56.3058C38.2374 56.3093 38.5021 56.31 38.767 56.3106C38.9464 56.3125 39.1258 56.3146 39.3053 56.3168C39.7453 56.322 40.1854 56.3248 40.6255 56.3259C40.5163 56.6198 40.4071 56.8892 40.2181 57.1406C40.011 57.1918 40.011 57.1918 39.7605 57.192C39.6667 57.193 39.5729 57.1941 39.4763 57.1951C39.375 57.194 39.2736 57.193 39.1692 57.1918C39.0653 57.192 38.9613 57.1922 38.8542 57.1924C38.6342 57.1924 38.4143 57.1915 38.1943 57.1892C37.9123 57.1865 37.6305 57.187 37.3486 57.1885C37.0797 57.1896 36.8107 57.1881 36.5418 57.1868C36.4405 57.1872 36.3392 57.1876 36.2348 57.188C36.0941 57.186 36.0941 57.186 35.9505 57.1841C35.8679 57.1836 35.7852 57.1831 35.7 57.1825C35.4339 57.1287 35.4054 57.0263 35.2485 56.8147C35.0456 56.7654 35.0456 56.7654 34.8133 56.7726C34.6799 56.771 34.6799 56.771 34.5439 56.7695C34.3999 56.7704 34.3999 56.7704 34.253 56.7715C34.1545 56.7711 34.056 56.7708 33.9544 56.7705C33.746 56.7703 33.5375 56.7709 33.329 56.7722C33.0093 56.774 32.6897 56.7723 32.37 56.7702C32.1677 56.7704 31.9654 56.7708 31.7631 56.7715C31.6671 56.7708 31.5711 56.7701 31.4722 56.7695C31.3833 56.7705 31.2944 56.7715 31.2028 56.7726C31.1245 56.7728 31.0462 56.7731 30.9655 56.7734C30.7547 56.7947 30.7547 56.7947 30.6461 56.9773C30.5232 57.1406 30.5232 57.1406 30.3208 57.1842C30.2001 57.186 30.2001 57.186 30.077 57.188C29.9399 57.1911 29.9399 57.1911 29.8001 57.1943C29.7013 57.1946 29.6025 57.195 29.5007 57.1953C29.3991 57.1964 29.2976 57.1975 29.1929 57.1986C28.9778 57.2003 28.7628 57.2012 28.5476 57.201C28.3273 57.201 28.1072 57.2032 27.8869 57.2077C27.5694 57.2137 27.252 57.2153 26.9344 57.2157C26.787 57.2192 26.787 57.2192 26.6366 57.2228C25.9697 57.2156 25.9697 57.2156 25.7056 56.9962C25.3906 56.5901 25.3906 56.5901 25.3906 56.3259C25.4369 56.3258 25.4831 56.3257 25.5307 56.3256C26.0118 56.324 26.4928 56.3195 26.9739 56.3135C27.1534 56.3116 27.333 56.3104 27.5125 56.31C27.7706 56.3092 28.0286 56.3059 28.2866 56.302C28.4071 56.3025 28.4071 56.3025 28.5299 56.303C28.6424 56.3006 28.6424 56.3006 28.7572 56.2982C28.856 56.2974 28.856 56.2974 28.9568 56.2965C29.16 56.2587 29.16 56.2587 29.2818 56.0407C29.4641 55.8371 29.4641 55.8371 29.7738 55.7854Z" fill="#7E0000"/>
<path d="M29.8782 58.5233C30.6919 58.5139 31.5056 58.5067 32.3193 58.5022C32.6971 58.5001 33.0749 58.4972 33.4528 58.4926C33.8172 58.4882 34.1817 58.4857 34.5462 58.4847C34.6854 58.4839 34.8246 58.4825 34.9638 58.4803C35.1585 58.4773 35.353 58.4769 35.5478 58.4771C35.6056 58.4756 35.6633 58.4742 35.7229 58.4727C35.8838 58.4744 35.8838 58.4744 36.1514 58.5233C36.2904 58.7265 36.2904 58.7265 36.3958 58.9307C36.5527 58.9919 36.5527 58.9919 36.7302 58.9844C36.797 58.986 36.8639 58.9876 36.9328 58.9893C37.0405 58.9888 37.0405 58.9888 37.1503 58.9883C37.2241 58.9895 37.2979 58.9908 37.374 58.992C37.6097 58.9955 37.8454 58.9962 38.0812 58.9969C38.241 58.9988 38.4008 59.0008 38.5606 59.0031C38.9524 59.0082 39.3442 59.0108 39.7361 59.0122C39.6856 59.1176 39.6345 59.2228 39.5833 59.3279C39.5408 59.4158 39.5408 59.4158 39.4974 59.5054C39.4102 59.6639 39.4102 59.6639 39.2472 59.8269C39.073 59.8465 39.073 59.8465 38.8548 59.8454C38.7733 59.8453 38.6917 59.8453 38.6077 59.8453C38.4753 59.8441 38.4753 59.8441 38.3403 59.8428C38.2501 59.8425 38.1599 59.8423 38.067 59.8421C37.7781 59.8412 37.4892 59.8391 37.2003 59.837C37.0048 59.8362 36.8093 59.8355 36.6138 59.8348C36.1338 59.833 35.6538 59.8303 35.1737 59.8269C35.0931 59.6252 35.0931 59.6252 35.0108 59.4195C33.6934 59.4195 32.3761 59.4195 31.0188 59.4195C30.965 59.5539 30.9112 59.6884 30.8558 59.8269C30.2963 59.8434 29.7368 59.8548 29.1771 59.8627C28.9868 59.8659 28.7965 59.8704 28.6063 59.876C28.3324 59.8839 28.0588 59.8876 27.7848 59.8905C27.7 59.8939 27.6152 59.8972 27.5278 59.9007C26.9494 59.9011 26.9494 59.9011 26.6981 59.6832C26.375 59.2659 26.375 59.2659 26.375 59.0122C27.4773 58.9853 28.5796 58.9584 29.7153 58.9307C29.769 58.7963 29.8228 58.6618 29.8782 58.5233Z" fill="#7E0000"/>
<path d="M33.091 36.0391C33.3706 36.1547 33.5936 36.3224 33.8267 36.5113C33.8764 36.5512 33.926 36.5911 33.9772 36.6322C36.5127 38.7072 37.9621 41.6623 38.327 44.8999C38.3451 45.1266 38.3531 45.3476 38.3483 45.5749C39.8913 45.3033 41.0644 44.742 42.2589 43.701C42.3258 43.6441 42.3927 43.5872 42.4616 43.5286C43.1521 42.9273 43.8072 42.2585 44.3465 41.5166C44.4423 41.3881 44.4423 41.3881 44.54 41.257C44.5938 41.257 44.6476 41.257 44.703 41.257C44.9056 42.0564 44.9872 42.789 44.9779 43.6145C44.9771 43.7219 44.9763 43.8294 44.9754 43.9401C44.9637 44.6765 44.9251 45.3571 44.703 46.0637C44.6787 46.1412 44.6787 46.1412 44.6539 46.2204C44.1263 47.8601 43.1886 49.2129 41.8515 50.3001C42.6258 50.6873 43.8774 50.2859 44.6492 50.0489C45.2362 49.8466 45.7969 49.5761 46.3531 49.3018C46.4953 49.241 46.4953 49.241 46.6582 49.241C46.6778 49.7048 46.6333 50.0779 46.4648 50.514C46.4432 50.5699 46.4216 50.6258 46.3994 50.6835C45.7974 52.1529 44.6629 53.1113 43.2305 53.7378C41.1588 54.603 39.0068 54.3984 36.9493 53.6652C36.5973 53.5375 36.5973 53.5375 36.2301 53.4774C36.074 53.5747 36.074 53.5747 35.9399 53.7269C35.108 54.5103 34.0096 54.8222 32.8886 54.8096C31.7719 54.7714 30.8059 54.3858 30.0263 53.577C29.8804 53.4591 29.8804 53.4591 29.695 53.4879C29.4564 53.5626 29.2208 53.643 28.9855 53.7275C26.8567 54.4848 24.5407 54.5668 22.456 53.6066C21.9532 53.3447 21.5049 53.0335 21.0767 52.6627C21.0155 52.6102 20.9543 52.5577 20.8912 52.5036C20.1737 51.8414 19.7085 50.9928 19.4473 50.0557C19.4204 49.975 19.3935 49.8944 19.3658 49.8113C19.3626 49.6212 19.3622 49.4311 19.3658 49.241C19.6893 49.3418 19.9953 49.4634 20.3033 49.6046C21.302 50.0617 22.3042 50.394 23.4139 50.3918C23.52 50.392 23.6262 50.3922 23.7356 50.3924C24.0092 50.3943 24.0092 50.3943 24.254 50.3001C24.1549 50.2141 24.1549 50.2141 24.0539 50.1263C22.4071 48.6698 21.3926 46.9603 21.0767 44.7602C21.0112 43.5791 21.0254 42.4062 21.3211 41.257C21.6279 41.3795 21.7727 41.553 21.9729 41.812C22.6576 42.6684 23.3748 43.4461 24.254 44.1084C24.3487 44.182 24.3487 44.182 24.4453 44.257C24.8534 44.5602 25.2832 44.8011 25.7358 45.03C25.79 45.0575 25.8442 45.0851 25.9 45.1134C26.3789 45.3486 26.8507 45.5003 27.3855 45.5443C27.456 45.5504 27.5265 45.5565 27.5991 45.5628C27.6513 45.5668 27.7035 45.5707 27.7572 45.5749C27.7535 45.53 27.7497 45.4852 27.7458 45.439C27.6332 42.8458 28.9539 40.0123 30.6087 38.0796C30.6637 38.0137 30.7187 37.9477 30.7754 37.8798C32.3493 36.0531 32.3493 36.0531 33.091 36.0391Z" fill="#7E0000"/>
<path d="M29.2342 36.0391L28.0256 37.2475L28.8313 39.4638L29.2342 38.8587V36.0391Z" fill="#7E0000"/>
<path d="M27.4212 37.8517L26.4141 38.6582L27.6227 41.6793L28.227 40.2686L27.4212 37.8517Z" fill="#7E0000"/>
<path d="M36.2815 36.0391L37.4901 37.2475L36.6843 39.4638L36.2815 38.8587V36.0391Z" fill="#7E0000"/>
<path d="M38.0944 37.8517L39.1016 38.6582L37.8929 41.6793L37.2886 40.2686L38.0944 37.8517Z" fill="#7E0000"/>
<circle cx="32.8508" cy="16.1594" r="5.14768" fill="#7E0000"/>
<path d="M31.2031 12.25L32.6444 13.4854V14.7209L31.8208 15.3386L30.3794 14.9268L29.7617 13.4854L31.2031 12.25Z" fill="#923232"/>
<path d="M32.03 16.9843L31.6182 15.7489L30.1769 15.543L28.9414 16.5725L29.765 18.4257H31.2064L32.03 16.9843Z" fill="#923232"/>
<path d="M33.6751 17.3984H32.2338L31.4102 18.6339L32.0279 19.8693H33.881L34.2929 18.428L33.6751 17.3984Z" fill="#923232"/>
<path d="M34.2985 15.9576L33.8867 16.9871L34.9163 18.2225H36.3576L36.9753 16.3694L35.534 15.3398L34.2985 15.9576Z" fill="#923232"/>
<path d="M33.0586 13.2795V14.515L34.294 15.5445L35.7354 15.1327L35.9413 13.2795L34.4999 12.25L33.0586 13.2795Z" fill="#923232"/>
</svg>
