<svg width="331" height="156" viewBox="0 0 331 156" fill="none" xmlns="http://www.w3.org/2000/svg">
<g clip-path="url(#clip0_4348_6283)">
<path d="M568.497 -51.1649C549.054 -61.8074 529.882 -73.3196 511.079 -85.7545H533.245C489.716 -114.542 448.153 -148.256 409.625 -187.303H428.098C422.825 -192.645 417.589 -198.056 412.433 -203.599C387.241 -230.692 364.113 -259.186 343.04 -288.849H357.819C334.704 -321.388 314.089 -355.342 295.933 -390.398H307.017C289.948 -423.355 275.061 -457.283 262.379 -491.946H269.768C258.791 -521.945 249.448 -552.485 241.755 -583.411L251.054 -593.494C262.499 -558.91 276.098 -524.987 291.812 -491.946H284.423C301.046 -457.007 320.05 -423.061 341.453 -390.398H330.369C353.621 -354.915 379.693 -320.943 408.598 -288.849H393.82C396.778 -285.567 399.756 -282.296 402.772 -279.052C434.662 -244.754 468.802 -214.221 504.588 -187.3H486.117C528.597 -155.346 573.415 -128.506 619.597 -106.58L568.497 -51.162V-51.1649ZM559.197 -41.0805C513.008 -63.0067 468.194 -89.8471 425.714 -121.801H444.185C408.401 -148.722 374.264 -179.255 342.37 -213.553C339.354 -216.797 336.374 -220.068 333.418 -223.35H348.197C319.291 -255.444 293.219 -289.416 269.968 -324.899H281.052C259.647 -357.562 240.644 -391.505 224.021 -426.448H231.41C215.693 -459.488 202.097 -493.413 190.653 -527.996L181.353 -517.912C189.046 -486.987 198.389 -456.446 209.366 -426.448H201.977C214.662 -391.784 229.549 -357.856 246.616 -324.899H235.532C253.687 -289.843 274.305 -255.889 297.417 -223.35H282.639C303.711 -193.687 326.839 -165.19 352.03 -138.1C357.187 -132.556 362.422 -127.146 367.695 -121.804H349.223C387.753 -82.7604 429.316 -49.043 472.846 -20.2557H450.679C469.482 -7.82051 488.654 3.69128 508.094 14.3338L559.197 -41.0834V-41.0805ZM680 -172.085C633.811 -194.011 589 -220.851 546.517 -252.805H564.991C529.205 -279.726 495.069 -310.258 463.174 -344.557C460.159 -347.801 457.177 -351.072 454.222 -354.354H469.001C440.094 -386.448 414.023 -420.42 390.771 -455.903H401.855C380.451 -488.566 361.448 -522.509 344.825 -557.452H352.214C336.497 -590.49 322.901 -624.417 311.456 -659L302.157 -648.914C309.85 -617.991 319.193 -587.451 330.17 -557.452H322.781C335.465 -522.788 350.353 -488.86 367.419 -455.903H356.335C374.491 -420.847 395.109 -386.893 418.22 -354.354H403.442C424.515 -324.691 447.641 -296.194 472.836 -269.104C477.989 -263.56 483.225 -258.15 488.498 -252.808H470.027C508.556 -213.764 550.119 -180.047 593.649 -151.26H571.482C590.285 -138.824 609.457 -127.313 628.897 -116.67L680 -172.087V-172.085ZM377.846 155.582C331.658 133.657 286.845 106.816 244.363 74.862H262.836C227.051 47.9411 192.913 17.4084 161.02 -16.8901C158.004 -20.134 155.023 -23.4044 152.068 -26.6869H166.846C137.941 -58.7805 111.868 -92.7527 88.6172 -128.235H99.7009C78.2971 -160.899 59.2934 -194.842 42.6707 -229.784H50.0598C34.343 -262.824 20.747 -296.749 9.30219 -331.333L0 -321.245C7.69283 -290.321 17.0359 -259.78 28.0128 -229.781H20.6238C33.3084 -195.118 48.1961 -161.19 65.2622 -128.232H54.1785C72.3338 -93.1769 92.9522 -59.2227 116.064 -26.684H101.285C122.358 2.97907 145.486 31.4757 170.677 58.5659C175.833 64.1097 181.069 69.52 186.342 74.862H167.869C206.4 113.906 247.962 147.623 291.492 176.411H269.324C288.128 188.846 307.299 200.358 326.741 211L377.843 155.582H377.846ZM498.648 24.5789C452.462 2.65269 407.649 -24.1881 365.167 -56.142H383.64C347.854 -83.0629 313.717 -113.596 281.823 -147.894C278.807 -151.138 275.827 -154.408 272.871 -157.691H287.65C258.744 -189.784 232.672 -223.757 209.421 -259.239H220.505C199.101 -291.903 180.097 -325.846 163.474 -360.788H170.863C155.147 -393.828 141.551 -427.753 130.106 -462.337L120.806 -452.252C128.499 -421.328 137.842 -390.787 148.819 -360.788H141.43C154.115 -326.124 169.003 -292.197 186.069 -259.239H174.985C193.14 -224.184 213.758 -190.23 236.87 -157.691H222.092C243.164 -128.028 266.292 -99.5311 291.484 -72.4413C296.64 -66.8975 301.875 -61.4869 307.148 -56.1448H288.676C327.206 -17.101 368.768 16.6161 412.3 45.4037H390.131C408.935 57.8385 428.104 69.3506 447.548 79.9932L498.648 24.5756V24.5789ZM438.248 90.0809C392.06 68.1547 347.247 41.3139 304.765 9.35999H323.238C287.452 -17.5609 253.315 -48.0936 221.421 -82.3922C218.406 -85.6361 215.425 -88.9063 212.469 -92.1888H227.248C198.343 -124.282 172.27 -158.255 149.019 -193.737H160.103C138.699 -226.401 119.695 -260.344 103.073 -295.286H110.462C94.7447 -328.326 81.1488 -362.251 69.7039 -396.835L60.4046 -386.75C68.0974 -355.826 77.4405 -325.285 88.4175 -295.286H81.0284C93.713 -260.622 108.601 -226.695 125.667 -193.737H114.583C132.738 -158.682 153.357 -124.728 176.468 -92.1888H161.69C182.763 -62.5258 205.891 -34.0292 231.082 -6.93933C236.238 -1.39516 241.473 4.01473 246.747 9.35675H228.274C266.804 48.401 308.366 82.118 351.896 110.906H329.729C348.533 123.341 367.704 134.853 387.145 145.495L438.248 90.0776V90.0809Z" fill="#F1F1F1"/>
</g>
<defs>
<clipPath id="clip0_4348_6283">
<rect width="331" height="156" fill="white"/>
</clipPath>
</defs>
</svg>
