<svg width="114" height="51" viewBox="0 0 114 51" fill="none" xmlns="http://www.w3.org/2000/svg">
<path d="M47.7699 34V13.6364H55.804C57.3485 13.6364 58.6643 13.9313 59.7514 14.5213C60.8385 15.1046 61.6671 15.9167 62.2372 16.9574C62.8139 17.9915 63.1023 19.1847 63.1023 20.5369C63.1023 21.8892 62.8106 23.0824 62.2273 24.1165C61.6439 25.1506 60.7988 25.956 59.6918 26.5327C58.5914 27.1094 57.259 27.3977 55.6946 27.3977H50.5739V23.9474H54.9986C55.8272 23.9474 56.5099 23.8049 57.0469 23.5199C57.5904 23.2282 57.9948 22.8272 58.2599 22.3168C58.5317 21.7997 58.6676 21.2064 58.6676 20.5369C58.6676 19.8608 58.5317 19.2708 58.2599 18.767C57.9948 18.2566 57.5904 17.8622 57.0469 17.5838C56.5033 17.2988 55.8139 17.1562 54.9787 17.1562H52.0753V34H47.7699ZM76.9457 19.4929C76.8661 18.6908 76.5247 18.0677 75.9215 17.6236C75.3183 17.1794 74.4996 16.9574 73.4656 16.9574C72.7629 16.9574 72.1696 17.0568 71.6857 17.2557C71.2018 17.4479 70.8306 17.7164 70.5721 18.0611C70.3202 18.4058 70.1942 18.7969 70.1942 19.2344C70.181 19.599 70.2572 19.9171 70.4229 20.1889C70.5953 20.4607 70.8306 20.696 71.1289 20.8949C71.4272 21.0871 71.7719 21.2562 72.163 21.402C72.5541 21.5412 72.9717 21.6605 73.4158 21.7599L75.2454 22.1974C76.1336 22.3963 76.949 22.6615 77.6914 22.9929C78.4338 23.3243 79.0768 23.732 79.6204 24.2159C80.1639 24.6998 80.5849 25.2699 80.8832 25.9261C81.1881 26.5824 81.3439 27.3348 81.3505 28.1832C81.3439 29.4295 81.0257 30.5099 80.396 31.4247C79.7728 32.3329 78.8713 33.0388 77.6914 33.5426C76.5181 34.0398 75.1029 34.2884 73.4457 34.2884C71.8017 34.2884 70.3699 34.0365 69.1502 33.5327C67.9371 33.0289 66.9892 32.2831 66.3065 31.2955C65.6303 30.3011 65.2757 29.0715 65.2425 27.6065H69.4087C69.4551 28.2893 69.6507 28.8594 69.9954 29.3168C70.3467 29.7675 70.814 30.1089 71.3974 30.3409C71.9873 30.5663 72.6535 30.679 73.396 30.679C74.1251 30.679 74.7582 30.5729 75.2951 30.3608C75.8387 30.1487 76.2596 29.8537 76.5579 29.4759C76.8562 29.098 77.0053 28.6638 77.0053 28.1733C77.0053 27.7159 76.8694 27.3314 76.5977 27.0199C76.3325 26.7083 75.9414 26.4432 75.4244 26.2244C74.9139 26.0057 74.2875 25.8068 73.5451 25.6278L71.3278 25.071C69.6109 24.6534 68.2553 24.0005 67.261 23.1122C66.2667 22.224 65.7728 21.0275 65.7795 19.5227C65.7728 18.2898 66.101 17.2126 66.7638 16.2912C67.4334 15.3698 68.3514 14.6506 69.5181 14.1335C70.6848 13.6165 72.0105 13.358 73.4954 13.358C75.0067 13.358 76.3259 13.6165 77.4528 14.1335C78.5863 14.6506 79.4679 15.3698 80.0977 16.2912C80.7274 17.2126 81.0522 18.2798 81.0721 19.4929H76.9457ZM95.2933 19.4929C95.2138 18.6908 94.8724 18.0677 94.2692 17.6236C93.666 17.1794 92.8473 16.9574 91.8132 16.9574C91.1106 16.9574 90.5173 17.0568 90.0334 17.2557C89.5495 17.4479 89.1783 17.7164 88.9197 18.0611C88.6679 18.4058 88.5419 18.7969 88.5419 19.2344C88.5286 19.599 88.6049 19.9171 88.7706 20.1889C88.9429 20.4607 89.1783 20.696 89.4766 20.8949C89.7749 21.0871 90.1196 21.2562 90.5107 21.402C90.9018 21.5412 91.3194 21.6605 91.7635 21.7599L93.593 22.1974C94.4813 22.3963 95.2966 22.6615 96.0391 22.9929C96.7815 23.3243 97.4245 23.732 97.968 24.2159C98.5116 24.6998 98.9325 25.2699 99.2308 25.9261C99.5357 26.5824 99.6915 27.3348 99.6982 28.1832C99.6915 29.4295 99.3733 30.5099 98.7436 31.4247C98.1205 32.3329 97.219 33.0388 96.0391 33.5426C94.8658 34.0398 93.4505 34.2884 91.7933 34.2884C90.1494 34.2884 88.7176 34.0365 87.4979 33.5327C86.2848 33.0289 85.3369 32.2831 84.6541 31.2955C83.978 30.3011 83.6233 29.0715 83.5902 27.6065H87.7564C87.8028 28.2893 87.9983 28.8594 88.343 29.3168C88.6944 29.7675 89.1617 30.1089 89.745 30.3409C90.335 30.5663 91.0012 30.679 91.7436 30.679C92.4728 30.679 93.1058 30.5729 93.6428 30.3608C94.1863 30.1487 94.6072 29.8537 94.9055 29.4759C95.2038 29.098 95.353 28.6638 95.353 28.1733C95.353 27.7159 95.2171 27.3314 94.9453 27.0199C94.6802 26.7083 94.2891 26.4432 93.772 26.2244C93.2616 26.0057 92.6352 25.8068 91.8928 25.6278L89.6754 25.071C87.9586 24.6534 86.603 24.0005 85.6087 23.1122C84.6143 22.224 84.1205 21.0275 84.1271 19.5227C84.1205 18.2898 84.4486 17.2126 85.1115 16.2912C85.781 15.3698 86.6991 14.6506 87.8658 14.1335C89.0324 13.6165 90.3582 13.358 91.843 13.358C93.3544 13.358 94.6735 13.6165 95.8004 14.1335C96.9339 14.6506 97.8156 15.3698 98.4453 16.2912C99.075 17.2126 99.3999 18.2798 99.4197 19.4929H95.2933ZM106.9 13.6364V34H102.594V13.6364H106.9Z" fill="white"/>
<path d="M48.1641 36.8379H49.5566V37.4707H48.9863V38.0703H49.4941V38.6719H48.9863V40H48.1641V36.8379ZM51.6367 38.6895C51.6367 39.0072 51.6289 39.2324 51.6133 39.3652C51.599 39.4967 51.5521 39.6172 51.4727 39.7266C51.3945 39.8359 51.2884 39.9199 51.1543 39.9785C51.0202 40.0371 50.8639 40.0664 50.6855 40.0664C50.5163 40.0664 50.3639 40.0391 50.2285 39.9844C50.0944 39.9284 49.9863 39.8451 49.9043 39.7344C49.8223 39.6237 49.7734 39.5033 49.7578 39.373C49.7422 39.2428 49.7344 39.015 49.7344 38.6895V38.1484C49.7344 37.8307 49.7415 37.6061 49.7559 37.4746C49.7715 37.3418 49.8184 37.2207 49.8965 37.1113C49.9759 37.002 50.0827 36.918 50.2168 36.8594C50.3509 36.8008 50.5072 36.7715 50.6855 36.7715C50.8548 36.7715 51.0065 36.7995 51.1406 36.8555C51.276 36.9102 51.3848 36.9928 51.4668 37.1035C51.5488 37.2142 51.5977 37.3346 51.6133 37.4648C51.6289 37.5951 51.6367 37.8229 51.6367 38.1484V38.6895ZM50.8145 37.6504C50.8145 37.5033 50.806 37.4095 50.7891 37.3691C50.7734 37.3275 50.7402 37.3066 50.6895 37.3066C50.6465 37.3066 50.6133 37.3236 50.5898 37.3574C50.5677 37.39 50.5566 37.4876 50.5566 37.6504V39.127C50.5566 39.3105 50.5638 39.4238 50.5781 39.4668C50.5938 39.5098 50.6289 39.5312 50.6836 39.5312C50.7396 39.5312 50.7754 39.5065 50.791 39.457C50.8066 39.4076 50.8145 39.2897 50.8145 39.1035V37.6504ZM53.8242 38.6895C53.8242 39.0072 53.8164 39.2324 53.8008 39.3652C53.7865 39.4967 53.7396 39.6172 53.6602 39.7266C53.582 39.8359 53.4759 39.9199 53.3418 39.9785C53.2077 40.0371 53.0514 40.0664 52.873 40.0664C52.7038 40.0664 52.5514 40.0391 52.416 39.9844C52.2819 39.9284 52.1738 39.8451 52.0918 39.7344C52.0098 39.6237 51.9609 39.5033 51.9453 39.373C51.9297 39.2428 51.9219 39.015 51.9219 38.6895V38.1484C51.9219 37.8307 51.929 37.6061 51.9434 37.4746C51.959 37.3418 52.0059 37.2207 52.084 37.1113C52.1634 37.002 52.2702 36.918 52.4043 36.8594C52.5384 36.8008 52.6947 36.7715 52.873 36.7715C53.0423 36.7715 53.194 36.7995 53.3281 36.8555C53.4635 36.9102 53.5723 36.9928 53.6543 37.1035C53.7363 37.2142 53.7852 37.3346 53.8008 37.4648C53.8164 37.5951 53.8242 37.8229 53.8242 38.1484V38.6895ZM53.002 37.6504C53.002 37.5033 52.9935 37.4095 52.9766 37.3691C52.9609 37.3275 52.9277 37.3066 52.877 37.3066C52.834 37.3066 52.8008 37.3236 52.7773 37.3574C52.7552 37.39 52.7441 37.4876 52.7441 37.6504V39.127C52.7441 39.3105 52.7513 39.4238 52.7656 39.4668C52.7812 39.5098 52.8164 39.5312 52.8711 39.5312C52.9271 39.5312 52.9629 39.5065 52.9785 39.457C52.9941 39.4076 53.002 39.2897 53.002 39.1035V37.6504ZM55.7891 36.8379V37.4707H55.3008V40H54.4785V37.4707H53.9922V36.8379H55.7891ZM55.9766 36.8379H56.7969C57.056 36.8379 57.252 36.8581 57.3848 36.8984C57.5189 36.9388 57.627 37.0208 57.709 37.1445C57.791 37.2669 57.832 37.4648 57.832 37.7383C57.832 37.9232 57.8027 38.0521 57.7441 38.125C57.6868 38.1979 57.5729 38.2539 57.4023 38.293C57.5924 38.3359 57.7214 38.4076 57.7891 38.5078C57.8568 38.6068 57.8906 38.7591 57.8906 38.9648V39.2578C57.8906 39.4714 57.8659 39.6296 57.8164 39.7324C57.7682 39.8353 57.6908 39.9056 57.584 39.9434C57.4772 39.9811 57.2585 40 56.9277 40H55.9766V36.8379ZM56.7988 37.3789V38.082C56.834 38.0807 56.8613 38.0801 56.8809 38.0801C56.9616 38.0801 57.013 38.0605 57.0352 38.0215C57.0573 37.9811 57.0684 37.8672 57.0684 37.6797C57.0684 37.5807 57.0592 37.5117 57.041 37.4727C57.0228 37.4323 56.9987 37.4069 56.9688 37.3965C56.9401 37.3861 56.8835 37.3802 56.7988 37.3789ZM56.7988 38.5742V39.459C56.9147 39.4551 56.9883 39.4368 57.0195 39.4043C57.0521 39.3717 57.0684 39.2917 57.0684 39.1641V38.8691C57.0684 38.7337 57.054 38.6517 57.0254 38.623C56.9967 38.5944 56.9212 38.5781 56.7988 38.5742ZM59.6074 36.8379L60.0781 40H59.2363L59.1953 39.4316H58.9004L58.8516 40H58L58.418 36.8379H59.6074ZM59.1719 38.8711C59.1302 38.513 59.0885 38.071 59.0469 37.5449C58.9635 38.1491 58.9115 38.5911 58.8906 38.8711H59.1719ZM61.041 36.8379V39.3672H61.541V40H60.2188V36.8379H61.041ZM62.5645 36.8379V39.3672H63.0645V40H61.7422V36.8379H62.5645ZM65.3926 36.8379L65.8633 40H65.0215L64.9805 39.4316H64.6855L64.6367 40H63.7852L64.2031 36.8379H65.3926ZM64.957 38.8711C64.9154 38.513 64.8737 38.071 64.832 37.5449C64.7487 38.1491 64.6966 38.5911 64.6758 38.8711H64.957ZM67.7461 37.7949H66.9824V37.5605C66.9824 37.4512 66.9727 37.3815 66.9531 37.3516C66.9336 37.3216 66.901 37.3066 66.8555 37.3066C66.806 37.3066 66.7682 37.3268 66.7422 37.3672C66.7174 37.4076 66.7051 37.4688 66.7051 37.5508C66.7051 37.6562 66.7194 37.7357 66.748 37.7891C66.7754 37.8424 66.8529 37.9069 66.9805 37.9824C67.3464 38.1999 67.5768 38.3783 67.6719 38.5176C67.7669 38.6569 67.8145 38.8815 67.8145 39.1914C67.8145 39.4167 67.7878 39.5827 67.7344 39.6895C67.6823 39.7962 67.5807 39.8861 67.4297 39.959C67.2786 40.0306 67.1029 40.0664 66.9023 40.0664C66.6823 40.0664 66.4941 40.0247 66.3379 39.9414C66.1829 39.8581 66.0814 39.752 66.0332 39.623C65.985 39.4941 65.9609 39.3112 65.9609 39.0742V38.8672H66.7246V39.252C66.7246 39.3704 66.735 39.4466 66.7559 39.4805C66.778 39.5143 66.8164 39.5312 66.8711 39.5312C66.9258 39.5312 66.9661 39.5098 66.9922 39.4668C67.0195 39.4238 67.0332 39.36 67.0332 39.2754C67.0332 39.0892 67.0078 38.9674 66.957 38.9102C66.9049 38.8529 66.7767 38.7572 66.5723 38.623C66.3678 38.4876 66.2324 38.3893 66.166 38.3281C66.0996 38.2669 66.0443 38.1823 66 38.0742C65.957 37.9661 65.9355 37.8281 65.9355 37.6602C65.9355 37.418 65.9661 37.2409 66.0273 37.1289C66.0898 37.0169 66.1901 36.9297 66.3281 36.8672C66.4661 36.8034 66.6328 36.7715 66.8281 36.7715C67.0417 36.7715 67.2233 36.806 67.373 36.875C67.5241 36.944 67.6237 37.0312 67.6719 37.1367C67.7214 37.2409 67.7461 37.4186 67.7461 37.6699V37.7949ZM69.8164 37.7949H69.0527V37.5605C69.0527 37.4512 69.043 37.3815 69.0234 37.3516C69.0039 37.3216 68.9714 37.3066 68.9258 37.3066C68.8763 37.3066 68.8385 37.3268 68.8125 37.3672C68.7878 37.4076 68.7754 37.4688 68.7754 37.5508C68.7754 37.6562 68.7897 37.7357 68.8184 37.7891C68.8457 37.8424 68.9232 37.9069 69.0508 37.9824C69.4167 38.1999 69.6471 38.3783 69.7422 38.5176C69.8372 38.6569 69.8848 38.8815 69.8848 39.1914C69.8848 39.4167 69.8581 39.5827 69.8047 39.6895C69.7526 39.7962 69.651 39.8861 69.5 39.959C69.349 40.0306 69.1732 40.0664 68.9727 40.0664C68.7526 40.0664 68.5645 40.0247 68.4082 39.9414C68.2533 39.8581 68.1517 39.752 68.1035 39.623C68.0553 39.4941 68.0312 39.3112 68.0312 39.0742V38.8672H68.7949V39.252C68.7949 39.3704 68.8053 39.4466 68.8262 39.4805C68.8483 39.5143 68.8867 39.5312 68.9414 39.5312C68.9961 39.5312 69.0365 39.5098 69.0625 39.4668C69.0898 39.4238 69.1035 39.36 69.1035 39.2754C69.1035 39.0892 69.0781 38.9674 69.0273 38.9102C68.9753 38.8529 68.847 38.7572 68.6426 38.623C68.4382 38.4876 68.3027 38.3893 68.2363 38.3281C68.1699 38.2669 68.1146 38.1823 68.0703 38.0742C68.0273 37.9661 68.0059 37.8281 68.0059 37.6602C68.0059 37.418 68.0365 37.2409 68.0977 37.1289C68.1602 37.0169 68.2604 36.9297 68.3984 36.8672C68.5365 36.8034 68.7031 36.7715 68.8984 36.7715C69.112 36.7715 69.2936 36.806 69.4434 36.875C69.5944 36.944 69.694 37.0312 69.7422 37.1367C69.7917 37.2409 69.8164 37.4186 69.8164 37.6699V37.7949ZM72.0234 38.6895C72.0234 39.0072 72.0156 39.2324 72 39.3652C71.9857 39.4967 71.9388 39.6172 71.8594 39.7266C71.7812 39.8359 71.6751 39.9199 71.541 39.9785C71.4069 40.0371 71.2507 40.0664 71.0723 40.0664C70.903 40.0664 70.7507 40.0391 70.6152 39.9844C70.4811 39.9284 70.373 39.8451 70.291 39.7344C70.209 39.6237 70.1602 39.5033 70.1445 39.373C70.1289 39.2428 70.1211 39.015 70.1211 38.6895V38.1484C70.1211 37.8307 70.1283 37.6061 70.1426 37.4746C70.1582 37.3418 70.2051 37.2207 70.2832 37.1113C70.3626 37.002 70.4694 36.918 70.6035 36.8594C70.7376 36.8008 70.8939 36.7715 71.0723 36.7715C71.2415 36.7715 71.3932 36.7995 71.5273 36.8555C71.6628 36.9102 71.7715 36.9928 71.8535 37.1035C71.9355 37.2142 71.9844 37.3346 72 37.4648C72.0156 37.5951 72.0234 37.8229 72.0234 38.1484V38.6895ZM71.2012 37.6504C71.2012 37.5033 71.1927 37.4095 71.1758 37.3691C71.1602 37.3275 71.127 37.3066 71.0762 37.3066C71.0332 37.3066 71 37.3236 70.9766 37.3574C70.9544 37.39 70.9434 37.4876 70.9434 37.6504V39.127C70.9434 39.3105 70.9505 39.4238 70.9648 39.4668C70.9805 39.5098 71.0156 39.5312 71.0703 39.5312C71.1263 39.5312 71.1621 39.5065 71.1777 39.457C71.1934 39.4076 71.2012 39.2897 71.2012 39.1035V37.6504ZM74.252 38.2168H73.4297V37.666C73.4297 37.5059 73.4206 37.4062 73.4023 37.3672C73.3854 37.3268 73.347 37.3066 73.2871 37.3066C73.2194 37.3066 73.1764 37.3307 73.1582 37.3789C73.14 37.4271 73.1309 37.5312 73.1309 37.6914V39.1602C73.1309 39.3138 73.14 39.4141 73.1582 39.4609C73.1764 39.5078 73.2174 39.5312 73.2812 39.5312C73.3424 39.5312 73.3822 39.5078 73.4004 39.4609C73.4199 39.4141 73.4297 39.304 73.4297 39.1309V38.7344H74.252V38.8574C74.252 39.1842 74.2285 39.416 74.1816 39.5527C74.1361 39.6895 74.0339 39.8092 73.875 39.9121C73.7174 40.015 73.5228 40.0664 73.291 40.0664C73.0501 40.0664 72.8516 40.0228 72.6953 39.9355C72.5391 39.8483 72.4355 39.7279 72.3848 39.5742C72.334 39.4193 72.3086 39.1868 72.3086 38.877V37.9531C72.3086 37.7253 72.3164 37.5547 72.332 37.4414C72.3477 37.3268 72.3939 37.2168 72.4707 37.1113C72.5488 37.0059 72.6562 36.9232 72.793 36.8633C72.931 36.8021 73.0892 36.7715 73.2676 36.7715C73.5098 36.7715 73.7096 36.8184 73.8672 36.9121C74.0247 37.0059 74.1283 37.123 74.1777 37.2637C74.2272 37.403 74.252 37.6204 74.252 37.916V38.2168ZM75.3691 36.8379V40H74.5469V36.8379H75.3691ZM77.1191 36.8379L77.5898 40H76.748L76.707 39.4316H76.4121L76.3633 40H75.5117L75.9297 36.8379H77.1191ZM76.6836 38.8711C76.6419 38.513 76.6003 38.071 76.5586 37.5449C76.4753 38.1491 76.4232 38.5911 76.4023 38.8711H76.6836ZM79.3867 36.8379V37.4707H78.8984V40H78.0762V37.4707H77.5898V36.8379H79.3867ZM80.3965 36.8379V40H79.5742V36.8379H80.3965ZM82.6055 38.6895C82.6055 39.0072 82.5977 39.2324 82.582 39.3652C82.5677 39.4967 82.5208 39.6172 82.4414 39.7266C82.3633 39.8359 82.2572 39.9199 82.123 39.9785C81.9889 40.0371 81.8327 40.0664 81.6543 40.0664C81.485 40.0664 81.3327 40.0391 81.1973 39.9844C81.0632 39.9284 80.9551 39.8451 80.873 39.7344C80.791 39.6237 80.7422 39.5033 80.7266 39.373C80.7109 39.2428 80.7031 39.015 80.7031 38.6895V38.1484C80.7031 37.8307 80.7103 37.6061 80.7246 37.4746C80.7402 37.3418 80.7871 37.2207 80.8652 37.1113C80.9447 37.002 81.0514 36.918 81.1855 36.8594C81.3197 36.8008 81.4759 36.7715 81.6543 36.7715C81.8236 36.7715 81.9753 36.7995 82.1094 36.8555C82.2448 36.9102 82.3535 36.9928 82.4355 37.1035C82.5176 37.2142 82.5664 37.3346 82.582 37.4648C82.5977 37.5951 82.6055 37.8229 82.6055 38.1484V38.6895ZM81.7832 37.6504C81.7832 37.5033 81.7747 37.4095 81.7578 37.3691C81.7422 37.3275 81.709 37.3066 81.6582 37.3066C81.6152 37.3066 81.582 37.3236 81.5586 37.3574C81.5365 37.39 81.5254 37.4876 81.5254 37.6504V39.127C81.5254 39.3105 81.5326 39.4238 81.5469 39.4668C81.5625 39.5098 81.5977 39.5312 81.6523 39.5312C81.7083 39.5312 81.7441 39.5065 81.7598 39.457C81.7754 39.4076 81.7832 39.2897 81.7832 39.1035V37.6504ZM84.75 36.8379V40H84.0293L83.6016 38.5625V40H82.9141V36.8379H83.6016L84.0625 38.2617V36.8379H84.75ZM87.668 38.6895C87.668 39.0072 87.6602 39.2324 87.6445 39.3652C87.6302 39.4967 87.5833 39.6172 87.5039 39.7266C87.4258 39.8359 87.3197 39.9199 87.1855 39.9785C87.0514 40.0371 86.8952 40.0664 86.7168 40.0664C86.5475 40.0664 86.3952 40.0391 86.2598 39.9844C86.1257 39.9284 86.0176 39.8451 85.9355 39.7344C85.8535 39.6237 85.8047 39.5033 85.7891 39.373C85.7734 39.2428 85.7656 39.015 85.7656 38.6895V38.1484C85.7656 37.8307 85.7728 37.6061 85.7871 37.4746C85.8027 37.3418 85.8496 37.2207 85.9277 37.1113C86.0072 37.002 86.1139 36.918 86.248 36.8594C86.3822 36.8008 86.5384 36.7715 86.7168 36.7715C86.8861 36.7715 87.0378 36.7995 87.1719 36.8555C87.3073 36.9102 87.416 36.9928 87.498 37.1035C87.5801 37.2142 87.6289 37.3346 87.6445 37.4648C87.6602 37.5951 87.668 37.8229 87.668 38.1484V38.6895ZM86.8457 37.6504C86.8457 37.5033 86.8372 37.4095 86.8203 37.3691C86.8047 37.3275 86.7715 37.3066 86.7207 37.3066C86.6777 37.3066 86.6445 37.3236 86.6211 37.3574C86.599 37.39 86.5879 37.4876 86.5879 37.6504V39.127C86.5879 39.3105 86.5951 39.4238 86.6094 39.4668C86.625 39.5098 86.6602 39.5312 86.7148 39.5312C86.7708 39.5312 86.8066 39.5065 86.8223 39.457C86.8379 39.4076 86.8457 39.2897 86.8457 39.1035V37.6504ZM87.9766 36.8379H89.3691V37.4707H88.7988V38.0703H89.3066V38.6719H88.7988V40H87.9766V36.8379ZM91.0996 36.8379V40H90.2773V36.8379H91.0996ZM93.2656 36.8379V40H92.5449L92.1172 38.5625V40H91.4297V36.8379H92.1172L92.5781 38.2617V36.8379H93.2656ZM93.5977 36.8379H94.2129C94.61 36.8379 94.8783 36.8561 95.0176 36.8926C95.1582 36.929 95.265 36.9889 95.3379 37.0723C95.4108 37.1556 95.4564 37.2487 95.4746 37.3516C95.4928 37.4531 95.502 37.6536 95.502 37.9531V39.0605C95.502 39.3444 95.4883 39.5345 95.4609 39.6309C95.4349 39.7259 95.3887 39.8008 95.3223 39.8555C95.2559 39.9089 95.1738 39.9466 95.0762 39.9688C94.9785 39.9896 94.8314 40 94.6348 40H93.5977V36.8379ZM94.4199 37.3789V39.459C94.5384 39.459 94.6113 39.4355 94.6387 39.3887C94.666 39.3405 94.6797 39.2109 94.6797 39V37.7715C94.6797 37.6283 94.6751 37.5365 94.666 37.4961C94.6569 37.4557 94.6361 37.4264 94.6035 37.4082C94.571 37.3887 94.5098 37.3789 94.4199 37.3789ZM97.6875 38.6895C97.6875 39.0072 97.6797 39.2324 97.6641 39.3652C97.6497 39.4967 97.6029 39.6172 97.5234 39.7266C97.4453 39.8359 97.3392 39.9199 97.2051 39.9785C97.071 40.0371 96.9147 40.0664 96.7363 40.0664C96.5671 40.0664 96.4147 40.0391 96.2793 39.9844C96.1452 39.9284 96.0371 39.8451 95.9551 39.7344C95.873 39.6237 95.8242 39.5033 95.8086 39.373C95.793 39.2428 95.7852 39.015 95.7852 38.6895V38.1484C95.7852 37.8307 95.7923 37.6061 95.8066 37.4746C95.8223 37.3418 95.8691 37.2207 95.9473 37.1113C96.0267 37.002 96.1335 36.918 96.2676 36.8594C96.4017 36.8008 96.5579 36.7715 96.7363 36.7715C96.9056 36.7715 97.0573 36.7995 97.1914 36.8555C97.3268 36.9102 97.4355 36.9928 97.5176 37.1035C97.5996 37.2142 97.6484 37.3346 97.6641 37.4648C97.6797 37.5951 97.6875 37.8229 97.6875 38.1484V38.6895ZM96.8652 37.6504C96.8652 37.5033 96.8568 37.4095 96.8398 37.3691C96.8242 37.3275 96.791 37.3066 96.7402 37.3066C96.6973 37.3066 96.6641 37.3236 96.6406 37.3574C96.6185 37.39 96.6074 37.4876 96.6074 37.6504V39.127C96.6074 39.3105 96.6146 39.4238 96.6289 39.4668C96.6445 39.5098 96.6797 39.5312 96.7344 39.5312C96.7904 39.5312 96.8262 39.5065 96.8418 39.457C96.8574 39.4076 96.8652 39.2897 96.8652 39.1035V37.6504ZM99.832 36.8379V40H99.1113L98.6836 38.5625V40H97.9961V36.8379H98.6836L99.1445 38.2617V36.8379H99.832ZM100.164 36.8379H101.535V37.4707H100.986V38.0703H101.5V38.6719H100.986V39.3672H101.59V40H100.164V36.8379ZM103.57 37.7949H102.807V37.5605C102.807 37.4512 102.797 37.3815 102.777 37.3516C102.758 37.3216 102.725 37.3066 102.68 37.3066C102.63 37.3066 102.592 37.3268 102.566 37.3672C102.542 37.4076 102.529 37.4688 102.529 37.5508C102.529 37.6562 102.544 37.7357 102.572 37.7891C102.6 37.8424 102.677 37.9069 102.805 37.9824C103.171 38.1999 103.401 38.3783 103.496 38.5176C103.591 38.6569 103.639 38.8815 103.639 39.1914C103.639 39.4167 103.612 39.5827 103.559 39.6895C103.507 39.7962 103.405 39.8861 103.254 39.959C103.103 40.0306 102.927 40.0664 102.727 40.0664C102.507 40.0664 102.318 40.0247 102.162 39.9414C102.007 39.8581 101.906 39.752 101.857 39.623C101.809 39.4941 101.785 39.3112 101.785 39.0742V38.8672H102.549V39.252C102.549 39.3704 102.559 39.4466 102.58 39.4805C102.602 39.5143 102.641 39.5312 102.695 39.5312C102.75 39.5312 102.79 39.5098 102.816 39.4668C102.844 39.4238 102.857 39.36 102.857 39.2754C102.857 39.0892 102.832 38.9674 102.781 38.9102C102.729 38.8529 102.601 38.7572 102.396 38.623C102.192 38.4876 102.057 38.3893 101.99 38.3281C101.924 38.2669 101.868 38.1823 101.824 38.0742C101.781 37.9661 101.76 37.8281 101.76 37.6602C101.76 37.418 101.79 37.2409 101.852 37.1289C101.914 37.0169 102.014 36.9297 102.152 36.8672C102.29 36.8034 102.457 36.7715 102.652 36.7715C102.866 36.7715 103.048 36.806 103.197 36.875C103.348 36.944 103.448 37.0312 103.496 37.1367C103.546 37.2409 103.57 37.4186 103.57 37.6699V37.7949ZM104.721 36.8379V40H103.898V36.8379H104.721ZM106.471 36.8379L106.941 40H106.1L106.059 39.4316H105.764L105.715 40H104.863L105.281 36.8379H106.471ZM106.035 38.8711C105.993 38.513 105.952 38.071 105.91 37.5449C105.827 38.1491 105.775 38.5911 105.754 38.8711H106.035Z" fill="white"/>
<mask id="path-3-outside-1_4346_6127" maskUnits="userSpaceOnUse" x="4" y="2" width="39" height="48" fill="black">
<rect fill="white" x="4" y="2" width="39" height="48"/>
<path fill-rule="evenodd" clip-rule="evenodd" d="M21.5864 3.01952C22.0812 3.01954 22.5797 3.09701 23.0481 3.21762C23.2021 3.25569 23.3354 3.27857 23.4691 3.27876C23.5889 3.27878 23.7092 3.26055 23.845 3.21866C24.3018 3.08376 24.8413 2.99964 25.3798 3C25.9853 3.00023 26.5897 3.10723 27.0738 3.36894C27.1817 3.44485 27.1817 3.44485 27.3473 3.5884L27.5019 3.68042C27.5692 3.72117 27.6041 3.7423 27.6367 3.76655C27.6719 3.79268 27.7043 3.82243 27.7717 3.88425C27.9726 4.02637 28.1085 4.04094 28.3522 4.06322C28.7555 4.10632 29.136 4.18594 29.5263 4.29511L29.6782 4.3333C30.4887 4.54995 31.2201 5.0477 31.7097 5.73039C31.7362 5.77689 31.7498 5.80085 31.7568 5.82661C31.7643 5.854 31.7643 5.88341 31.7643 5.94411L31.8703 5.95745C32.4958 6.05667 32.9856 6.37789 33.4721 6.76861L33.6525 6.90112C33.9714 7.17146 34.1899 7.55058 34.3739 7.9207C34.5221 8.19668 34.7266 8.37361 34.9629 8.57542C35.7865 9.28653 36.4978 10.1326 36.9677 11.1172C37.1759 11.5508 37.4223 11.9219 37.7124 12.3045C37.8524 12.4991 37.9888 12.696 38.1247 12.8934L38.1923 12.991C38.9078 14.0252 39.412 15.1108 39.8178 16.3019L39.8905 16.5149C39.9504 16.7216 39.9815 16.9206 40.0092 17.1337C40.0317 17.2274 40.0595 17.3127 40.0934 17.3931C40.1233 17.463 40.1576 17.5294 40.1957 17.5935C40.249 17.6819 40.3116 17.7672 40.3847 17.8552C40.4165 17.8949 40.4472 17.9355 40.4767 17.9768C40.4867 17.9887 40.4968 18.0006 40.507 18.0125C40.55 18.0712 40.5813 18.1203 40.6044 18.1718C41.1376 19.0601 41.2284 20.239 41.209 21.2378C41.2089 21.6497 41.2761 21.8958 41.5066 22.2375C41.7731 22.6332 41.8843 23.0441 41.9453 23.5125L41.9677 23.6828C42.0497 24.4054 41.97 25.0939 41.7918 25.796C41.6731 26.2637 41.6526 26.5831 41.7834 27.0594C42.1099 28.3509 42.0425 30.2065 41.3607 31.3741C41.2655 31.5185 41.234 31.5664 41.1966 31.6091C41.178 31.6304 41.1581 31.6503 41.1282 31.6802C41.121 31.792 41.1176 31.9041 41.1158 32.0161L41.1111 32.23L41.1061 32.4605C41.0859 33.192 41.0239 33.9047 40.8926 34.6249L40.8668 34.7731C40.776 35.2666 40.6027 35.7004 40.381 36.1487L40.3196 36.274C40.195 36.5196 40.0618 36.7149 39.873 36.918C39.6091 37.2246 39.5642 37.5768 39.5158 37.9563C39.5101 38.0006 39.5044 38.0453 39.4983 38.0903C39.3543 39.048 38.9523 39.8615 38.3013 40.573L38.1746 40.7143C37.7652 41.1481 37.2889 41.5217 36.7112 41.692L36.7244 41.8371C36.7073 42.1077 36.6153 42.3063 36.5014 42.5496L36.4364 42.6911C36.3721 42.8297 36.3064 42.9677 36.2401 43.1054L36.1859 43.2188C35.751 44.1138 35.0889 44.8831 34.2377 45.4022L34.1369 45.4703C33.8344 45.6702 33.5324 45.7974 33.1887 45.9102L33.0448 45.9612C32.1652 46.2547 31.2567 46.3132 30.3362 46.3022C30.1787 46.3003 30.0213 46.2998 29.8638 46.2994L29.5599 46.2976L29.419 46.2968C29.1921 46.2939 28.9817 46.2781 28.7607 46.2267C28.4188 46.1956 28.2664 46.2559 27.9951 46.4623C27.1437 46.9874 26.227 47.4189 25.2861 47.7579L25.0811 47.8322C23.7627 48.235 22.2058 48.1001 20.9869 47.4635C20.8817 47.4149 20.7762 47.367 20.6703 47.3199C20.197 47.1058 19.7421 46.8762 19.2988 46.6049C19.1744 46.5292 19.0489 46.4565 18.922 46.385C18.8004 46.3152 18.7643 46.2944 18.7331 46.2678C18.7199 46.2565 18.7076 46.2442 18.6901 46.2267C18.6044 46.2209 18.5183 46.2191 18.4324 46.2194L18.2912 46.2189C18.2284 46.2201 18.1935 46.2208 18.1596 46.2268C18.117 46.2342 18.0759 46.25 17.9834 46.2856C17.8248 46.2928 17.6678 46.2967 17.5092 46.2976L17.3661 46.2988C15.3774 46.3124 13.4508 46.2112 11.9258 44.7713C11.1552 44.0087 10.4435 42.8942 10.3204 41.7966C10.2997 41.7408 10.2884 41.7105 10.2673 41.6908C10.2421 41.6673 10.203 41.6587 10.1173 41.64L9.91507 41.5742C9.74956 41.4707 9.5964 41.3525 9.44201 41.2332L9.44025 41.2319L9.31636 41.1388C9.08678 40.9642 8.87101 40.7882 8.67832 40.573V40.4552H8.56054C7.98394 39.7942 7.579 38.7864 7.45768 37.9314L7.43613 37.7797C7.42288 37.681 7.41092 37.5822 7.40044 37.4831C7.35956 37.1609 7.28541 37.0205 7.02933 36.8039C6.11726 35.6565 5.89362 34.032 5.91313 32.6094L5.91511 32.4482C5.91683 32.3426 5.91939 32.2371 5.92287 32.1315L5.92555 31.985L5.92949 31.8542C5.906 31.7129 5.85056 31.6645 5.74923 31.576C5.74416 31.5716 5.73898 31.5671 5.73369 31.5624C5.02735 30.3955 5.02438 29.0372 5.1374 27.7197L5.15137 27.5549C5.17965 27.2534 5.22402 26.9654 5.29908 26.6718C5.35837 26.3662 5.26744 26.0331 5.1832 25.7245C5.16388 25.6538 5.14492 25.5843 5.1282 25.5167C4.84241 24.1872 5.03029 22.9408 5.73369 21.7862L5.79258 21.7274C5.80189 21.5843 5.80779 21.4425 5.81167 21.2992C5.87721 19.4514 5.89834 18.8554 6.16137 18.3988C6.28658 18.1815 6.46661 17.9957 6.73233 17.7215C6.8955 17.4835 6.96404 17.2248 7.03644 16.9515C7.045 16.9192 7.05362 16.8867 7.06245 16.854C7.23617 16.2284 7.43292 15.6157 7.68101 15.0243L7.67565 15.0136C7.73947 14.8535 7.80697 14.701 7.88178 14.5461L7.9472 14.4091C8.11539 14.0633 8.30625 13.74 8.52027 13.4218L8.55317 13.3646C8.72804 13.0742 8.92808 12.8014 9.13488 12.5334C9.21495 12.426 9.29586 12.3191 9.37678 12.2123C9.40443 12.1758 9.43207 12.1393 9.45969 12.1028L9.54466 11.9897C9.60039 11.9168 9.65853 11.8457 9.7178 11.7756C9.72022 11.772 9.7226 11.7683 9.72496 11.7646C9.77136 11.6863 9.80845 11.6103 9.84184 11.5311C9.86502 11.4733 9.88592 11.4143 9.90727 11.354C9.91197 11.3407 9.91669 11.3274 9.92146 11.314C10.0066 11.0996 10.1236 10.9045 10.2418 10.7073C10.2477 10.6974 10.2536 10.6875 10.2596 10.6776L10.3348 10.5483C10.4895 10.2872 10.6567 10.0599 10.8559 9.83103L10.9736 9.68173C11.2267 9.36198 11.4927 9.06399 11.7797 8.77464L11.8751 8.67766C12.0248 8.52907 12.1592 8.41277 12.3394 8.29982C12.5361 8.15981 12.5958 8.04259 12.6963 7.825C13.0419 7.143 13.5633 6.64422 14.2385 6.2901L14.3532 6.22822C14.6563 6.06756 14.9233 5.94411 15.2728 5.94411L15.3096 5.7932C15.5822 5.11186 16.2914 4.76708 16.9218 4.47179L17.0297 4.41037C17.1947 4.33753 17.3608 4.3072 17.5361 4.2752C17.5533 4.27205 17.5706 4.26889 17.588 4.26567C17.8147 4.2235 18.0336 4.17945 18.2547 4.11384C18.4876 4.05006 18.6991 4.04529 18.9391 4.0439C19.1247 3.99426 19.2116 3.89987 19.3344 3.76646C19.3423 3.75786 19.3504 3.7491 19.3586 3.74018C19.519 3.58435 19.7069 3.49327 19.9069 3.397L20.034 3.33569C20.5181 3.11014 21.05 3.01933 21.5864 3.01952Z"/>
</mask>
<path fill-rule="evenodd" clip-rule="evenodd" d="M21.5864 3.01952C22.0812 3.01954 22.5797 3.09701 23.0481 3.21762C23.2021 3.25569 23.3354 3.27857 23.4691 3.27876C23.5889 3.27878 23.7092 3.26055 23.845 3.21866C24.3018 3.08376 24.8413 2.99964 25.3798 3C25.9853 3.00023 26.5897 3.10723 27.0738 3.36894C27.1817 3.44485 27.1817 3.44485 27.3473 3.5884L27.5019 3.68042C27.5692 3.72117 27.6041 3.7423 27.6367 3.76655C27.6719 3.79268 27.7043 3.82243 27.7717 3.88425C27.9726 4.02637 28.1085 4.04094 28.3522 4.06322C28.7555 4.10632 29.136 4.18594 29.5263 4.29511L29.6782 4.3333C30.4887 4.54995 31.2201 5.0477 31.7097 5.73039C31.7362 5.77689 31.7498 5.80085 31.7568 5.82661C31.7643 5.854 31.7643 5.88341 31.7643 5.94411L31.8703 5.95745C32.4958 6.05667 32.9856 6.37789 33.4721 6.76861L33.6525 6.90112C33.9714 7.17146 34.1899 7.55058 34.3739 7.9207C34.5221 8.19668 34.7266 8.37361 34.9629 8.57542C35.7865 9.28653 36.4978 10.1326 36.9677 11.1172C37.1759 11.5508 37.4223 11.9219 37.7124 12.3045C37.8524 12.4991 37.9888 12.696 38.1247 12.8934L38.1923 12.991C38.9078 14.0252 39.412 15.1108 39.8178 16.3019L39.8905 16.5149C39.9504 16.7216 39.9815 16.9206 40.0092 17.1337C40.0317 17.2274 40.0595 17.3127 40.0934 17.3931C40.1233 17.463 40.1576 17.5294 40.1957 17.5935C40.249 17.6819 40.3116 17.7672 40.3847 17.8552C40.4165 17.8949 40.4472 17.9355 40.4767 17.9768C40.4867 17.9887 40.4968 18.0006 40.507 18.0125C40.55 18.0712 40.5813 18.1203 40.6044 18.1718C41.1376 19.0601 41.2284 20.239 41.209 21.2378C41.2089 21.6497 41.2761 21.8958 41.5066 22.2375C41.7731 22.6332 41.8843 23.0441 41.9453 23.5125L41.9677 23.6828C42.0497 24.4054 41.97 25.0939 41.7918 25.796C41.6731 26.2637 41.6526 26.5831 41.7834 27.0594C42.1099 28.3509 42.0425 30.2065 41.3607 31.3741C41.2655 31.5185 41.234 31.5664 41.1966 31.6091C41.178 31.6304 41.1581 31.6503 41.1282 31.6802C41.121 31.792 41.1176 31.9041 41.1158 32.0161L41.1111 32.23L41.1061 32.4605C41.0859 33.192 41.0239 33.9047 40.8926 34.6249L40.8668 34.7731C40.776 35.2666 40.6027 35.7004 40.381 36.1487L40.3196 36.274C40.195 36.5196 40.0618 36.7149 39.873 36.918C39.6091 37.2246 39.5642 37.5768 39.5158 37.9563C39.5101 38.0006 39.5044 38.0453 39.4983 38.0903C39.3543 39.048 38.9523 39.8615 38.3013 40.573L38.1746 40.7143C37.7652 41.1481 37.2889 41.5217 36.7112 41.692L36.7244 41.8371C36.7073 42.1077 36.6153 42.3063 36.5014 42.5496L36.4364 42.6911C36.3721 42.8297 36.3064 42.9677 36.2401 43.1054L36.1859 43.2188C35.751 44.1138 35.0889 44.8831 34.2377 45.4022L34.1369 45.4703C33.8344 45.6702 33.5324 45.7974 33.1887 45.9102L33.0448 45.9612C32.1652 46.2547 31.2567 46.3132 30.3362 46.3022C30.1787 46.3003 30.0213 46.2998 29.8638 46.2994L29.5599 46.2976L29.419 46.2968C29.1921 46.2939 28.9817 46.2781 28.7607 46.2267C28.4188 46.1956 28.2664 46.2559 27.9951 46.4623C27.1437 46.9874 26.227 47.4189 25.2861 47.7579L25.0811 47.8322C23.7627 48.235 22.2058 48.1001 20.9869 47.4635C20.8817 47.4149 20.7762 47.367 20.6703 47.3199C20.197 47.1058 19.7421 46.8762 19.2988 46.6049C19.1744 46.5292 19.0489 46.4565 18.922 46.385C18.8004 46.3152 18.7643 46.2944 18.7331 46.2678C18.7199 46.2565 18.7076 46.2442 18.6901 46.2267C18.6044 46.2209 18.5183 46.2191 18.4324 46.2194L18.2912 46.2189C18.2284 46.2201 18.1935 46.2208 18.1596 46.2268C18.117 46.2342 18.0759 46.25 17.9834 46.2856C17.8248 46.2928 17.6678 46.2967 17.5092 46.2976L17.3661 46.2988C15.3774 46.3124 13.4508 46.2112 11.9258 44.7713C11.1552 44.0087 10.4435 42.8942 10.3204 41.7966C10.2997 41.7408 10.2884 41.7105 10.2673 41.6908C10.2421 41.6673 10.203 41.6587 10.1173 41.64L9.91507 41.5742C9.74956 41.4707 9.5964 41.3525 9.44201 41.2332L9.44025 41.2319L9.31636 41.1388C9.08678 40.9642 8.87101 40.7882 8.67832 40.573V40.4552H8.56054C7.98394 39.7942 7.579 38.7864 7.45768 37.9314L7.43613 37.7797C7.42288 37.681 7.41092 37.5822 7.40044 37.4831C7.35956 37.1609 7.28541 37.0205 7.02933 36.8039C6.11726 35.6565 5.89362 34.032 5.91313 32.6094L5.91511 32.4482C5.91683 32.3426 5.91939 32.2371 5.92287 32.1315L5.92555 31.985L5.92949 31.8542C5.906 31.7129 5.85056 31.6645 5.74923 31.576C5.74416 31.5716 5.73898 31.5671 5.73369 31.5624C5.02735 30.3955 5.02438 29.0372 5.1374 27.7197L5.15137 27.5549C5.17965 27.2534 5.22402 26.9654 5.29908 26.6718C5.35837 26.3662 5.26744 26.0331 5.1832 25.7245C5.16388 25.6538 5.14492 25.5843 5.1282 25.5167C4.84241 24.1872 5.03029 22.9408 5.73369 21.7862L5.79258 21.7274C5.80189 21.5843 5.80779 21.4425 5.81167 21.2992C5.87721 19.4514 5.89834 18.8554 6.16137 18.3988C6.28658 18.1815 6.46661 17.9957 6.73233 17.7215C6.8955 17.4835 6.96404 17.2248 7.03644 16.9515C7.045 16.9192 7.05362 16.8867 7.06245 16.854C7.23617 16.2284 7.43292 15.6157 7.68101 15.0243L7.67565 15.0136C7.73947 14.8535 7.80697 14.701 7.88178 14.5461L7.9472 14.4091C8.11539 14.0633 8.30625 13.74 8.52027 13.4218L8.55317 13.3646C8.72804 13.0742 8.92808 12.8014 9.13488 12.5334C9.21495 12.426 9.29586 12.3191 9.37678 12.2123C9.40443 12.1758 9.43207 12.1393 9.45969 12.1028L9.54466 11.9897C9.60039 11.9168 9.65853 11.8457 9.7178 11.7756C9.72022 11.772 9.7226 11.7683 9.72496 11.7646C9.77136 11.6863 9.80845 11.6103 9.84184 11.5311C9.86502 11.4733 9.88592 11.4143 9.90727 11.354C9.91197 11.3407 9.91669 11.3274 9.92146 11.314C10.0066 11.0996 10.1236 10.9045 10.2418 10.7073C10.2477 10.6974 10.2536 10.6875 10.2596 10.6776L10.3348 10.5483C10.4895 10.2872 10.6567 10.0599 10.8559 9.83103L10.9736 9.68173C11.2267 9.36198 11.4927 9.06399 11.7797 8.77464L11.8751 8.67766C12.0248 8.52907 12.1592 8.41277 12.3394 8.29982C12.5361 8.15981 12.5958 8.04259 12.6963 7.825C13.0419 7.143 13.5633 6.64422 14.2385 6.2901L14.3532 6.22822C14.6563 6.06756 14.9233 5.94411 15.2728 5.94411L15.3096 5.7932C15.5822 5.11186 16.2914 4.76708 16.9218 4.47179L17.0297 4.41037C17.1947 4.33753 17.3608 4.3072 17.5361 4.2752C17.5533 4.27205 17.5706 4.26889 17.588 4.26567C17.8147 4.2235 18.0336 4.17945 18.2547 4.11384C18.4876 4.05006 18.6991 4.04529 18.9391 4.0439C19.1247 3.99426 19.2116 3.89987 19.3344 3.76646C19.3423 3.75786 19.3504 3.7491 19.3586 3.74018C19.519 3.58435 19.7069 3.49327 19.9069 3.397L20.034 3.33569C20.5181 3.11014 21.05 3.01933 21.5864 3.01952Z" fill="#1F4391"/>
<path d="M21.5864 3.01952L21.5861 4.01952L21.5864 4.01952L21.5864 3.01952ZM23.0481 3.21762L22.7986 4.18607L22.8082 4.18842L23.0481 3.21762ZM23.4691 3.27876L23.4677 4.27876L23.469 4.27876L23.4691 3.27876ZM23.845 3.21866L23.5618 2.25954L23.5504 2.26305L23.845 3.21866ZM25.3798 3L25.3791 4L25.3794 4L25.3798 3ZM27.0738 3.36894L27.6492 2.55109L27.6011 2.51724L27.5494 2.48926L27.0738 3.36894ZM27.3473 3.5884L26.6924 4.34409L26.7595 4.40226L26.8358 4.4477L27.3473 3.5884ZM27.5019 3.68042L28.0197 2.8249L28.0134 2.82113L27.5019 3.68042ZM27.6367 3.76655L27.0399 4.56895L27.04 4.56896L27.6367 3.76655ZM27.7717 3.88425L27.096 4.62134L27.1425 4.66403L27.1941 4.70052L27.7717 3.88425ZM28.3522 4.06322L28.4584 3.06888L28.4508 3.06808L28.4433 3.06738L28.3522 4.06322ZM29.5263 4.29511L29.257 5.25816L29.2697 5.2617L29.2824 5.26491L29.5263 4.29511ZM29.6782 4.3333L29.9364 3.36722L29.9293 3.36531L29.9221 3.36351L29.6782 4.3333ZM31.7097 5.73039L32.5791 5.23627L32.5531 5.19044L32.5224 5.1476L31.7097 5.73039ZM31.7568 5.82661L30.792 6.08945L30.792 6.08948L31.7568 5.82661ZM31.7643 5.94411H30.7643V6.82618L31.6394 6.93629L31.7643 5.94411ZM31.8703 5.95745L32.027 4.9698L32.0111 4.96728L31.9951 4.96527L31.8703 5.95745ZM33.4721 6.76861L32.846 7.5483L32.8627 7.56176L32.8801 7.57449L33.4721 6.76861ZM33.6525 6.90112L34.2992 6.13836L34.2726 6.11585L34.2446 6.09524L33.6525 6.90112ZM34.3739 7.9207L33.4786 8.36603L33.4855 8.37997L33.4929 8.39369L34.3739 7.9207ZM34.9629 8.57542L35.6164 7.81849L35.6124 7.81504L34.9629 8.57542ZM36.9677 11.1172L36.0653 11.548L36.0662 11.55L36.9677 11.1172ZM37.7124 12.3045L38.5241 11.7204L38.5168 11.7103L38.5093 11.7004L37.7124 12.3045ZM38.1247 12.8934L37.3007 13.4601L37.3031 13.4635L38.1247 12.8934ZM38.1923 12.991L39.0147 12.422L39.0139 12.4209L38.1923 12.991ZM39.8178 16.3019L38.8713 16.6244L38.8714 16.6248L39.8178 16.3019ZM39.8905 16.5149L40.8511 16.2368L40.8445 16.2142L40.8369 16.1919L39.8905 16.5149ZM40.0092 17.1337L39.0176 17.263L39.0245 17.3155L39.0368 17.367L40.0092 17.1337ZM40.0934 17.3931L39.1718 17.7813L39.174 17.7865L40.0934 17.3931ZM40.1957 17.5935L39.336 18.1043L39.3396 18.1103L40.1957 17.5935ZM40.3847 17.8552L41.165 17.2298L41.1596 17.223L41.154 17.2163L40.3847 17.8552ZM40.4767 17.9768L39.663 18.5581L39.686 18.5902L39.7114 18.6205L40.4767 17.9768ZM40.507 18.0125L41.3135 17.4213L41.2918 17.3917L41.268 17.3638L40.507 18.0125ZM40.6044 18.1718L39.692 18.5811L39.7164 18.6354L39.747 18.6864L40.6044 18.1718ZM41.209 21.2378L40.2092 21.2184L40.209 21.228L40.209 21.2375L41.209 21.2378ZM41.5066 22.2375L42.3361 21.6789L42.3356 21.6782L41.5066 22.2375ZM41.9453 23.5125L40.9537 23.6417L40.9538 23.6425L41.9453 23.5125ZM41.9677 23.6828L42.9613 23.57L42.9603 23.5614L42.9592 23.5528L41.9677 23.6828ZM41.7918 25.796L40.8226 25.55L40.8226 25.55L41.7918 25.796ZM41.7834 27.0594L42.7529 26.8143L42.7504 26.8045L42.7477 26.7946L41.7834 27.0594ZM41.3607 31.3741L42.1957 31.9244L42.2106 31.9017L42.2243 31.8783L41.3607 31.3741ZM41.1966 31.6091L41.9497 32.267L41.9497 32.267L41.1966 31.6091ZM41.1282 31.6802L40.4211 30.9731L40.1546 31.2396L40.1303 31.6158L41.1282 31.6802ZM41.1158 32.0161L42.1155 32.0381L42.1156 32.0324L41.1158 32.0161ZM41.1111 32.23L40.1113 32.208L40.1113 32.2085L41.1111 32.23ZM41.1061 32.4605L42.1057 32.4881L42.1059 32.482L41.1061 32.4605ZM40.8926 34.6249L39.9088 34.4455L39.9074 34.4535L40.8926 34.6249ZM40.8668 34.7731L41.8503 34.9543L41.852 34.9445L40.8668 34.7731ZM40.381 36.1487L39.4846 35.7055L39.4829 35.7089L40.381 36.1487ZM40.3196 36.274L41.2114 36.7266L41.2146 36.7202L41.2177 36.7138L40.3196 36.274ZM39.873 36.918L39.1407 36.2371L39.1276 36.2511L39.1151 36.2656L39.873 36.918ZM39.5158 37.9563L40.5077 38.0829L40.5077 38.0829L39.5158 37.9563ZM39.4983 38.0903L40.4872 38.239L40.4883 38.2318L40.4892 38.2246L39.4983 38.0903ZM38.3013 40.573L37.5635 39.898L37.5571 39.9051L38.3013 40.573ZM38.1746 40.7143L38.9019 41.4006L38.9105 41.3915L38.9188 41.3822L38.1746 40.7143ZM36.7112 41.692L36.4285 40.7328L35.6415 40.9648L35.7153 41.7819L36.7112 41.692ZM36.7244 41.8371L37.7224 41.9L37.7272 41.8235L37.7203 41.7472L36.7244 41.8371ZM36.5014 42.5496L35.5957 42.1256L35.5927 42.1321L36.5014 42.5496ZM36.4364 42.6911L37.3434 43.1123L37.3451 43.1086L36.4364 42.6911ZM36.2401 43.1054L35.3391 42.6716L35.338 42.6738L36.2401 43.1054ZM36.1859 43.2188L37.0854 43.6557L37.0879 43.6503L36.1859 43.2188ZM34.2377 45.4022L33.717 44.5485L33.6975 44.5604L33.6785 44.5732L34.2377 45.4022ZM34.1369 45.4703L34.6883 46.3045L34.6961 46.2993L34.1369 45.4703ZM33.1887 45.9102L32.877 44.96L32.8656 44.9637L32.8542 44.9678L33.1887 45.9102ZM33.0448 45.9612L33.3613 46.9099L33.3703 46.9068L33.3793 46.9036L33.0448 45.9612ZM30.3362 46.3022L30.3482 45.3022L30.3481 45.3022L30.3362 46.3022ZM29.8638 46.2994L29.8578 47.2994L29.8616 47.2994L29.8638 46.2994ZM29.5599 46.2976L29.566 45.2976L29.5653 45.2976L29.5599 46.2976ZM29.419 46.2968L29.406 47.2968L29.4136 47.2968L29.419 46.2968ZM28.7607 46.2267L28.9873 45.2527L28.92 45.2371L28.8513 45.2308L28.7607 46.2267ZM27.9951 46.4623L28.5201 47.3134L28.5617 47.2877L28.6006 47.2581L27.9951 46.4623ZM25.2861 47.7579L24.9471 46.8171L24.9452 46.8178L25.2861 47.7579ZM25.0811 47.8322L25.3732 48.7886L25.3978 48.7811L25.4219 48.7724L25.0811 47.8322ZM20.9869 47.4635L21.4499 46.5771L21.4281 46.5657L21.4059 46.5555L20.9869 47.4635ZM20.6703 47.3199L20.2581 48.231L20.2641 48.2337L20.6703 47.3199ZM19.2988 46.6049L19.8208 45.752L19.8187 45.7507L19.2988 46.6049ZM18.922 46.385L18.4238 47.2521L18.4312 47.2563L18.922 46.385ZM18.7331 46.2678L19.3822 45.5071L19.3822 45.5071L18.7331 46.2678ZM18.6901 46.2267L19.3972 45.5196L19.1319 45.2543L18.7577 45.229L18.6901 46.2267ZM18.4324 46.2194L18.4292 47.2194L18.4357 47.2193L18.4324 46.2194ZM18.2912 46.2189L18.2944 45.2189L18.2831 45.2189L18.2717 45.2191L18.2912 46.2189ZM18.1596 46.2268L18.3326 47.2117L18.3327 47.2117L18.1596 46.2268ZM17.9834 46.2856L18.0284 47.2846L18.1906 47.2773L18.3421 47.2191L17.9834 46.2856ZM17.5092 46.2976L17.5035 45.2976L17.5004 45.2976L17.5092 46.2976ZM17.3661 46.2988L17.3729 47.2988L17.375 47.2988L17.3661 46.2988ZM11.9258 44.7713L11.2224 45.4821L11.2307 45.4903L11.2392 45.4984L11.9258 44.7713ZM10.3204 41.7966L11.3142 41.6852L11.3005 41.5633L11.2578 41.4482L10.3204 41.7966ZM10.2673 41.6908L10.95 40.9601L10.95 40.9601L10.2673 41.6908ZM10.1173 41.64L9.80789 42.5909L9.85517 42.6063L9.90375 42.6169L10.1173 41.64ZM9.91507 41.5742L9.38499 42.4221L9.48901 42.4872L9.60567 42.5251L9.91507 41.5742ZM9.44201 41.2332L8.83056 42.0245L8.83083 42.0247L9.44201 41.2332ZM9.44025 41.2319L10.0518 40.4405L10.0408 40.4323L9.44025 41.2319ZM9.31636 41.1388L8.71092 41.9347L8.71578 41.9384L9.31636 41.1388ZM8.67832 40.573H7.67832V40.9553L7.93329 41.24L8.67832 40.573ZM8.67832 40.4552H9.67832V39.4552H8.67832V40.4552ZM8.56054 40.4552L7.80692 41.1125L8.10582 41.4552H8.56054V40.4552ZM7.45768 37.9314L8.44776 37.7909L8.44773 37.7906L7.45768 37.9314ZM7.43613 37.7797L6.44499 37.9128L6.44607 37.9204L7.43613 37.7797ZM7.40044 37.4831L8.39489 37.3779L8.39379 37.3676L8.39249 37.3573L7.40044 37.4831ZM7.02933 36.8039L6.24652 37.4262L6.30802 37.5035L6.38348 37.5674L7.02933 36.8039ZM5.91313 32.6094L6.91303 32.6231L6.91305 32.6217L5.91313 32.6094ZM5.91511 32.4482L4.91523 32.4319L4.91518 32.4358L5.91511 32.4482ZM5.92287 32.1315L6.92233 32.1645L6.92257 32.1572L6.92271 32.1498L5.92287 32.1315ZM5.92555 31.985L4.92593 31.9549L4.92571 31.9668L5.92555 31.985ZM5.92949 31.8542L6.92903 31.8843L6.93197 31.7867L6.91596 31.6903L5.92949 31.8542ZM5.74923 31.576L5.09157 32.3293L5.09163 32.3294L5.74923 31.576ZM5.73369 31.5624L4.87821 32.0803L4.9584 32.2128L5.07491 32.3148L5.73369 31.5624ZM5.1374 27.7197L6.13374 27.8052L6.13382 27.8042L5.1374 27.7197ZM5.15137 27.5549L4.1557 27.4615L4.15495 27.4704L5.15137 27.5549ZM5.29908 26.6718L6.26791 26.9195L6.27519 26.8911L6.28078 26.8622L5.29908 26.6718ZM5.1832 25.7245L4.2185 25.9879L4.2185 25.9879L5.1832 25.7245ZM5.1282 25.5167L4.15053 25.7269L4.15378 25.742L4.15749 25.757L5.1282 25.5167ZM5.73369 21.7862L5.02658 21.0791L4.94195 21.1638L4.87969 21.266L5.73369 21.7862ZM5.79258 21.7274L6.49969 22.4345L6.766 22.1681L6.79047 21.7923L5.79258 21.7274ZM5.81167 21.2992L4.81227 21.2638L4.81204 21.2721L5.81167 21.2992ZM6.16137 18.3988L7.02788 18.898L7.02788 18.898L6.16137 18.3988ZM6.73233 17.7215L7.45046 18.4174L7.50933 18.3567L7.55716 18.2869L6.73233 17.7215ZM7.03644 16.9515L8.00308 17.2077L8.00308 17.2077L7.03644 16.9515ZM7.06245 16.854L6.09889 16.5864L6.09703 16.5933L7.06245 16.854ZM7.68101 15.0243L8.60316 15.4111L8.78076 14.9877L8.57543 14.5771L7.68101 15.0243ZM7.67565 15.0136L6.74675 14.6433L6.5807 15.0598L6.78123 15.4608L7.67565 15.0136ZM7.88178 14.5461L8.78224 14.9811L8.78417 14.977L7.88178 14.5461ZM7.9472 14.4091L7.04789 13.9717L7.04481 13.9782L7.9472 14.4091ZM8.52027 13.4218L9.35005 13.9799L9.36966 13.9508L9.38717 13.9203L8.52027 13.4218ZM8.55317 13.3646L7.69653 12.8487L7.69131 12.8574L7.68627 12.8661L8.55317 13.3646ZM9.13488 12.5334L9.92657 13.1443L9.93167 13.1377L9.93666 13.131L9.13488 12.5334ZM9.37678 12.2123L10.1739 12.8161L10.1739 12.8161L9.37678 12.2123ZM9.45969 12.1028L10.2574 12.7058L10.2592 12.7035L9.45969 12.1028ZM9.54466 11.9897L8.75016 11.3824L8.74518 11.389L9.54466 11.9897ZM9.7178 11.7756L10.4812 12.4216L10.5206 12.375L10.5541 12.3239L9.7178 11.7756ZM9.72496 11.7646L10.5678 12.3027L10.5767 12.2887L10.5852 12.2745L9.72496 11.7646ZM9.84184 11.5311L10.7634 11.9195L10.7667 11.9114L10.77 11.9033L9.84184 11.5311ZM9.90727 11.354L10.8499 11.6877L10.8499 11.6877L9.90727 11.354ZM9.92146 11.314L8.99209 10.9448L8.98545 10.9615L8.97942 10.9785L9.92146 11.314ZM10.2418 10.7073L9.38411 10.1931L9.3841 10.1931L10.2418 10.7073ZM10.2596 10.6776L11.1175 11.1915L11.1239 11.1805L10.2596 10.6776ZM10.3348 10.5483L9.4744 10.0386L9.47046 10.0454L10.3348 10.5483ZM10.8559 9.83103L11.6103 10.4874L11.6261 10.4692L11.641 10.4504L10.8559 9.83103ZM10.9736 9.68173L10.1895 9.06118L10.1885 9.06236L10.9736 9.68173ZM11.7797 8.77464L12.4897 9.47888L12.4928 9.47575L11.7797 8.77464ZM11.8751 8.67766L11.1706 7.96782L11.162 7.97655L11.8751 8.67766ZM12.3394 8.29982L12.8705 9.14717L12.8955 9.13151L12.9195 9.11439L12.3394 8.29982ZM12.6963 7.825L11.8043 7.37297L11.796 7.38924L11.7884 7.4058L12.6963 7.825ZM14.2385 6.2901L14.703 7.17577L14.7134 7.17015L14.2385 6.2901ZM14.3532 6.22822L13.8849 5.3446L13.8783 5.34818L14.3532 6.22822ZM15.2728 5.94411V6.94411H16.0582L16.2443 6.18107L15.2728 5.94411ZM15.3096 5.7932L14.3811 5.42181L14.3549 5.4875L14.3381 5.55624L15.3096 5.7932ZM16.9218 4.47179L17.346 5.37737L17.382 5.3605L17.4165 5.34083L16.9218 4.47179ZM17.0297 4.41037L16.6259 3.49554L16.5792 3.51612L16.535 3.54133L17.0297 4.41037ZM17.5361 4.2752L17.7157 5.25893L17.7157 5.25893L17.5361 4.2752ZM17.588 4.26567L17.7699 5.249L17.7709 5.2488L17.588 4.26567ZM18.2547 4.11384L17.9906 3.14933L17.9804 3.15214L17.9702 3.15516L18.2547 4.11384ZM18.9391 4.0439L18.9449 5.04388L19.0734 5.04314L19.1975 5.00995L18.9391 4.0439ZM19.3344 3.76646L20.0702 4.44367L20.0702 4.44366L19.3344 3.76646ZM19.3586 3.74018L18.6617 3.02306L18.6425 3.04167L18.6244 3.06129L19.3586 3.74018ZM19.9069 3.397L20.3407 4.29804L20.3415 4.29766L19.9069 3.397ZM20.034 3.33569L19.6116 2.42918L19.5995 2.43504L20.034 3.33569ZM21.5864 4.01952C21.9797 4.01953 22.3931 4.08158 22.7986 4.18602L23.2975 2.24922C22.7664 2.11244 22.1826 2.01954 21.5864 2.01952L21.5864 4.01952ZM22.8082 4.18842C22.9985 4.23546 23.2197 4.27841 23.4677 4.27876L23.4705 2.27876C23.4511 2.27873 23.4057 2.27591 23.2879 2.24682L22.8082 4.18842ZM23.469 4.27876C23.6981 4.27879 23.9177 4.2427 24.1397 4.17426L23.5504 2.26305C23.5006 2.2784 23.4798 2.27876 23.4693 2.27876L23.469 4.27876ZM24.1283 4.1777C24.495 4.06939 24.939 3.99971 25.3791 4L25.3805 2C24.7436 1.99958 24.1085 2.09814 23.5618 2.25961L24.1283 4.1777ZM25.3794 4C25.8845 4.00019 26.3085 4.09198 26.5982 4.24861L27.5494 2.48926C26.8709 2.12248 26.0862 2.00027 25.3802 2L25.3794 4ZM26.4983 4.18678C26.5566 4.22781 26.5576 4.22888 26.5631 4.23328C26.5786 4.24577 26.6021 4.26587 26.6924 4.34409L28.0022 2.83272C27.9269 2.76738 27.8675 2.71571 27.8147 2.67333C27.7518 2.62287 27.6988 2.58598 27.6492 2.55109L26.4983 4.18678ZM26.8358 4.4477L26.9904 4.53972L28.0134 2.82113L27.8588 2.72911L26.8358 4.4477ZM26.9841 4.53592C27.0014 4.54639 27.0144 4.55427 27.0257 4.56114C27.0368 4.56795 27.0437 4.57221 27.0482 4.57505C27.0562 4.58013 27.0505 4.57681 27.0399 4.56895L28.2335 2.96415C28.1541 2.90509 28.0721 2.85667 28.0197 2.82492L26.9841 4.53592ZM27.04 4.56896C27.0283 4.56025 27.0229 4.55517 27.0313 4.56255C27.036 4.56671 27.0431 4.57301 27.0543 4.58323C27.0656 4.59351 27.0787 4.6055 27.096 4.62134L28.4475 3.14715C28.3949 3.0989 28.3193 3.02797 28.2335 2.96414L27.04 4.56896ZM27.1941 4.70052C27.3777 4.83045 27.5677 4.92534 27.7851 4.98406C27.9728 5.03478 28.1561 5.04946 28.2611 5.05907L28.4433 3.06738C28.4128 3.06459 28.3888 3.06237 28.3674 3.06017C28.3463 3.058 28.3312 3.05623 28.3198 3.0547C28.297 3.05166 28.2965 3.05052 28.3067 3.05329C28.3195 3.05673 28.3349 3.06232 28.3489 3.06908C28.3614 3.07513 28.3625 3.07723 28.3494 3.06797L27.1941 4.70052ZM28.2459 5.05757C28.5837 5.09366 28.909 5.16083 29.257 5.25816L29.7957 3.33207C29.363 3.21106 28.9272 3.11897 28.4584 3.06888L28.2459 5.05757ZM29.2824 5.26491L29.4343 5.3031L29.9221 3.36351L29.7702 3.32532L29.2824 5.26491ZM29.4199 5.29939C30.0121 5.45766 30.5455 5.8229 30.8971 6.31318L32.5224 5.1476C31.8948 4.27251 30.9653 3.64223 29.9364 3.36722L29.4199 5.29939ZM30.8403 6.22452C30.8476 6.23734 30.8508 6.24294 30.853 6.24694C30.8551 6.25074 30.8525 6.2461 30.8479 6.23699C30.8375 6.21645 30.8121 6.16344 30.792 6.08945L32.7216 5.56377C32.6739 5.38837 32.5811 5.23979 32.5791 5.23627L30.8403 6.22452ZM30.792 6.08948C30.7703 6.00996 30.7658 5.94703 30.7646 5.92359C30.7641 5.91337 30.7641 5.90838 30.7642 5.91394C30.7642 5.91967 30.7643 5.92749 30.7643 5.94411H32.7643C32.7643 5.93914 32.7725 5.75064 32.7216 5.56373L30.792 6.08948ZM31.6394 6.93629L31.7455 6.94963L31.9951 4.96527L31.8891 4.95193L31.6394 6.93629ZM31.7136 6.9451C32.0754 7.0025 32.3974 7.18802 32.846 7.5483L34.0983 5.98892C33.5739 5.56775 32.9161 5.11085 32.027 4.9698L31.7136 6.9451ZM32.8801 7.57449L33.0604 7.707L34.2446 6.09524L34.0642 5.96273L32.8801 7.57449ZM33.0058 7.66387C33.1589 7.79365 33.303 8.01305 33.4786 8.36603L35.2693 7.47537C35.0767 7.08811 34.7839 6.54927 34.2992 6.13836L33.0058 7.66387ZM33.4929 8.39369C33.7414 8.85658 34.0881 9.14335 34.3134 9.33579L35.6124 7.81504C35.3651 7.60387 35.3028 7.53678 35.255 7.4477L33.4929 8.39369ZM34.3094 9.33234C35.0543 9.97553 35.668 10.7157 36.0653 11.548L37.8702 10.6865C37.3275 9.54944 36.5187 8.59754 35.6164 7.8185L34.3094 9.33234ZM36.0662 11.55C36.3131 12.0642 36.6011 12.4939 36.9155 12.9087L38.5093 11.7004C38.2435 11.3499 38.0387 11.0374 37.8692 10.6845L36.0662 11.55ZM36.9008 12.8887C37.0343 13.0742 37.1657 13.2638 37.3007 13.4601L38.9486 12.3268C38.812 12.1281 38.6706 11.924 38.5241 11.7204L36.9008 12.8887ZM37.3031 13.4635L37.3707 13.561L39.0139 12.4209L38.9463 12.3234L37.3031 13.4635ZM37.37 13.5599C38.0215 14.5017 38.488 15.4996 38.8713 16.6244L40.7644 15.9793C40.3359 14.7219 39.7942 13.5486 39.0147 12.422L37.37 13.5599ZM38.8714 16.6248L38.9441 16.8378L40.8369 16.1919L40.7642 15.9789L38.8714 16.6248ZM38.93 16.793C38.9681 16.9245 38.9915 17.0623 39.0176 17.263L41.0008 17.0045C40.9714 16.7789 40.9327 16.5188 40.8511 16.2368L38.93 16.793ZM39.0368 17.367C39.071 17.5097 39.1153 17.6472 39.1718 17.7813L41.015 17.0049C41.0037 16.9783 40.9923 16.9451 40.9817 16.9005L39.0368 17.367ZM39.174 17.7865C39.2228 17.9005 39.2776 18.0059 39.336 18.1043L41.0554 17.0828C41.0376 17.0528 41.0238 17.0256 41.0128 16.9997L39.174 17.7865ZM39.3396 18.1103C39.4248 18.2515 39.5189 18.3778 39.6153 18.494L41.154 17.2163C41.1044 17.1566 41.0732 17.1122 41.0518 17.0768L39.3396 18.1103ZM39.6043 18.4805C39.6244 18.5055 39.6439 18.5314 39.663 18.5581L41.2905 17.3956C41.2505 17.3396 41.2087 17.2843 41.165 17.2298L39.6043 18.4805ZM39.7114 18.6205C39.723 18.6343 39.7345 18.6479 39.7459 18.6612L41.268 17.3638C41.259 17.3533 41.2504 17.3431 41.2421 17.3332L39.7114 18.6205ZM39.7004 18.6037C39.7062 18.6116 39.7099 18.6168 39.7119 18.6198C39.7139 18.6227 39.714 18.6229 39.7126 18.6208C39.7097 18.616 39.7014 18.6021 39.692 18.5811L41.5168 17.7624C41.4521 17.6182 41.3742 17.5042 41.3135 17.4213L39.7004 18.6037ZM39.747 18.6864C40.1255 19.3169 40.228 20.2481 40.2092 21.2184L42.2088 21.2572C42.2287 20.2298 42.1498 18.8033 41.4618 17.6571L39.747 18.6864ZM40.209 21.2375C40.2089 21.4969 40.2296 21.765 40.3116 22.0451C40.3946 22.3282 40.5241 22.5691 40.6776 22.7967L42.3356 21.6782C42.2587 21.5642 42.2393 21.5113 42.231 21.4829C42.2218 21.4515 42.209 21.3907 42.209 21.2381L40.209 21.2375ZM40.6772 22.7961C40.8254 23.0162 40.9038 23.2588 40.9537 23.6417L42.937 23.3834C42.8648 22.8294 42.7208 22.2502 42.3361 21.6789L40.6772 22.7961ZM40.9538 23.6425L40.9761 23.8128L42.9592 23.5528L42.9368 23.3825L40.9538 23.6425ZM40.974 23.7957C41.0391 24.3688 40.9793 24.9326 40.8226 25.55L42.7611 26.042C42.9608 25.2551 43.0603 24.4419 42.9613 23.57L40.974 23.7957ZM40.8226 25.55C40.6713 26.1461 40.6327 26.6457 40.8191 27.3242L42.7477 26.7946C42.6724 26.5206 42.675 26.3814 42.7611 26.042L40.8226 25.55ZM40.8139 27.3046C40.9481 27.8355 41.0066 28.5121 40.9533 29.184C40.8993 29.8635 40.7374 30.4583 40.4972 30.8698L42.2243 31.8783C42.6657 31.1222 42.8785 30.2054 42.947 29.3424C43.0161 28.4717 42.9451 27.5748 42.7529 26.8143L40.8139 27.3046ZM40.5258 30.8237C40.4753 30.9004 40.451 30.937 40.4345 30.9609C40.4218 30.9792 40.4283 30.9686 40.4435 30.9513L41.9497 32.267C42.0433 32.1599 42.1202 32.0389 42.1957 31.9244L40.5258 30.8237ZM40.4435 30.9513C40.4493 30.9446 40.4524 30.9415 40.4491 30.945C40.4473 30.9468 40.4443 30.9498 40.4395 30.9547C40.4345 30.9597 40.4289 30.9653 40.4211 30.9731L41.8353 32.3873C41.8584 32.3642 41.9045 32.3188 41.9497 32.267L40.4435 30.9513ZM40.1303 31.6158C40.1216 31.7497 40.1179 31.8793 40.1159 31.9998L42.1156 32.0324C42.1173 31.9289 42.1203 31.8343 42.1261 31.7446L40.1303 31.6158ZM40.116 31.9941L40.1113 32.208L42.1108 32.252L42.1155 32.0381L40.116 31.9941ZM40.1113 32.2085L40.1063 32.439L42.1059 32.482L42.1108 32.2515L40.1113 32.2085ZM40.1065 32.433C40.0874 33.1255 40.0291 33.786 39.9088 34.4455L41.8764 34.8042C42.0187 34.0234 42.0845 33.2585 42.1057 32.4881L40.1065 32.433ZM39.9074 34.4535L39.8816 34.6018L41.852 34.9445L41.8778 34.7962L39.9074 34.4535ZM39.8834 34.592C39.8155 34.9605 39.6841 35.3019 39.4846 35.7055L41.2774 36.5919C41.5212 36.0989 41.7364 35.5728 41.8503 34.9543L39.8834 34.592ZM39.4829 35.7089L39.4216 35.8342L41.2177 36.7138L41.2791 36.5885L39.4829 35.7089ZM39.4279 35.8214C39.3425 35.9897 39.2616 36.107 39.1407 36.2371L40.6054 37.5989C40.8621 37.3228 41.0475 37.0494 41.2114 36.7266L39.4279 35.8214ZM39.1151 36.2656C38.6275 36.8321 38.5674 37.4879 38.5238 37.8297L40.5077 38.0829C40.561 37.6657 40.5907 37.6171 40.631 37.5703L39.1151 36.2656ZM38.5238 37.8297C38.5181 37.8746 38.5129 37.9155 38.5074 37.956L40.4892 38.2246C40.4959 38.1751 40.5021 38.1266 40.5077 38.0829L38.5238 37.8297ZM38.5094 37.9416C38.3963 38.6939 38.0866 39.3263 37.5635 39.898L39.0392 41.248C39.818 40.3967 40.3123 39.4021 40.4872 38.239L38.5094 37.9416ZM37.5571 39.9051L37.4303 40.0464L38.9188 41.3822L39.0456 41.2409L37.5571 39.9051ZM37.4473 40.0279C37.0985 40.3975 36.7679 40.6327 36.4285 40.7328L36.994 42.6512C37.8099 42.4106 38.4319 41.8986 38.9019 41.4006L37.4473 40.0279ZM35.7153 41.7819L35.7284 41.9271L37.7203 41.7472L37.7072 41.602L35.7153 41.7819ZM35.7263 41.7743C35.7227 41.8325 35.7142 41.8727 35.5958 42.1256L37.4071 42.9736C37.5165 42.7399 37.692 42.3829 37.7224 41.9L35.7263 41.7743ZM35.5927 42.1321L35.5277 42.2736L37.3451 43.1086L37.4101 42.9671L35.5927 42.1321ZM35.5295 42.2699C35.4677 42.403 35.4041 42.5365 35.3391 42.6716L37.1411 43.5392C37.2087 43.3989 37.2764 43.2565 37.3434 43.1123L35.5295 42.2699ZM35.338 42.6738L35.2838 42.7872L37.0879 43.6503L37.1422 43.537L35.338 42.6738ZM35.2864 42.7818C34.9267 43.5221 34.3887 44.1388 33.717 44.5485L34.7585 46.2559C35.7891 45.6273 36.5753 44.7055 37.0853 43.6557L35.2864 42.7818ZM33.6785 44.5732L33.5776 44.6413L34.6961 46.2993L34.797 46.2312L33.6785 44.5732ZM33.5854 44.6361C33.3825 44.7702 33.1704 44.8637 32.877 44.96L33.5004 46.8604C33.8945 46.7311 34.2863 46.5702 34.6883 46.3045L33.5854 44.6361ZM32.8542 44.9678L32.7104 45.0188L33.3793 46.9036L33.5232 46.8526L32.8542 44.9678ZM32.7284 45.0126C32.0046 45.2541 31.226 45.3128 30.3482 45.3022L30.3242 47.3021C31.2873 47.3137 32.3258 47.2553 33.3613 46.9099L32.7284 45.0126ZM30.3481 45.3022C30.1854 45.3003 30.0239 45.2998 29.866 45.2994L29.8616 47.2994C30.0187 47.2998 30.172 47.3003 30.3243 47.3021L30.3481 45.3022ZM29.8699 45.2994L29.566 45.2976L29.5539 47.2976L29.8578 47.2994L29.8699 45.2994ZM29.5653 45.2976L29.4244 45.2968L29.4136 47.2968L29.5545 47.2976L29.5653 45.2976ZM29.432 45.2969C29.2441 45.2945 29.1121 45.2818 28.9873 45.2527L28.5342 47.2007C28.8513 47.2745 29.1401 47.2933 29.406 47.2967L29.432 45.2969ZM28.8513 45.2308C28.6107 45.209 28.3374 45.2093 28.0447 45.3036C27.7644 45.394 27.5491 45.5451 27.3896 45.6665L28.6006 47.2581C28.6538 47.2177 28.6797 47.201 28.6903 47.1947C28.6974 47.1905 28.6847 47.1987 28.6581 47.2073C28.6456 47.2113 28.6333 47.2143 28.6222 47.2164C28.6114 47.2184 28.6044 47.219 28.6025 47.2191C28.6004 47.2192 28.6184 47.2179 28.6702 47.2226L28.8513 45.2308ZM27.4702 45.6112C26.6828 46.0968 25.8292 46.4993 24.9471 46.8171L25.6251 48.6987C26.6248 48.3385 27.6047 47.878 28.5201 47.3134L27.4702 45.6112ZM24.9452 46.8178L24.7403 46.8921L25.4219 48.7724L25.6269 48.6981L24.9452 46.8178ZM24.7889 46.8759C23.7167 47.2034 22.4315 47.0898 21.4499 46.5771L20.5239 48.3498C21.9801 49.1104 23.8086 49.2666 25.3732 48.7886L24.7889 46.8759ZM21.4059 46.5555C21.2972 46.5053 21.1874 46.4554 21.0766 46.4062L20.2641 48.2337C20.365 48.2785 20.4662 48.3245 20.5679 48.3715L21.4059 46.5555ZM21.0825 46.4088C20.6342 46.206 20.2185 45.9954 19.8208 45.752L18.7768 47.4579C19.2657 47.7571 19.7599 48.0056 20.2582 48.231L21.0825 46.4088ZM19.8187 45.7507C19.6822 45.6676 19.5465 45.589 19.4127 45.5137L18.4312 47.2563C18.5512 47.3239 18.6666 47.3908 18.7788 47.4591L19.8187 45.7507ZM19.4201 45.5179C19.389 45.5 19.3663 45.487 19.3479 45.4763C19.3292 45.4654 19.3203 45.4601 19.3163 45.4577C19.3126 45.4554 19.3199 45.4597 19.3326 45.4686C19.3393 45.4733 19.3474 45.4792 19.3563 45.4861C19.3653 45.493 19.374 45.5001 19.3822 45.5071L18.084 47.0285C18.2048 47.1315 18.3485 47.2088 18.4238 47.2521L19.4201 45.5179ZM19.3822 45.5071C19.3959 45.5188 19.4052 45.5277 19.4076 45.53C19.4087 45.531 19.4086 45.531 19.4066 45.529C19.4045 45.5269 19.4019 45.5243 19.3972 45.5196L17.983 46.9338C17.993 46.9439 18.0348 46.9865 18.0841 47.0285L19.3822 45.5071ZM18.7577 45.229C18.6417 45.2211 18.5309 45.219 18.4292 45.2194L18.4357 47.2193C18.5058 47.2191 18.567 47.2207 18.6225 47.2244L18.7577 45.229ZM18.4357 45.2194L18.2944 45.2189L18.2879 47.2189L18.4292 47.2193L18.4357 45.2194ZM18.2717 45.2191C18.236 45.2198 18.1134 45.2195 17.9864 45.2419L18.3327 47.2117C18.3151 47.2148 18.2997 47.2167 18.2873 47.218C18.2755 47.2192 18.2676 47.2196 18.2659 47.2197C18.2645 47.2198 18.2665 47.2197 18.2749 47.2195C18.2836 47.2192 18.2941 47.219 18.3106 47.2187L18.2717 45.2191ZM17.9865 45.2419C17.8258 45.2701 17.6783 45.3315 17.6247 45.3522L18.3421 47.2191C18.3538 47.2145 18.3638 47.2107 18.3731 47.2072C18.3823 47.2036 18.3898 47.2008 18.3962 47.1984C18.4026 47.1959 18.4073 47.1942 18.4106 47.193C18.4139 47.1918 18.4152 47.1914 18.415 47.1914C18.4149 47.1915 18.4059 47.1946 18.3911 47.1986C18.3834 47.2007 18.3745 47.203 18.3643 47.2053C18.3541 47.2076 18.3435 47.2098 18.3326 47.2117L17.9865 45.2419ZM17.9383 45.2866C17.7932 45.2932 17.6494 45.2968 17.5035 45.2976L17.515 47.2976C17.6863 47.2966 17.8564 47.2924 18.0284 47.2846L17.9383 45.2866ZM17.5004 45.2976L17.3572 45.2989L17.375 47.2988L17.5181 47.2975L17.5004 45.2976ZM17.3593 45.2989C15.3588 45.3125 13.8184 45.183 12.6123 44.0442L11.2392 45.4984C13.0831 47.2394 15.3959 47.3123 17.3729 47.2988L17.3593 45.2989ZM12.6292 44.0605C11.9505 43.3888 11.4026 42.4735 11.3142 41.6852L9.32664 41.9081C9.48437 43.3149 10.3599 44.6286 11.2224 45.4821L12.6292 44.0605ZM11.2578 41.4482C11.253 41.4355 11.2286 41.3673 11.198 41.3026C11.1615 41.2255 11.0882 41.0892 10.95 40.9601L9.58449 42.4214C9.46748 42.3121 9.41038 42.2008 9.39002 42.1578C9.38469 42.1465 9.38087 42.1377 9.37865 42.1324C9.37643 42.1272 9.37516 42.1239 9.37509 42.1237C9.37503 42.1236 9.37555 42.1249 9.37704 42.1289C9.37858 42.133 9.38034 42.1377 9.38308 42.1451L11.2578 41.4482ZM10.95 40.9601C10.7818 40.8029 10.6049 40.7379 10.5144 40.7095C10.4381 40.6855 10.355 40.6683 10.3308 40.663L9.90375 42.6169C9.92763 42.6221 9.93726 42.6243 9.94361 42.6258C9.95026 42.6273 9.93727 42.6245 9.91558 42.6177C9.87231 42.6041 9.72758 42.5551 9.58451 42.4214L10.95 40.9601ZM10.4267 40.6891L10.2245 40.6233L9.60567 42.5251L9.80789 42.5909L10.4267 40.6891ZM10.4451 40.7262C10.3285 40.6533 10.214 40.5659 10.0532 40.4417L8.83083 42.0247C8.97882 42.139 9.1706 42.2881 9.38499 42.4221L10.4451 40.7262ZM10.0535 40.442L10.0517 40.4406L8.8288 42.0232L8.83056 42.0245L10.0535 40.442ZM10.0408 40.4323L9.91694 40.3393L8.71578 41.9384L8.83967 42.0314L10.0408 40.4323ZM9.9218 40.3429C9.70549 40.1784 9.55101 40.0486 9.42336 39.906L7.93329 41.24C8.191 41.5279 8.46807 41.75 8.71093 41.9347L9.9218 40.3429ZM9.67832 40.573V40.4552H7.67832V40.573H9.67832ZM8.67832 39.4552H8.56054V41.4552H8.67832V39.4552ZM9.31415 39.7979C8.88709 39.3083 8.54712 38.4911 8.44776 37.7909L6.4676 38.0718C6.61087 39.0816 7.0808 40.28 7.80692 41.1125L9.31415 39.7979ZM8.44773 37.7906L8.42618 37.639L6.44607 37.9204L6.46763 38.0721L8.44773 37.7906ZM8.42723 37.6466C8.41514 37.5566 8.40432 37.467 8.39489 37.3779L6.40599 37.5884C6.41752 37.6973 6.43061 37.8055 6.44502 37.9128L8.42723 37.6466ZM8.39249 37.3573C8.36571 37.1462 8.31645 36.8882 8.1743 36.6265C8.03258 36.3657 7.84251 36.182 7.67517 36.0404L6.38348 37.5674C6.40453 37.5852 6.41931 37.5985 6.42959 37.6082C6.43978 37.6179 6.44423 37.6227 6.44486 37.6234C6.44532 37.624 6.44184 37.6201 6.43621 37.6123C6.43041 37.6042 6.42364 37.5937 6.41688 37.5813C6.41011 37.5688 6.40487 37.5572 6.40106 37.5474C6.39736 37.5379 6.39582 37.5323 6.39578 37.5322C6.39578 37.5322 6.39588 37.5325 6.39606 37.5333C6.39624 37.534 6.39651 37.5351 6.39685 37.5367C6.39754 37.5398 6.3985 37.5444 6.39967 37.5508C6.40207 37.5638 6.40503 37.5825 6.40839 37.609L8.39249 37.3573ZM7.81213 36.1816C7.1209 35.3121 6.89441 33.981 6.91303 32.6231L4.91322 32.5957C4.89283 34.083 5.11361 36.001 6.24652 37.4262L7.81213 36.1816ZM6.91305 32.6217L6.91503 32.4605L4.91518 32.4358L4.9132 32.5971L6.91305 32.6217ZM6.91498 32.4644C6.91661 32.3642 6.91904 32.2642 6.92233 32.1645L4.92342 32.0986C4.91974 32.2099 4.91705 32.321 4.91524 32.4319L6.91498 32.4644ZM6.92271 32.1498L6.92538 32.0033L4.92571 31.9668L4.92304 32.1133L6.92271 32.1498ZM6.92509 32.0151L6.92903 31.8843L4.92994 31.8241L4.926 31.9549L6.92509 32.0151ZM6.91596 31.6903C6.88418 31.499 6.81611 31.2994 6.67942 31.1101C6.5698 30.9582 6.43457 30.8469 6.40682 30.8226L5.09163 32.3294C5.12193 32.3558 5.12359 32.3576 5.12126 32.3554C5.11519 32.3495 5.08856 32.3233 5.05767 32.2805C5.02437 32.2343 4.99569 32.1823 4.97429 32.1276C4.95411 32.076 4.94601 32.0362 4.94301 32.0181L6.91596 31.6903ZM6.40688 30.8227C6.40166 30.8181 6.39708 30.8141 6.39246 30.8101L5.07491 32.3148C5.08088 32.32 5.08666 32.325 5.09157 32.3293L6.40688 30.8227ZM6.58917 31.0446C6.06091 30.1719 6.02269 29.0997 6.13374 27.8052L4.14106 27.6342C4.02607 28.9747 3.99379 30.6192 4.87821 32.0803L6.58917 31.0446ZM6.13382 27.8042L6.1478 27.6394L4.15495 27.4704L4.14097 27.6352L6.13382 27.8042ZM6.147 27.6483C6.17164 27.3856 6.20873 27.151 6.26791 26.9195L4.33025 26.4241C4.23932 26.7797 4.18767 27.1211 4.15574 27.4615L6.147 27.6483ZM6.28078 26.8622C6.39278 26.2849 6.21678 25.7135 6.1479 25.4612L4.2185 25.9879C4.26311 26.1513 4.29184 26.2602 4.30776 26.3587C4.3231 26.4537 4.31655 26.4856 4.31738 26.4814L6.28078 26.8622ZM6.1479 25.4612C6.12797 25.3881 6.11225 25.3304 6.0989 25.2765L4.15749 25.757C4.17758 25.8382 4.1998 25.9194 4.2185 25.9879L6.1479 25.4612ZM6.10586 25.3066C5.87094 24.2137 6.02461 23.2308 6.58768 22.3065L4.87969 21.266C4.03596 22.6509 3.81387 24.1607 4.15053 25.7269L6.10586 25.3066ZM6.4408 22.4933L6.49969 22.4345L5.08547 21.0202L5.02658 21.0791L6.4408 22.4933ZM6.79047 21.7923C6.80078 21.6338 6.80716 21.479 6.81131 21.3263L4.81204 21.2721C4.80841 21.4059 4.803 21.5348 4.79469 21.6624L6.79047 21.7923ZM6.81104 21.3347C6.84444 20.393 6.86518 19.8259 6.90688 19.4328C6.94689 19.0556 6.99692 18.9517 7.02788 18.898L5.29487 17.8997C5.06279 18.3025 4.97075 18.7249 4.91804 19.2218C4.86703 19.7028 4.84444 20.3576 4.8123 21.2638L6.81104 21.3347ZM7.02788 18.898C7.07829 18.8105 7.15845 18.7187 7.45046 18.4174L6.0142 17.0256C5.77477 17.2727 5.49488 17.5525 5.29487 17.8997L7.02788 18.898ZM7.55716 18.2869C7.83284 17.8847 7.93675 17.458 8.00308 17.2077L6.0698 16.6954C5.99133 16.9916 5.95816 17.0822 5.9075 17.1561L7.55716 18.2869ZM8.00308 17.2077C8.01174 17.175 8.01976 17.1447 8.02788 17.1147L6.09703 16.5933C6.08748 16.6287 6.07826 16.6635 6.06979 16.6954L8.00308 17.2077ZM8.02599 17.1216C8.19307 16.5199 8.37692 15.9505 8.60316 15.4111L6.75885 14.6375C6.48892 15.281 6.27927 15.937 6.09892 16.5864L8.02599 17.1216ZM8.57543 14.5771L8.57007 14.5664L6.78123 15.4608L6.78659 15.4715L8.57543 14.5771ZM8.60456 15.3839C8.65919 15.2469 8.7171 15.1159 8.78223 14.9811L6.98133 14.1112C6.89684 14.2861 6.81975 14.4601 6.74675 14.6433L8.60456 15.3839ZM8.78417 14.977L8.84959 14.8401L7.04481 13.9782L6.97939 14.1152L8.78417 14.977ZM8.84648 14.8465C8.99132 14.5487 9.15782 14.2657 9.35005 13.9799L7.69049 12.8637C7.45468 13.2143 7.23945 13.5779 7.04792 13.9718L8.84648 14.8465ZM9.38717 13.9203L9.42008 13.8631L7.68627 12.8661L7.65336 12.9234L9.38717 13.9203ZM9.40982 13.8805C9.55514 13.6392 9.72786 13.4018 9.92657 13.1443L8.34318 11.9225C8.12831 12.2009 7.90094 12.5093 7.69653 12.8487L9.40982 13.8805ZM9.93666 13.131C10.014 13.0272 10.0926 12.9234 10.1739 12.8161L8.57962 11.6085C8.49909 11.7149 8.41584 11.8248 8.33309 11.9358L9.93666 13.131ZM10.1739 12.8161C10.2015 12.7796 10.2295 12.7428 10.2574 12.7058L8.66199 11.4997C8.63469 11.5358 8.60731 11.572 8.57962 11.6085L10.1739 12.8161ZM10.2592 12.7035L10.3441 12.5904L8.74518 11.389L8.6602 11.5021L10.2592 12.7035ZM10.3391 12.597C10.3818 12.5412 10.4288 12.4835 10.4812 12.4216L8.95442 11.1297C8.88826 11.2079 8.81899 11.2924 8.75018 11.3824L10.3391 12.597ZM10.5541 12.3239C10.5587 12.3169 10.5633 12.3098 10.5678 12.3027L8.88208 11.2265C8.88192 11.2267 8.88173 11.227 8.88153 11.2273L10.5541 12.3239ZM10.5852 12.2745C10.6582 12.1514 10.7151 12.0339 10.7634 11.9195L8.92033 11.1428C8.90177 11.1868 8.88455 11.2212 8.86474 11.2547L10.5852 12.2745ZM10.77 11.9033C10.8021 11.8232 10.8298 11.7446 10.8499 11.6877L8.9646 11.0203C8.94204 11.084 8.92792 11.1234 8.91369 11.1589L10.77 11.9033ZM10.8499 11.6877C10.8547 11.6743 10.8591 11.6618 10.8635 11.6495L8.97942 10.9785C8.97428 10.9929 8.96924 11.0071 8.9646 11.0203L10.8499 11.6877ZM10.8508 11.6831C10.9011 11.5565 10.9745 11.4299 11.0995 11.2214L9.3841 10.1931C9.27261 10.3791 9.11214 10.6426 8.99209 10.9448L10.8508 11.6831ZM11.0995 11.2214C11.1054 11.2116 11.1114 11.2015 11.1175 11.1914L9.40166 10.1638C9.39587 10.1735 9.39005 10.1832 9.38411 10.1931L11.0995 11.2214ZM11.1239 11.1805L11.1991 11.0512L9.47046 10.0454L9.39523 10.1747L11.1239 11.1805ZM11.1952 11.058C11.3162 10.8537 11.4469 10.6752 11.6103 10.4874L10.1014 9.17469C9.86653 9.44467 9.66282 9.72063 9.47443 10.0386L11.1952 11.058ZM11.641 10.4504L11.7587 10.3011L10.1885 9.06236L10.0708 9.21166L11.641 10.4504ZM11.7578 10.3023C11.9863 10.0135 12.2273 9.74337 12.4897 9.47887L11.0698 8.07041C10.7581 8.38461 10.467 8.71042 10.1895 9.06118L11.7578 10.3023ZM12.4928 9.47575L12.5881 9.37877L11.162 7.97655L11.0667 8.07353L12.4928 9.47575ZM12.5795 9.38745C12.6966 9.2712 12.7729 9.20829 12.8705 9.14717L11.8084 7.45246C11.5455 7.61725 11.353 7.78693 11.1707 7.96787L12.5795 9.38745ZM12.9195 9.11439C13.0945 8.98979 13.2444 8.84796 13.3718 8.66692C13.4836 8.50796 13.5582 8.34361 13.6042 8.24419L11.7884 7.4058C11.7763 7.43195 11.7667 7.45251 11.7581 7.4704C11.7497 7.48808 11.7435 7.50041 11.7389 7.50936C11.7297 7.52701 11.7292 7.52575 11.736 7.51609C11.7442 7.50456 11.7545 7.49231 11.7645 7.4825C11.7733 7.47395 11.7742 7.4747 11.7594 7.48524L12.9195 9.11439ZM13.5883 8.27702C13.831 7.79794 14.1937 7.44276 14.7029 7.17571L13.7741 5.4045C12.9328 5.84567 12.2527 6.48805 11.8043 7.37297L13.5883 8.27702ZM14.7134 7.17015L14.8281 7.10827L13.8783 5.34818L13.7636 5.41006L14.7134 7.17015ZM14.8214 7.11181C15.1046 6.96173 15.1852 6.94411 15.2728 6.94411V4.94411C14.6613 4.94411 14.208 5.1734 13.8849 5.34463L14.8214 7.11181ZM16.2443 6.18107L16.2811 6.03015L14.3381 5.55624L14.3013 5.70715L16.2443 6.18107ZM16.2381 6.16459C16.3397 5.91066 16.6379 5.70904 17.346 5.37737L16.4976 3.56622C15.9449 3.82512 14.8246 4.31306 14.3811 5.42181L16.2381 6.16459ZM17.4165 5.34083L17.5244 5.27941L16.535 3.54133L16.4271 3.60275L17.4165 5.34083ZM17.4335 5.3252C17.4738 5.30743 17.5245 5.29384 17.7157 5.25893L17.3564 3.29146C17.1971 3.32056 16.9156 3.36762 16.6259 3.49554L17.4335 5.3252ZM17.7157 5.25893C17.7327 5.25582 17.7512 5.25246 17.7699 5.249L17.4062 3.28234C17.3901 3.28532 17.3738 3.28828 17.3564 3.29146L17.7157 5.25893ZM17.7709 5.2488C18.0032 5.20559 18.2652 5.15384 18.5392 5.07251L17.9702 3.15516C17.8021 3.20507 17.6262 3.24142 17.4051 3.28254L17.7709 5.2488ZM18.5188 5.07834C18.6124 5.0527 18.7059 5.04527 18.9449 5.04388L18.9333 3.04392C18.6922 3.04532 18.3629 3.04743 17.9906 3.14933L18.5188 5.07834ZM19.1975 5.00995C19.6881 4.87875 19.9453 4.5793 20.0702 4.44367L18.5986 3.08924C18.5826 3.10661 18.5711 3.1191 18.5604 3.13047C18.5501 3.14146 18.5434 3.14837 18.5389 3.15292C18.5297 3.16211 18.5347 3.15622 18.5496 3.14472C18.5663 3.13183 18.5897 3.11631 18.618 3.10228C18.6459 3.08846 18.6684 3.08114 18.6808 3.07785L19.1975 5.00995ZM20.0702 4.44366C20.0782 4.43497 20.0855 4.42702 20.0929 4.41907L18.6244 3.06129C18.6152 3.07118 18.6064 3.08075 18.5986 3.08925L20.0702 4.44366ZM20.0556 4.4573C20.0642 4.44891 20.0824 4.43327 20.1259 4.4076C20.1758 4.37819 20.2349 4.34895 20.3407 4.29804L19.4732 2.49596C19.292 2.58321 18.9561 2.73687 18.6617 3.02306L20.0556 4.4573ZM20.3415 4.29766L20.4685 4.23635L19.5995 2.43504L19.4724 2.49635L20.3415 4.29766ZM20.4564 4.24212C20.7788 4.09187 21.1596 4.01937 21.5861 4.01952L21.5868 2.01952C20.9404 2.01929 20.2573 2.12842 19.6116 2.42926L20.4564 4.24212Z" fill="white" mask="url(#path-3-outside-1_4346_6127)"/>
<path fill-rule="evenodd" clip-rule="evenodd" d="M19.0272 8.5815C18.9832 8.60117 18.9419 8.61962 18.9035 8.63667C18.6371 9.0553 17.8303 9.89256 16.7343 9.89256C16.544 10.197 16.0721 10.8744 15.7067 11.1484C15.3414 11.4225 15.4023 11.5671 15.4784 11.6051C15.5945 11.6632 15.9333 11.4461 16.3795 11.1602C17.2503 10.6022 18.53 9.7821 19.3605 10.2351C19.1321 12.4043 16.6203 13.0894 14.7936 13.5461C14.1086 13.9266 12.7613 14.8704 12.8527 15.6011C13.4997 15.1825 15.022 14.4594 15.9354 14.9161C15.5928 15.6773 14.4967 17.1996 12.8527 17.1996C12.7254 17.4561 12.4376 17.7287 12.1392 18.0114C11.6409 18.4833 11.1131 18.9831 11.2543 19.483C11.2932 19.5972 11.4396 19.7113 11.7136 19.2546C12.0561 18.6838 13.5404 17.6562 13.8829 17.7704C14.1825 19.4857 13.1012 20.1592 12.036 20.8226C11.0451 21.4398 10.0681 22.0484 10.2294 23.479C10.308 23.5171 10.488 23.4562 10.5793 22.9081C10.6364 22.5656 12.6344 20.3964 13.0911 20.9672C13.2494 22.6322 12.5541 23.2064 11.7926 23.8353C10.8831 24.5865 9.87924 25.4157 10.1226 28.2742C10.2004 28.3123 10.4017 28.2719 10.3559 27.8175C10.2294 26.5616 11.726 23.8215 13.096 24.164C13.5528 26.0672 12.4258 27.3207 11.597 28.2426C11.1828 28.7033 10.843 29.0811 10.8126 29.4159C10.6777 30.9002 10.8583 31.6309 11.0409 30.9002C11.079 30.2913 11.3378 29.0049 12.0685 28.7309C12.7992 28.4569 12.9058 29.3018 12.8677 29.7585C12.7785 30.3235 12.604 30.9118 12.4251 31.5153C11.9171 33.2285 11.3729 35.064 12.6394 36.8371C12.2207 35.5432 11.7031 32.7954 12.9819 32.1561C14.0785 32.9301 14.0453 34.6154 14.0148 36.1616C13.9913 37.3521 13.9695 38.4601 14.4661 39.0064C14.5803 39.0825 14.7401 39.0064 14.4661 38.093C14.1921 37.1796 14.5042 36.5707 14.6944 36.3804C16.1364 36.9742 16.5071 38.8913 16.7897 40.3527C16.8874 40.8584 16.9747 41.3095 17.0921 41.6323C17.3585 42.1271 18.0511 43.048 18.6905 42.774C18.1196 42.2032 17.1149 40.6961 17.6629 39.2347C20.3735 39.6363 20.6477 41.6269 20.7986 42.7225C20.8193 42.8728 20.8377 43.0063 20.8597 43.1166C21.1697 43.6677 22.1345 44.6616 23.6693 44.642V44.6008C23.7543 44.6136 23.8379 44.6232 23.9199 44.63C24.002 44.6232 24.0856 44.6135 24.1707 44.6008V44.642C25.7055 44.6616 26.6703 43.6677 26.9803 43.1166C27.0024 43.0063 27.0208 42.8728 27.0415 42.7225C27.1924 41.6269 27.4665 39.6363 30.1771 39.2347C30.7252 40.6961 29.7204 42.2032 29.1496 42.7741C29.7889 43.0481 30.4816 42.1271 30.748 41.6323C30.8654 41.3095 30.9526 40.8584 31.0504 40.3528C31.3329 38.8913 31.7036 36.9742 33.1456 36.3804C33.3359 36.5707 33.648 37.1796 33.3739 38.093C33.0999 39.0064 33.2598 39.0825 33.3739 39.0064C33.8706 38.4601 33.8487 37.3521 33.8253 36.1616C33.7948 34.6154 33.7615 32.9302 34.8582 32.1561C36.1369 32.7954 35.6193 35.5432 35.2007 36.8371C36.4672 35.0641 35.9229 33.2286 35.4149 31.5153C35.236 30.9118 35.0616 30.3235 34.9723 29.7585C34.9343 29.3018 35.0408 28.4569 35.7715 28.7309C36.5022 29.0049 36.761 30.2913 36.7991 30.9002C36.9818 31.6309 37.1624 30.9002 37.0274 29.416C36.997 29.0812 36.6572 28.7033 36.243 28.2426C35.4142 27.3207 34.2872 26.0672 34.744 24.1641C36.1141 23.8215 37.6106 26.5617 37.4841 27.8176C37.4383 28.2719 37.6396 28.3123 37.7174 28.2742C37.9608 25.4157 36.9569 24.5865 36.0474 23.8354C35.2859 23.2064 34.5906 22.6322 34.7489 20.9672C35.2056 20.3964 37.2036 22.5657 37.2607 22.9082C37.3521 23.4562 37.5321 23.5171 37.6106 23.479C37.772 22.0484 36.7949 21.4399 35.804 20.8227C34.7388 20.1592 33.6576 19.4857 33.9572 17.7704C34.2997 17.6563 35.7839 18.6838 36.1264 19.2547C36.4004 19.7114 36.5468 19.5972 36.5857 19.483C36.7269 18.9832 36.1991 18.4833 35.7008 18.0114C35.4024 17.7288 35.1146 17.4562 34.9874 17.1996C33.3433 17.1996 32.2472 15.6773 31.9047 14.9161C32.8181 14.4595 34.3404 15.1825 34.9874 15.6012C35.0787 14.8705 33.7315 13.9266 33.0464 13.5461C31.2197 13.0894 28.7079 12.4044 28.4796 10.2351C29.31 9.78213 30.5897 10.6022 31.4606 11.1602C31.9067 11.4461 32.2455 11.6632 32.3616 11.6052C32.4378 11.5671 32.4987 11.4225 32.1333 11.1485C31.768 10.8745 31.296 10.197 31.1058 9.89258C30.0097 9.89258 29.2029 9.05532 28.9365 8.63669C28.8981 8.61964 28.8569 8.60119 28.8129 8.58152C27.9143 8.17973 25.8721 7.26663 23.9129 7.26663C21.9581 7.27101 19.9236 8.18068 19.0272 8.5815ZM23.9202 6.69519C22.7153 6.60648 19.4847 7.15591 17.0917 8.97914C16.909 8.61379 17.2439 8.29411 17.4342 8.17994C18.2563 7.90593 18.3857 6.77185 18.3476 6.23906C17.7996 5.41703 16.2925 6.92405 15.9354 7.60912C15.7969 7.87473 15.7314 8.36341 15.6575 8.91551C15.5407 9.78744 15.4027 10.8175 14.9225 11.3768C14.7025 11.3768 14.7855 11.1192 14.9277 10.6779C15.1398 10.0199 15.4836 8.95339 15.1508 7.7233C13.7931 8.46386 13.6697 10.0384 13.5543 11.5092C13.4563 12.7595 13.3642 13.9349 12.5248 14.4594C12.433 14.3315 12.5455 13.9152 12.6863 13.3939C12.9477 12.4264 13.3068 11.097 12.639 10.5776C10.7578 11.3522 11.2225 13.3066 11.671 15.1934C11.6853 15.2533 11.6995 15.3131 11.7136 15.3728C12.081 16.9255 11.3419 18.0749 10.9264 18.4554C10.878 18.4312 10.9107 18.1705 10.9595 17.7813C11.0946 16.7043 11.3532 14.6434 10.3556 13.8886C8.98552 14.6193 9.21386 17.0528 9.78472 18.1129C10.4241 19.3003 10.3556 21.3097 10.0131 21.1956C9.86896 21.2246 9.87384 21.0157 9.88149 20.6878C9.89789 19.985 9.92705 18.7358 8.52883 18.1129C7.15899 19.7113 8.18632 22.1089 9.32803 23.479C9.67055 24.2782 9.89911 25.3058 9.44221 27.1325C9.08759 26.9995 9.07721 26.5051 9.06358 25.8565C9.0421 24.8344 9.01258 23.4293 7.61568 22.4515C6.79364 22.6341 6.96871 24.3543 7.15899 25.1916C7.25931 26.0945 7.80039 26.6448 8.37558 27.2297C9.10958 27.9762 9.89911 28.7792 9.89911 30.4435C9.50375 30.3117 9.37883 29.9602 9.23822 29.5645C9.01338 28.9319 8.74843 28.1864 7.27358 28.0459C6.72556 29.8726 8.33919 31.3188 9.2145 31.8135C10.9271 32.7269 11.2696 33.6403 11.0409 34.782C10.6754 33.8686 9.06186 33.0314 8.30081 32.7269C7.57011 34.4623 8.83361 35.8096 9.5567 36.2662C9.76359 36.473 10.3448 36.6563 10.9189 36.8375C11.613 37.0565 12.2968 37.2722 12.2968 37.5221C12.5708 38.1615 13.4005 38.9303 13.7811 39.2347C14.5118 39.7827 14.0665 39.9197 13.8952 39.8056C13.7403 39.7023 13.562 39.5289 13.3538 39.3264C12.6412 38.6336 11.5779 37.5996 9.89923 37.8646C9.80789 39.9654 13.2102 40.7951 14.9228 40.9473C15.2411 41.5838 16.1982 42.1139 16.963 42.5375C17.57 42.8737 18.0559 43.1428 18.0054 43.3449C17.2753 43.5014 16.8072 43.1813 16.2311 42.7875C15.5461 42.3192 14.7085 41.7465 13.096 41.7465C12.6491 42.0817 13.1707 42.745 13.5296 43.2012L13.5527 43.2307C14.5574 44.5094 17.4726 44.2963 18.8046 44.0299C19.7568 44.1301 20.489 44.4503 21.1943 44.7588C22.0327 45.1254 22.8331 45.4754 23.9198 45.4197C25.0068 45.4755 25.8073 45.1254 26.6458 44.7588C27.3511 44.4504 28.0833 44.1302 29.0354 44.0299C30.3674 44.2963 33.2826 44.5095 34.2873 43.2307L34.3105 43.2013C34.6693 42.745 35.191 42.0817 34.744 41.7465C33.1316 41.7465 32.2939 42.3192 31.6089 42.7875C31.0329 43.1813 30.5648 43.5014 29.8346 43.3449C29.7841 43.1428 30.27 42.8737 30.877 42.5376C31.6419 42.1139 32.599 41.5839 32.9173 40.9473C34.6298 40.7951 38.0322 39.9654 37.9408 37.8647C36.2622 37.5996 35.1988 38.6336 34.4863 39.3265C34.278 39.5289 34.0997 39.7023 33.9448 39.8056C33.7736 39.9198 33.3283 39.7828 34.059 39.2347C34.4396 38.9303 35.2692 38.1615 35.5432 37.5222C35.5432 37.2722 36.2271 37.0565 36.9211 36.8375C37.4953 36.6564 38.0764 36.473 38.2833 36.2663C39.0064 35.8096 40.2699 34.4624 39.5392 32.7269C38.7782 33.0314 37.1647 33.8687 36.7991 34.782C36.5704 33.6403 36.913 32.7269 38.6255 31.8136C39.5009 31.3188 41.1145 29.8726 40.5665 28.0459C39.0916 28.1864 38.8267 28.9319 38.6018 29.5646C38.4612 29.9602 38.3363 30.3117 37.9409 30.4435C37.9409 28.7792 38.7305 27.9762 39.4645 27.2298C40.0396 26.6448 40.5807 26.0945 40.681 25.1916C40.8713 24.3543 41.0464 22.6342 40.2244 22.4515C38.8275 23.4293 38.7979 24.8344 38.7765 25.8565C38.7628 26.5052 38.7525 26.9995 38.3978 27.1325C37.9409 25.3058 38.1695 24.2782 38.512 23.479C39.6537 22.109 40.681 19.7114 39.3112 18.1129C37.913 18.7358 37.9421 19.985 37.9585 20.6878C37.9662 21.0157 37.9711 21.2246 37.827 21.1956C37.4845 21.3098 37.416 19.3003 38.0553 18.1129C38.6262 17.0528 38.8545 14.6193 37.4845 13.8886C36.4869 14.6434 36.7454 16.7043 36.8806 17.7813C36.9294 18.1705 36.9621 18.4312 36.9136 18.4555C36.4981 18.0749 35.759 16.9256 36.1264 15.3728C36.1406 15.3131 36.1548 15.2533 36.169 15.1934C36.6176 13.3066 37.0822 11.3522 35.201 10.5776C34.5333 11.097 34.8924 12.4264 35.1538 13.394C35.2946 13.9153 35.407 14.3315 35.3152 14.4595C34.4759 13.9349 34.3837 12.7595 34.2857 11.5093C34.1704 10.0384 34.047 8.46388 32.6892 7.72332C32.3565 8.95341 32.7002 10.0199 32.9123 10.6779C33.0546 11.1192 33.1376 11.3768 32.9176 11.3768C32.4374 10.8176 32.2994 9.78746 32.1826 8.91553C32.1086 8.36343 32.0431 7.87475 31.9047 7.60914C31.5475 6.92407 30.0405 5.41705 29.4924 6.23908C29.4544 6.77187 29.5838 7.90595 30.4058 8.17996C30.5961 8.29413 30.931 8.61381 30.7483 8.97916C28.3555 7.15607 25.1252 6.60659 23.9202 6.69519Z" fill="url(#paint0_linear_4346_6127)"/>
<path d="M30.8149 18.7695L29.4883 22.4177L30.4832 22.9704L31.6993 19.3223L30.8149 18.7695Z" fill="white"/>
<path d="M17.1055 22.7205L16 18.9618L17.6583 18.1879C18.5427 17.8342 18.9112 18.7038 18.9849 19.1829C19.1617 20.0673 18.1742 20.7306 17.6583 20.9517L18.1005 22.2783L17.1055 22.7205Z" fill="white"/>
<path d="M21.7477 19.7628L20.8633 19.9839C20.9738 20.353 21.3276 21.1133 21.8582 21.2018C22.5215 21.3123 23.7376 21.3123 23.8481 19.9839C23.9366 18.9211 22.9269 18.5105 22.411 18.438C21.3055 18.3274 22.1899 17.443 22.6321 18.2169L23.5165 18.1045C23.5165 16.6692 20.8633 16.5576 20.8633 18.2151C20.8633 19.1879 21.7108 19.468 22.3004 19.5417C23.4059 19.8733 22.3004 21.0894 21.7477 19.7628Z" fill="white"/>
<path d="M26.2465 19.8879L25.3352 19.915C25.3644 20.2992 25.5475 21.1176 26.047 21.3173C26.6714 21.567 27.8594 21.8268 28.2512 20.5526C28.5646 19.5333 27.6659 18.9164 27.1774 18.7354C26.1211 18.3913 27.174 17.7162 27.4407 18.5667L28.3287 18.6458C28.6353 17.2436 26.0672 16.5678 25.7131 18.187C25.5053 19.1374 26.2734 19.592 26.8337 19.79C27.8428 20.3501 26.503 21.302 26.2465 19.8879Z" fill="white"/>
<path d="M18.129 19.3043C17.9982 18.781 17.3114 18.9773 16.9844 19.1408L17.3114 20.2858C17.6385 20.1767 18.2598 19.8276 18.129 19.3043Z" fill="#1F3F88"/>
<path d="M22.2401 35.8345C22.3163 35.833 22.3926 35.833 22.4688 35.8339C22.5105 35.8335 22.5522 35.8331 22.5951 35.8326C22.7329 35.8315 22.8706 35.8323 23.0083 35.8331C23.104 35.8329 23.1997 35.8327 23.2954 35.8324C23.4959 35.832 23.6964 35.8325 23.8969 35.8337C24.1542 35.8351 24.4113 35.8343 24.6686 35.8328C24.8662 35.8319 25.0637 35.8322 25.2613 35.8328C25.3562 35.833 25.451 35.8328 25.5459 35.8322C25.6783 35.8316 25.8107 35.8325 25.9432 35.8339C25.9825 35.8334 26.0218 35.8329 26.0624 35.8324C26.1717 35.8345 26.1717 35.8345 26.3511 35.8655C26.4359 35.9875 26.4359 35.9875 26.4976 36.1096C26.6017 36.1465 26.6017 36.1465 26.7204 36.1418C26.7878 36.1433 26.7878 36.1433 26.8566 36.1447C26.905 36.1445 26.9533 36.1443 27.0032 36.1441C27.0528 36.1449 27.1025 36.1456 27.1536 36.1464C27.3123 36.1485 27.471 36.1489 27.6297 36.1493C27.7372 36.1504 27.8448 36.1517 27.9523 36.153C28.216 36.1561 28.4798 36.1578 28.7435 36.1584C28.6781 36.3346 28.6126 36.496 28.4994 36.6467C28.3753 36.6774 28.3753 36.6774 28.2251 36.6775C28.1689 36.6781 28.1127 36.6787 28.0548 36.6794C27.9941 36.6787 27.9333 36.6781 27.8708 36.6774C27.8085 36.6775 27.7462 36.6776 27.682 36.6778C27.5501 36.6777 27.4184 36.6772 27.2865 36.6758C27.1175 36.6742 26.9486 36.6745 26.7797 36.6754C26.6185 36.676 26.4573 36.6751 26.2962 36.6743C26.2354 36.6746 26.1747 36.6748 26.1122 36.6751C26.0278 36.6739 26.0278 36.6739 25.9418 36.6727C25.8923 36.6724 25.8427 36.6721 25.7917 36.6718C25.6322 36.6395 25.6151 36.5782 25.5211 36.4514C25.3995 36.4218 25.3995 36.4218 25.2603 36.4261C25.1804 36.4252 25.1804 36.4252 25.0988 36.4243C25.0125 36.4249 25.0125 36.4249 24.9245 36.4255C24.8655 36.4253 24.8064 36.4251 24.7456 36.4249C24.6206 36.4248 24.4957 36.4251 24.3708 36.4259C24.1791 36.427 23.9876 36.4259 23.796 36.4247C23.6748 36.4248 23.5535 36.4251 23.4323 36.4255C23.3748 36.4251 23.3172 36.4247 23.258 36.4243C23.2047 36.4249 23.1514 36.4255 23.0965 36.4261C23.0496 36.4263 23.0027 36.4264 22.9543 36.4266C22.828 36.4394 22.828 36.4394 22.7629 36.5489C22.6892 36.6467 22.6892 36.6467 22.5679 36.6728C22.4956 36.6739 22.4956 36.6739 22.4218 36.6751C22.3396 36.6769 22.3396 36.6769 22.2558 36.6788C22.1966 36.6791 22.1374 36.6793 22.0765 36.6795C22.0156 36.6801 21.9547 36.6808 21.892 36.6815C21.7631 36.6825 21.6342 36.683 21.5053 36.6829C21.3732 36.6829 21.2413 36.6842 21.1093 36.6869C20.919 36.6905 20.7288 36.6914 20.5385 36.6917C20.4501 36.6938 20.4501 36.6938 20.36 36.696C19.9603 36.6916 19.9603 36.6916 19.802 36.5601C19.6133 36.3168 19.6133 36.3168 19.6133 36.1584C19.641 36.1584 19.6687 36.1583 19.6972 36.1582C19.9856 36.1573 20.2738 36.1546 20.5621 36.151C20.6697 36.1499 20.7773 36.1492 20.8849 36.1489C21.0396 36.1484 21.1942 36.1464 21.3489 36.1441C21.421 36.1444 21.421 36.1444 21.4947 36.1447C21.5621 36.1433 21.5621 36.1433 21.6309 36.1418C21.6901 36.1413 21.6901 36.1413 21.7505 36.1408C21.8723 36.1182 21.8723 36.1182 21.9453 35.9875C22.0545 35.8655 22.0545 35.8655 22.2401 35.8345Z" fill="#F9FCFD"/>
<path d="M22.3026 37.4757C22.7902 37.47 23.2779 37.4657 23.7655 37.463C23.992 37.4618 24.2184 37.46 24.4448 37.4573C24.6633 37.4546 24.8817 37.4532 25.1001 37.4525C25.1835 37.4521 25.267 37.4512 25.3504 37.4499C25.4671 37.4481 25.5837 37.4479 25.7004 37.448C25.735 37.4471 25.7696 37.4462 25.8053 37.4453C25.9018 37.4463 25.9018 37.4463 26.0621 37.4757C26.1454 37.5975 26.1454 37.5975 26.2086 37.7198C26.3026 37.7565 26.3026 37.7565 26.409 37.752C26.449 37.753 26.4891 37.7539 26.5304 37.7549C26.5949 37.7546 26.5949 37.7546 26.6608 37.7543C26.705 37.7551 26.7492 37.7558 26.7948 37.7566C26.9361 37.7587 27.0773 37.7591 27.2186 37.7595C27.3144 37.7606 27.4102 37.7618 27.506 37.7632C27.7408 37.7663 27.9756 37.7678 28.2104 37.7686C28.1801 37.8318 28.1495 37.8949 28.1188 37.9578C28.0934 38.0105 28.0934 38.0105 28.0673 38.0643C28.0151 38.1592 28.0151 38.1592 27.9174 38.2569C27.813 38.2686 27.813 38.2686 27.6823 38.268C27.6334 38.268 27.5845 38.268 27.5342 38.2679C27.4548 38.2672 27.4548 38.2672 27.3739 38.2664C27.3198 38.2663 27.2658 38.2661 27.2101 38.266C27.037 38.2655 26.8638 38.2642 26.6907 38.263C26.5736 38.2625 26.4564 38.2621 26.3392 38.2617C26.0515 38.2606 25.7639 38.2589 25.4762 38.2569C25.4279 38.136 25.4279 38.136 25.3786 38.0128C24.5891 38.0128 23.7996 38.0128 22.9861 38.0128C22.9539 38.0933 22.9217 38.1739 22.8885 38.2569C22.5532 38.2668 22.2179 38.2736 21.8824 38.2783C21.7684 38.2803 21.6543 38.283 21.5403 38.2863C21.3762 38.2911 21.2122 38.2933 21.048 38.295C20.9972 38.297 20.9464 38.2991 20.894 38.3011C20.5473 38.3014 20.5473 38.3014 20.3968 38.1708C20.2031 37.9207 20.2031 37.9207 20.2031 37.7686C20.8637 37.7525 21.5243 37.7364 22.2049 37.7198C22.2372 37.6392 22.2694 37.5587 22.3026 37.4757Z" fill="#F9FBFD"/>
<path d="M24.227 24C24.3946 24.0693 24.5282 24.1698 24.6679 24.283C24.6977 24.3069 24.7274 24.3308 24.7581 24.3555C26.2777 25.599 27.1462 27.37 27.3649 29.3103C27.3758 29.4462 27.3806 29.5786 27.3777 29.7148C28.3024 29.552 29.0054 29.2157 29.7213 28.5918C29.7614 28.5577 29.8015 28.5236 29.8428 28.4884C30.2566 28.1281 30.6492 27.7273 30.9724 27.2827C31.0298 27.2057 31.0298 27.2057 31.0884 27.1271C31.1206 27.1271 31.1528 27.1271 31.186 27.1271C31.3075 27.6062 31.3564 28.0452 31.3508 28.5399C31.3503 28.6043 31.3498 28.6687 31.3493 28.7351C31.3423 29.1764 31.3192 29.5843 31.186 30.0077C31.1715 30.0542 31.1715 30.0542 31.1566 30.1016C30.8404 31.0844 30.2785 31.895 29.4772 32.5466C29.9412 32.7786 30.6913 32.5381 31.1538 32.3961C31.5056 32.2748 31.8416 32.1127 32.175 31.9484C32.2602 31.9119 32.2602 31.9119 32.3578 31.9119C32.3695 32.1898 32.3429 32.4134 32.2419 32.6748C32.229 32.7083 32.216 32.7418 32.2027 32.7764C31.8419 33.657 31.162 34.2314 30.3036 34.6068C29.062 35.1253 27.7723 35.0027 26.5393 34.5633C26.3283 34.4868 26.3283 34.4868 26.1083 34.4508C26.0147 34.5091 26.0147 34.5091 25.9343 34.6003C25.4358 35.0698 24.7775 35.2567 24.1057 35.2492C23.4365 35.2263 22.8575 34.9952 22.3903 34.5105C22.3029 34.4398 22.3029 34.4398 22.1918 34.4571C22.0488 34.5018 21.9076 34.55 21.7666 34.6007C20.4908 35.0545 19.1028 35.1037 17.8534 34.5282C17.5521 34.3713 17.2835 34.1847 17.0269 33.9625C16.9902 33.9311 16.9535 33.8996 16.9157 33.8672C16.4857 33.4703 16.2069 32.9618 16.0504 32.4002C16.0342 32.3518 16.0181 32.3035 16.0015 32.2537C15.9996 32.1398 15.9994 32.0258 16.0015 31.9119C16.1954 31.9723 16.3788 32.0452 16.5633 32.1298C17.1618 32.4038 17.7625 32.6029 18.4275 32.6016C18.4911 32.6017 18.5548 32.6018 18.6203 32.6019C18.7843 32.6031 18.7843 32.6031 18.931 32.5466C18.8716 32.4951 18.8716 32.4951 18.8111 32.4425C17.8242 31.5696 17.2161 30.5451 17.0269 29.2265C16.9876 28.5187 16.9961 27.8158 17.1733 27.1271C17.3572 27.2005 17.444 27.3045 17.5639 27.4597C17.9743 27.973 18.4041 28.439 18.931 28.8359C18.9878 28.88 18.9878 28.88 19.0456 28.925C19.2902 29.1067 19.5478 29.2511 19.819 29.3883C19.8515 29.4048 19.884 29.4213 19.9175 29.4383C20.2045 29.5792 20.4872 29.6701 20.8077 29.6965C20.85 29.7001 20.8922 29.7038 20.9357 29.7075C20.967 29.7099 20.9983 29.7123 21.0305 29.7148C21.0282 29.6879 21.026 29.661 21.0236 29.6334C20.9562 28.0793 21.7476 26.3812 22.7394 25.2229C22.7723 25.1834 22.8053 25.1439 22.8393 25.1031C23.7825 24.0084 23.7825 24.0084 24.227 24Z" fill="#F2F2F3"/>
<path d="M21.9167 24L21.1923 24.7242L21.6752 26.0525L21.9167 25.6898V24Z" fill="#0D9C4C"/>
<path d="M20.8302 25.0863L20.2266 25.5696L20.9509 27.3802L21.313 26.5347L20.8302 25.0863Z" fill="#0D9C4C"/>
<path d="M26.1419 24L26.8663 24.7242L26.3834 26.0525L26.1419 25.6898V24Z" fill="#0D9C4C"/>
<path d="M27.2284 25.0863L27.832 25.5696L27.1077 27.3802L26.7455 26.5347L27.2284 25.0863Z" fill="#0D9C4C"/>
<circle cx="24.085" cy="12.085" r="2.985" fill="black" stroke="white" stroke-width="0.2"/>
<path d="M23.0982 9.74219L23.962 10.4826V11.223L23.4684 11.5932L22.6046 11.3464L22.2344 10.4826L23.0982 9.74219Z" fill="white"/>
<path d="M23.5932 12.5786L23.3464 11.8382L22.4826 11.7148L21.7422 12.3318L22.2358 13.4424H23.0996L23.5932 12.5786Z" fill="white"/>
<path d="M24.5801 12.8281H23.7163L23.2227 13.5685L23.5929 14.3089H24.7035L24.9503 13.4451L24.5801 12.8281Z" fill="white"/>
<path d="M24.9538 11.9639L24.707 12.5809L25.324 13.3213H26.1878L26.558 12.2107L25.6942 11.5938L24.9538 11.9639Z" fill="white"/>
<path d="M24.2109 10.3592V11.0996L24.9513 11.7166L25.8151 11.4698L25.9385 10.3592L25.0747 9.74219L24.2109 10.3592Z" fill="white"/>
<defs>
<linearGradient id="paint0_linear_4346_6127" x1="23.92" y1="6" x2="23.92" y2="45.4256" gradientUnits="userSpaceOnUse">
<stop stop-color="#FEE607"/>
<stop offset="1" stop-color="#FCB63D"/>
</linearGradient>
</defs>
</svg>
